<?xml version="1.0" encoding="UTF-8" standalone="no"?>
<!-- Created with Inkscape (http://www.inkscape.org/) -->

<svg
   xmlns:dc="http://purl.org/dc/elements/1.1/"
   xmlns:cc="http://creativecommons.org/ns#"
   xmlns:rdf="http://www.w3.org/1999/02/22-rdf-syntax-ns#"
   xmlns:svg="http://www.w3.org/2000/svg"
   xmlns="http://www.w3.org/2000/svg"
   xmlns:xlink="http://www.w3.org/1999/xlink"
   xmlns:sodipodi="http://sodipodi.sourceforge.net/DTD/sodipodi-0.dtd"
   xmlns:inkscape="http://www.inkscape.org/namespaces/inkscape"
   width="24"
   height="24"
   id="svg2"
   sodipodi:version="0.32"
   inkscape:version="0.48.4 r9939"
   version="1.0"
   sodipodi:docname="icon_rec.svg"
   inkscape:output_extension="org.inkscape.output.svg.inkscape"
   sodipodi:modified="true">
  <defs
     id="defs4">
    <linearGradient
       inkscape:collect="always"
       id="linearGradient2433">
      <stop
         style="stop-color:#008000;stop-opacity:1;"
         offset="0"
         id="stop2435" />
      <stop
         style="stop-color:#008000;stop-opacity:0;"
         offset="1"
         id="stop2437" />
    </linearGradient>
    <inkscape:perspective
       sodipodi:type="inkscape:persp3d"
       inkscape:vp_x="0 : 12 : 1"
       inkscape:vp_y="0 : 1000 : 0"
       inkscape:vp_z="24 : 12 : 1"
       inkscape:persp3d-origin="12 : 8 : 1"
       id="perspective32" />
    <linearGradient
       id="linearGradient4269">
      <stop
         style="stop-color:#26b000;stop-opacity:1;"
         offset="0"
         id="stop4271" />
      <stop
         style="stop-color:#26b000;stop-opacity:0;"
         offset="1"
         id="stop4273" />
    </linearGradient>
    <linearGradient
       id="linearGradient4183">
      <stop
         id="stop4185"
         offset="0"
         style="stop-color:#26b000;stop-opacity:1;" />
      <stop
         id="stop4187"
         offset="1"
         style="stop-color:#145f00;stop-opacity:1;" />
    </linearGradient>
    <linearGradient
       id="linearGradient4167">
      <stop
         style="stop-color:#80000e;stop-opacity:1;"
         offset="0"
         id="stop4169" />
      <stop
         style="stop-color:#b00014;stop-opacity:0;"
         offset="1"
         id="stop4171" />
    </linearGradient>
    <linearGradient
       inkscape:collect="always"
       xlink:href="#linearGradient2433"
       id="linearGradient2439"
       x1="2.965755"
       y1="-0.80084854"
       x2="32.578228"
       y2="16.739393"
       gradientUnits="userSpaceOnUse" />
  </defs>
  <sodipodi:namedview
     id="base"
     pagecolor="#ffffff"
     bordercolor="#666666"
     borderopacity="1.0"
     inkscape:pageopacity="0.0"
     inkscape:pageshadow="2"
     inkscape:zoom="22.627417"
     inkscape:cx="10.715028"
     inkscape:cy="12.011455"
     inkscape:document-units="px"
     inkscape:current-layer="layer1"
     width="32px"
     height="32px"
     showguides="true"
     inkscape:guide-bbox="true"
     inkscape:window-width="927"
     inkscape:window-height="1148"
     inkscape:window-x="65"
     inkscape:window-y="24"
     showgrid="false"
     inkscape:window-maximized="0" />
  <metadata
     id="metadata7">
    <rdf:RDF>
      <cc:Work
         rdf:about="">
        <dc:format>image/svg+xml</dc:format>
        <dc:type
           rdf:resource="http://purl.org/dc/dcmitype/StillImage" />
        <dc:title />
      </cc:Work>
    </rdf:RDF>
  </metadata>
  <g
     inkscape:label="Calque 1"
     inkscape:groupmode="layer"
     id="layer1">
    <rect
       style="color:#bebebe;fill:none;stroke:none;stroke-width:1;marker:none;visibility:visible;display:inline;overflow:visible"
       id="rect44095-0-2"
       width="27.25"
       height="27.25"
       x="-25.687498"
       y="-27.12499"
       inkscape:label="a"
       transform="scale(-1,-1)" />
    <rect
       style="color:#bebebe;fill:none;stroke:none;stroke-width:1;marker:none;visibility:visible;display:inline;overflow:visible"
       id="rect44095-0"
       width="27.357903"
       height="27.357903"
       x="-1.6802465"
       y="-4.3527112"
       inkscape:label="a" />
    <rect
       inkscape:label="a"
       y="-18.073694"
       x="-1.6802227"
       height="27.402094"
       width="27.402094"
       id="rect44122-0"
       style="color:#bebebe;fill:none;stroke:none;stroke-width:1;marker:none;visibility:visible;display:inline;overflow:visible" />
    <path
       inkscape:connector-curvature="0"
       style="fill:#545454;fill-opacity:1;stroke:none;display:inline;enable-background:new"
       d="M 4.0433538,1.0992236 C 3.3722349,1.1739057 2.7548675,1.7746355 2.2208496,2.162351 0.58381955,3.4917909 -0.13500848,5.6624501 0.04396947,7.7311139 0.25542863,10.385652 1.3200303,12.868341 2.6258504,15.173007 2.9012511,15.12522 3.1973878,15.07176 3.4864775,15.07176 c 2.716066,0 4.9106365,2.194572 4.9106365,4.910639 0,0.622438 -0.1433704,1.223768 -0.3543758,1.771879 0.6052658,0.405309 1.2736307,0.710858 1.9743798,0.961877 1.972419,0.70185 4.217939,0.208836 5.872514,-1.012502 l 0.151795,-0.101246 0.05054,-0.151795 c 0.255962,-1.224999 -0.525691,-2.410711 -1.164378,-3.391883 -0.746142,-0.982713 -1.589548,-2.004351 -2.733757,-2.531258 -0.358166,-0.09704 -0.631072,0.33581 -0.961877,0.455626 -0.859962,0.559161 -2.0814613,1.048321 -2.9868814,0.303751 C 7.1121108,15.275942 6.5813327,13.789961 5.7644458,12.540582 5.1915315,11.552428 4.3805414,10.243886 5.1569444,9.1486983 5.7410368,8.3386639 6.730276,8.0292432 7.4856998,7.4780694 7.6710931,6.4850879 7.3106098,5.4891906 7.0300737,4.5418126 6.5532419,3.2963213 5.9278232,1.9717251 4.7519435,1.2511799 4.5126851,1.1274116 4.2668981,1.0744213 4.0431918,1.0993856 z"
       id="path44084-2-0-3-8-3" />
    <path
       sodipodi:type="arc"
       style="fill:#de2c2c;fill-opacity:0.98431373;stroke:none"
       id="path12471-2"
       sodipodi:cx="83.928574"
       sodipodi:cy="507.45148"
       sodipodi:rx="2.0535715"
       sodipodi:ry="2.0535715"
       d="m 85.982145,507.45148 a 2.0535715,2.0535715 0 1 1 -4.107143,0 2.0535715,2.0535715 0 1 1 4.107143,0 z"
       transform="matrix(1.6200038,0,0,1.6200038,-132.49259,-802.01204)" />
    <g
       id="g18385"
       transform="matrix(1.0927377,-0.64521662,0.64521662,1.0927377,534.18176,-298.02893)"
       style="opacity:0.5;fill:#545454;fill-opacity:1">
      <g
         id="g12169"
         style="fill:#545454;fill-opacity:1">
        <path
           sodipodi:nodetypes="scccscccs"
           inkscape:connector-curvature="0"
           id="rect11714-3-90-5-8"
           d="m -469.32862,1.1569422 c 0,-2.81422 -1,-5.17173 -2.58557,-7 l -1.41443,0 0,1.48072 c 1.26466,1.51928 2,3.21936 2,5.51928 0,2.299919 -0.77953,3.999999 -2,5.519279 l 0,1.48072 1.38128,0 c 1.46575,-1.64044 2.61872,-4.18578 2.61872,-6.999999 z"
           style="color:#000000;fill:#545454;fill-opacity:1;fill-rule:nonzero;stroke:none;stroke-width:1;marker:none;visibility:visible;display:inline;overflow:visible;enable-background:accumulate" />
        <path
           sodipodi:nodetypes="scccscccs"
           inkscape:connector-curvature="0"
           id="rect11703-1-59-3-6"
           d="m -472.32862,1.1569422 c 0,-2.16664 -0.73878,-4.01982 -2,-5 l -1,0 0,2 c 0.60652,0.78878 1,1.75887004 1,3 0,1.24113 -0.39348,2.219379 -1,2.999999 l 0,2 1,0 c 1.2229,-0.99478 2,-2.8734 2,-4.999999 z"
           style="color:#000000;fill:#545454;fill-opacity:1;fill-rule:nonzero;stroke:none;stroke-width:1;marker:none;visibility:visible;display:inline;overflow:visible;enable-background:accumulate" />
        <path
           sodipodi:nodetypes="zccccccz"
           inkscape:connector-curvature="0"
           id="path6297-6-84-7-2"
           d="m -475.32862,1.1569422 c 0,-1.25732996 -0.31165,-2.21571 -1,-3 l -1,0 0,3 0,0.375 0,2.624999 1,0 c 0.67206,-0.8369 1,-1.742669 1,-2.999999 z"
           clip-path="none"
           mask="none"
           style="font-size:medium;font-style:normal;font-variant:normal;font-weight:normal;font-stretch:normal;text-indent:0;text-align:start;text-decoration:none;line-height:normal;letter-spacing:normal;word-spacing:normal;text-transform:none;direction:ltr;block-progression:tb;writing-mode:lr-tb;text-anchor:start;baseline-shift:baseline;color:#000000;fill:#545454;fill-opacity:1;stroke:none;stroke-width:2.32782054;marker:none;visibility:visible;display:inline;overflow:visible;enable-background:accumulate;font-family:Sans;-inkscape-font-specification:Sans" />
      </g>
    </g>
  </g>
</svg>
