<?xml version="1.0" encoding="UTF-8" standalone="no"?>
<!-- Created with Inkscape (http://www.inkscape.org/) -->

<svg
   xmlns:dc="http://purl.org/dc/elements/1.1/"
   xmlns:cc="http://creativecommons.org/ns#"
   xmlns:rdf="http://www.w3.org/1999/02/22-rdf-syntax-ns#"
   xmlns:svg="http://www.w3.org/2000/svg"
   xmlns="http://www.w3.org/2000/svg"
   xmlns:xlink="http://www.w3.org/1999/xlink"
   xmlns:sodipodi="http://sodipodi.sourceforge.net/DTD/sodipodi-0.dtd"
   xmlns:inkscape="http://www.inkscape.org/namespaces/inkscape"
   width="24"
   height="24"
   id="svg2"
   sodipodi:version="0.32"
   inkscape:version="0.48.3.1 r9886"
   version="1.0"
   sodipodi:docname="new_call.svg"
   inkscape:output_extension="org.inkscape.output.svg.inkscape"
   sodipodi:modified="true">
  <defs
     id="defs4">
    <linearGradient
       id="linearGradient4045">
      <stop
         style="stop-color:#ffffff;stop-opacity:0"
         offset="0"
         id="stop4047" />
      <stop
         style="stop-color:#fefee7;stop-opacity:0.89308178"
         offset="1"
         id="stop4049" />
    </linearGradient>
    <linearGradient
       id="linearGradient4269">
      <stop
         style="stop-color:#1db000;stop-opacity:1;"
         offset="0"
         id="stop4271" />
      <stop
         style="stop-color:#1db000;stop-opacity:0;"
         offset="1"
         id="stop4273" />
    </linearGradient>
    <linearGradient
       id="linearGradient4183">
      <stop
         id="stop4185"
         offset="0"
         style="stop-color:#1db000;stop-opacity:1;" />
      <stop
         id="stop4187"
         offset="1"
         style="stop-color:#0f5f00;stop-opacity:1;" />
    </linearGradient>
    <linearGradient
       id="linearGradient4167">
      <stop
         style="stop-color:#80000e;stop-opacity:1;"
         offset="0"
         id="stop4169" />
      <stop
         style="stop-color:#b00014;stop-opacity:0;"
         offset="1"
         id="stop4171" />
    </linearGradient>
    <linearGradient
       inkscape:collect="always"
       xlink:href="#linearGradient4183"
       id="linearGradient2224"
       x1="16.826796"
       y1="6.7288713"
       x2="27.5625"
       y2="22.512505"
       gradientUnits="userSpaceOnUse"
       gradientTransform="matrix(0.875025,0,0,0.875025,0.666703,0.177907)" />
    <linearGradient
       y2="13.920053"
       x2="6.8378897"
       y1="12.625902"
       x1="2.0651877"
       gradientTransform="matrix(-1,0,0,1,32.04188,-2.86473)"
       gradientUnits="userSpaceOnUse"
       id="linearGradient1388"
       xlink:href="#linearGradient4269"
       inkscape:collect="always" />
    <linearGradient
       gradientTransform="translate(0.426158,-2.762136)"
       gradientUnits="userSpaceOnUse"
       y2="13.920053"
       x2="6.8378897"
       y1="12.625902"
       x1="2.0651877"
       id="linearGradient1386"
       xlink:href="#linearGradient4269"
       inkscape:collect="always" />
    <linearGradient
       gradientUnits="userSpaceOnUse"
       y2="10.576721"
       x2="14.013638"
       y1="2.7028866"
       x1="15.647213"
       id="linearGradient1384"
       xlink:href="#linearGradient4183"
       inkscape:collect="always" />
    <linearGradient
       gradientTransform="translate(-0.947018,-0.885198)"
       gradientUnits="userSpaceOnUse"
       y2="12.535715"
       x2="31.31678"
       y1="12.535715"
       x1="24.397505"
       id="linearGradient1382"
       xlink:href="#linearGradient4183"
       inkscape:collect="always" />
    <linearGradient
       gradientTransform="translate(1.262691,-1.100752)"
       gradientUnits="userSpaceOnUse"
       y2="12.825893"
       x2="7.9239235"
       y1="12.825893"
       x1="1.0046476"
       id="linearGradient1380"
       xlink:href="#linearGradient4183"
       inkscape:collect="always" />
    <linearGradient
       id="linearGradient1374">
      <stop
         id="stop1376"
         offset="0"
         style="stop-color:#80000e;stop-opacity:1;" />
      <stop
         id="stop1378"
         offset="1"
         style="stop-color:#b00014;stop-opacity:0;" />
    </linearGradient>
    <linearGradient
       id="linearGradient1368">
      <stop
         style="stop-color:#26b000;stop-opacity:1;"
         offset="0"
         id="stop1370" />
      <stop
         style="stop-color:#145f00;stop-opacity:1;"
         offset="1"
         id="stop1372" />
    </linearGradient>
    <linearGradient
       id="linearGradient1362">
      <stop
         id="stop1364"
         offset="0"
         style="stop-color:#26b000;stop-opacity:1;" />
      <stop
         id="stop1366"
         offset="1"
         style="stop-color:#26b000;stop-opacity:0;" />
    </linearGradient>
    <linearGradient
       inkscape:collect="always"
       xlink:href="#linearGradient4183"
       id="linearGradient1406"
       gradientUnits="userSpaceOnUse"
       x1="15.647213"
       y1="2.7028866"
       x2="14.013638"
       y2="10.576721" />
    <linearGradient
       inkscape:collect="always"
       xlink:href="#linearGradient4183"
       id="linearGradient1408"
       gradientUnits="userSpaceOnUse"
       gradientTransform="translate(1.262691,-1.100752)"
       x1="10.57493"
       y1="12.115559"
       x2="-0.68574232"
       y2="12.115559" />
    <linearGradient
       inkscape:collect="always"
       xlink:href="#linearGradient4183"
       id="linearGradient1410"
       gradientUnits="userSpaceOnUse"
       gradientTransform="translate(-0.947018,-0.885198)"
       x1="31.692968"
       y1="11.264216"
       x2="23.888865"
       y2="13.35532" />
    <linearGradient
       inkscape:collect="always"
       xlink:href="#linearGradient4269"
       id="linearGradient1412"
       gradientUnits="userSpaceOnUse"
       gradientTransform="translate(0.426158,-2.762136)"
       x1="7.8517423"
       y1="15.912388"
       x2="7.1114841"
       y2="11.597325" />
    <linearGradient
       inkscape:collect="always"
       xlink:href="#linearGradient4269"
       id="linearGradient1414"
       gradientUnits="userSpaceOnUse"
       gradientTransform="matrix(-1,0,0,1,32.04188,-2.86473)"
       x1="2.0651877"
       y1="12.625902"
       x2="6.8378897"
       y2="13.920053" />
    <linearGradient
       gradientTransform="matrix(1.256521,0,0,-1.256521,-7.854319,28.773309)"
       gradientUnits="userSpaceOnUse"
       y2="8.5305319"
       x2="15.630395"
       y1="22.874208"
       x1="15.630395"
       id="linearGradient2444"
       xlink:href="#linearGradient4269"
       inkscape:collect="always" />
    <linearGradient
       y2="13.920053"
       x2="6.8378897"
       y1="12.625902"
       x1="2.0651877"
       gradientTransform="matrix(-1,0,0,1,31.179578,-2.86473)"
       gradientUnits="userSpaceOnUse"
       id="linearGradient2442"
       xlink:href="#linearGradient4269"
       inkscape:collect="always" />
    <linearGradient
       gradientTransform="translate(1.1362892,-2.762136)"
       gradientUnits="userSpaceOnUse"
       y2="13.920053"
       x2="6.8378897"
       y1="12.625902"
       x1="2.0651877"
       id="linearGradient2440"
       xlink:href="#linearGradient4269"
       inkscape:collect="always" />
    <linearGradient
       gradientUnits="userSpaceOnUse"
       y2="10.576721"
       x2="14.013638"
       y1="2.7028866"
       x1="15.647213"
       id="linearGradient2438"
       xlink:href="#linearGradient4183"
       inkscape:collect="always" />
    <linearGradient
       gradientTransform="translate(-1.9107675,-0.885198)"
       gradientUnits="userSpaceOnUse"
       y2="12.535715"
       x2="31.31678"
       y1="12.535715"
       x1="24.397505"
       id="linearGradient2436"
       xlink:href="#linearGradient4183"
       inkscape:collect="always" />
    <linearGradient
       gradientTransform="translate(1.9220986,-1.100752)"
       gradientUnits="userSpaceOnUse"
       y2="12.825893"
       x2="7.9239235"
       y1="12.825893"
       x1="1.0046476"
       id="linearGradient2434"
       xlink:href="#linearGradient4183"
       inkscape:collect="always" />
    <linearGradient
       id="linearGradient2428">
      <stop
         id="stop2430"
         offset="0"
         style="stop-color:#80000e;stop-opacity:1;" />
      <stop
         id="stop2432"
         offset="1"
         style="stop-color:#b00014;stop-opacity:0;" />
    </linearGradient>
    <linearGradient
       id="linearGradient2422">
      <stop
         style="stop-color:#26b000;stop-opacity:1;"
         offset="0"
         id="stop2424" />
      <stop
         style="stop-color:#145f00;stop-opacity:1;"
         offset="1"
         id="stop2426" />
    </linearGradient>
    <linearGradient
       id="linearGradient2416">
      <stop
         id="stop2418"
         offset="0"
         style="stop-color:#26b000;stop-opacity:1;" />
      <stop
         id="stop2420"
         offset="1"
         style="stop-color:#26b000;stop-opacity:0;" />
    </linearGradient>
    <linearGradient
       inkscape:collect="always"
       xlink:href="#linearGradient4183"
       id="linearGradient2483"
       gradientUnits="userSpaceOnUse"
       x1="15.647213"
       y1="2.7028866"
       x2="14.013638"
       y2="10.576721" />
    <linearGradient
       inkscape:collect="always"
       xlink:href="#linearGradient4183"
       id="linearGradient2485"
       gradientUnits="userSpaceOnUse"
       gradientTransform="translate(1.262691,-1.100752)"
       x1="10.57493"
       y1="12.115559"
       x2="-0.68574232"
       y2="12.115559" />
    <linearGradient
       inkscape:collect="always"
       xlink:href="#linearGradient4183"
       id="linearGradient2487"
       gradientUnits="userSpaceOnUse"
       gradientTransform="translate(-0.947018,-0.885198)"
       x1="31.692968"
       y1="11.264216"
       x2="23.888865"
       y2="13.35532" />
    <linearGradient
       inkscape:collect="always"
       xlink:href="#linearGradient4269"
       id="linearGradient2489"
       gradientUnits="userSpaceOnUse"
       gradientTransform="translate(0.426158,-2.762136)"
       x1="7.8517423"
       y1="15.912388"
       x2="7.1114841"
       y2="11.597325" />
    <linearGradient
       inkscape:collect="always"
       xlink:href="#linearGradient4269"
       id="linearGradient2491"
       gradientUnits="userSpaceOnUse"
       gradientTransform="matrix(-1,0,0,1,32.04188,-2.86473)"
       x1="2.0651877"
       y1="12.625902"
       x2="6.8378897"
       y2="13.920053" />
    <linearGradient
       inkscape:collect="always"
       xlink:href="#XMLID_4_"
       id="linearGradient4284"
       gradientUnits="userSpaceOnUse"
       gradientTransform="matrix(2.4999996,0,0,2.4999996,174,-145.99998)"
       x1="-13.757333"
       y1="76.708466"
       x2="-62.424866"
       y2="104.80668" />
    <radialGradient
       gradientUnits="userSpaceOnUse"
       gradientTransform="matrix(0.9792,0,0,0.9725,133.0002,20.8762)"
       r="55.147999"
       cy="-0.2148"
       cx="48"
       id="XMLID_4_">
      <stop
         id="stop3082"
         style="stop-color:#72D13D"
         offset="0" />
      <stop
         id="stop3084"
         style="stop-color:#35AC1C"
         offset="0.3553" />
      <stop
         id="stop3086"
         style="stop-color:#0F9508"
         offset="0.6194" />
      <stop
         id="stop3088"
         style="stop-color:#008C00"
         offset="0.7574" />
      <stop
         id="stop3090"
         style="stop-color:#007A00"
         offset="1" />
    </radialGradient>
    <linearGradient
       inkscape:collect="always"
       xlink:href="#linearGradient3260"
       id="linearGradient4299"
       gradientUnits="userSpaceOnUse"
       spreadMethod="reflect"
       x1="73.742638"
       y1="15.336544"
       x2="80"
       y2="19.281664" />
    <linearGradient
       id="linearGradient3260"
       inkscape:collect="always">
      <stop
         id="stop3262"
         offset="0"
         style="stop-color:#ffffff;stop-opacity:1;" />
      <stop
         id="stop3264"
         offset="1"
         style="stop-color:#ffffff;stop-opacity:0;" />
    </linearGradient>
    <filter
       color-interpolation-filters="sRGB"
       id="filter3387"
       height="1.249912"
       y="-0.12495601"
       width="1.2041403"
       x="-0.10207015"
       inkscape:collect="always">
      <feGaussianBlur
         id="feGaussianBlur3389"
         stdDeviation="0.44655691"
         inkscape:collect="always" />
    </filter>
    <linearGradient
       inkscape:collect="always"
       xlink:href="#linearGradient3260"
       id="linearGradient4297"
       gradientUnits="userSpaceOnUse"
       spreadMethod="reflect"
       x1="73.742638"
       y1="15.336544"
       x2="80"
       y2="19.281664" />
    <linearGradient
       inkscape:collect="always"
       xlink:href="#linearGradient5412"
       id="linearGradient3003"
       gradientUnits="userSpaceOnUse"
       spreadMethod="reflect"
       x1="73.742638"
       y1="15.336544"
       x2="80"
       y2="19.281664" />
    <linearGradient
       id="linearGradient5412"
       gradientUnits="userSpaceOnUse"
       x1="28"
       y1="57.5"
       x2="28"
       y2="0">
      <stop
         offset="0"
         style="stop-color:#fff14d;stop-opacity:1;"
         id="stop5414" />
      <stop
         offset="1"
         style="stop-color:#f8ffa0;stop-opacity:0;"
         id="stop5416" />
    </linearGradient>
    <linearGradient
       inkscape:collect="always"
       xlink:href="#linearGradient3207"
       id="linearGradient3005"
       gradientUnits="userSpaceOnUse"
       gradientTransform="scale(1.039383,0.9621093)"
       x1="64.341988"
       y1="18.50366"
       x2="76.284439"
       y2="18.50366" />
    <linearGradient
       id="linearGradient3207">
      <stop
         style="stop-color:#ffffff;stop-opacity:1;"
         offset="0"
         id="stop3209" />
      <stop
         style="stop-color:#252525;stop-opacity:0;"
         offset="1"
         id="stop3211" />
    </linearGradient>
    <linearGradient
       inkscape:collect="always"
       xlink:href="#linearGradient3260"
       id="linearGradient4291"
       gradientUnits="userSpaceOnUse"
       spreadMethod="reflect"
       x1="73.742638"
       y1="15.336544"
       x2="80"
       y2="19.281664" />
    <radialGradient
       inkscape:collect="always"
       xlink:href="#linearGradient3030"
       id="radialGradient4275"
       gradientUnits="userSpaceOnUse"
       gradientTransform="matrix(2.4999996,0,0,2.4999996,174,-145.99998)"
       cx="-44"
       cy="84"
       fx="-60"
       fy="100"
       r="24" />
    <linearGradient
       id="linearGradient3030"
       inkscape:collect="always">
      <stop
         id="stop3032"
         offset="0"
         style="stop-color:#000000;stop-opacity:0.77902622" />
      <stop
         id="stop3034"
         offset="1"
         style="stop-color:#000000;stop-opacity:0;" />
    </linearGradient>
    <linearGradient
       inkscape:collect="always"
       xlink:href="#linearGradient3260"
       id="linearGradient4289"
       gradientUnits="userSpaceOnUse"
       spreadMethod="reflect"
       x1="73.742638"
       y1="15.336544"
       x2="80"
       y2="19.281664" />
    <radialGradient
       inkscape:collect="always"
       xlink:href="#XMLID_4_"
       id="radialGradient4271"
       gradientUnits="userSpaceOnUse"
       gradientTransform="matrix(2.4999996,0,0,2.4999996,174,-145.99998)"
       cx="-44"
       cy="84"
       fx="-40"
       fy="96"
       r="20" />
    <radialGradient
       gradientUnits="userSpaceOnUse"
       gradientTransform="matrix(0.9792,0,0,0.9725,133.0002,20.8762)"
       r="55.147999"
       cy="-0.2148"
       cx="48"
       id="radialGradient4180">
      <stop
         id="stop4182"
         style="stop-color:#72D13D"
         offset="0" />
      <stop
         id="stop4184"
         style="stop-color:#35AC1C"
         offset="0.3553" />
      <stop
         id="stop4186"
         style="stop-color:#0F9508"
         offset="0.6194" />
      <stop
         id="stop4188"
         style="stop-color:#008C00"
         offset="0.7574" />
      <stop
         id="stop4190"
         style="stop-color:#007A00"
         offset="1" />
    </radialGradient>
    <linearGradient
       inkscape:collect="always"
       xlink:href="#linearGradient3202"
       id="linearGradient4268"
       gradientUnits="userSpaceOnUse"
       gradientTransform="matrix(2.4999996,0,0,2.4999996,17.28126,-145.99998)"
       x1="11.68106"
       y1="60.539303"
       x2="11.68106"
       y2="108.0104" />
    <linearGradient
       id="linearGradient3202">
      <stop
         style="stop-color:#cbff9c;stop-opacity:1;"
         offset="0"
         id="stop3204" />
      <stop
         style="stop-color:#65c171;stop-opacity:0"
         offset="1"
         id="stop3206" />
    </linearGradient>
    <linearGradient
       inkscape:collect="always"
       xlink:href="#linearGradient3260"
       id="linearGradient4265"
       gradientUnits="userSpaceOnUse"
       gradientTransform="matrix(2.4999996,0,0,2.4999996,17.25592,-145.99998)"
       x1="6.6976352"
       y1="52"
       x2="11.68106"
       y2="96.001434" />
    <linearGradient
       inkscape:collect="always"
       xlink:href="#linearGradient3260"
       id="linearGradient4262"
       gradientUnits="userSpaceOnUse"
       gradientTransform="matrix(2.4999996,0,0,2.4999996,17.25592,-145.99998)"
       x1="26.697636"
       y1="96"
       x2="14.697635"
       y2="72" />
    <linearGradient
       inkscape:collect="always"
       xlink:href="#linearGradient3225"
       id="linearGradient4259"
       gradientUnits="userSpaceOnUse"
       x1="97.622581"
       y1="77.512512"
       x2="98.097946"
       y2="105.10625"
       gradientTransform="translate(-36.000006,-20.000008)" />
    <linearGradient
       id="linearGradient3225">
      <stop
         style="stop-color:#ffffff;stop-opacity:1;"
         offset="0"
         id="stop3227" />
      <stop
         style="stop-color:#ffffff;stop-opacity:0;"
         offset="1"
         id="stop3229" />
    </linearGradient>
    <filter
       color-interpolation-filters="sRGB"
       id="filter3191"
       inkscape:collect="always">
      <feGaussianBlur
         id="feGaussianBlur3193"
         stdDeviation="0.2025"
         inkscape:collect="always" />
    </filter>
    <linearGradient
       y2="105.10625"
       x2="98.097946"
       y1="77.512512"
       x1="97.622581"
       gradientTransform="translate(-36.000006,-20.000008)"
       gradientUnits="userSpaceOnUse"
       id="linearGradient4230"
       xlink:href="#linearGradient3225"
       inkscape:collect="always" />
    <filter
       id="filter5237"
       inkscape:label="Desaturate"
       x="0"
       y="0"
       width="1"
       height="1"
       inkscape:menu="Color"
       inkscape:menu-tooltip="Render in shades of gray by reducing saturation to zero"
       color-interpolation-filters="sRGB">
      <feColorMatrix
         id="feColorMatrix5239"
         type="saturate"
         values="0" />
    </filter>
  </defs>
  <sodipodi:namedview
     id="base"
     pagecolor="#ffffff"
     bordercolor="#666666"
     borderopacity="1.0"
     inkscape:pageopacity="0.0"
     inkscape:pageshadow="2"
     inkscape:zoom="5.6568543"
     inkscape:cx="5.6944947"
     inkscape:cy="-4.4505153"
     inkscape:document-units="px"
     inkscape:current-layer="layer1"
     width="32px"
     height="32px"
     showguides="true"
     inkscape:guide-bbox="true"
     inkscape:window-width="1918"
     inkscape:window-height="1147"
     inkscape:window-x="0"
     inkscape:window-y="35"
     showgrid="false"
     inkscape:window-maximized="0">
    <sodipodi:guide
       orientation="vertical"
       position="15.982143"
       id="guide3146" />
  </sodipodi:namedview>
  <metadata
     id="metadata7">
    <rdf:RDF>
      <cc:Work
         rdf:about="">
        <dc:format>image/svg+xml</dc:format>
        <dc:type
           rdf:resource="http://purl.org/dc/dcmitype/StillImage" />
      </cc:Work>
    </rdf:RDF>
  </metadata>
  <g
     inkscape:label="Calque 1"
     inkscape:groupmode="layer"
     id="layer1">
    <g
       id="g2446"
       inkscape:label="Calque 1"
       transform="translate(20.193677,1.1140386)"
       style="filter:url(#filter5237)">
      <g
         style="fill:none;stroke:#000000;stroke-opacity:0.44968555"
         transform="matrix(-0.4376782,-0.758081,0.7581751,-0.4377326,3.5952686,30.820492)"
         id="g2181">
        <path
           sodipodi:nodetypes="csccczccsccccc"
           id="path2183"
           d="M 41.109694,-0.41817229 C 40.505298,0.20454826 39.040867,0.77635346 37.592239,0.77635106 C 36.102089,0.77635106 34.114653,0.15682998 33.532659,-0.49267807 L 33.569913,-2.0031726 L 33.569913,-3.0835065 C 31.027414,-3.5787101 30.997014,-3.8285637 27.525623,-3.8285643 C 24.054233,-3.8285649 23.830777,-3.5759718 21.29017,-3.0462535 L 21.29017,-0.3436665 C 20.685773,0.27905404 19.221343,0.87609843 17.772714,0.87609724 C 16.282564,0.87609724 14.623294,0.43325774 13.915083,-0.41817229 L 14.138601,-5.7646408 C 18.129172,-7.3187814 22.030595,-8.3970767 27.437882,-8.5586077 C 32.38601,-8.450833 36.259126,-7.7053161 40.886177,-5.8763994 L 41.109694,-0.41817229 z "
           style="opacity:1;fill:none;fill-opacity:1;stroke:#000000;stroke-width:0.65573961;stroke-linejoin:miter;stroke-miterlimit:4;stroke-dasharray:none;stroke-dashoffset:0;stroke-opacity:0.44968555" />
      </g>
      <g
         transform="matrix(-0.4400595,-0.7622054,0.7622054,-0.4400595,-10.917299,27.830684)"
         id="g2451">
        <path
           style="opacity:1;fill:url(#linearGradient2483);fill-opacity:1;stroke:#0f5600;stroke-width:0.625;stroke-linejoin:miter;stroke-miterlimit:4;stroke-dasharray:none;stroke-dashoffset:0;stroke-opacity:1"
           d="M 16.100095,4.59375 C 10.946289,4.7477067 7.2256019,5.7999634 3.4220983,7.28125 L 3.2345983,10.227679 C 3.7846813,10.972881 5.0136533,11.508929 6.4220983,11.508929 C 7.7912983,11.508929 8.9758403,11.004648 9.5470983,10.290179 L 9.5470983,9.1875 C 11.968608,8.682612 12.862258,8.4375 16.125,8.4375 C 19.479577,8.4375001 20.38467,8.6842603 22.807982,9.15625 L 22.807982,10.165179 C 23.37924,10.879648 24.563781,11.383929 25.932982,11.383929 C 27.341427,11.383929 28.53915,10.847881 29.089232,10.102679 L 28.901732,7.15625 C 24.491586,5.413068 20.816266,4.6964725 16.100095,4.59375 z "
           id="path2453"
           sodipodi:nodetypes="cccsccsccsccc" />
        <path
           style="opacity:1;fill:url(#linearGradient2485);fill-opacity:1;stroke:#0f5600;stroke-width:0.57204324;stroke-linejoin:miter;stroke-miterlimit:4;stroke-dasharray:none;stroke-dashoffset:0;stroke-opacity:1"
           d="M 6.4075414,13.019293 C 7.7882612,13.019293 8.983936,12.610489 9.5600003,12.01696 L 9.5600003,10.430989 C 8.8231919,11.109285 7.789205,11.494948 6.4075414,11.494948 C 4.9854414,11.494948 3.9881276,11.13019 3.2127675,10.48174 L 3.2127675,11.966208 C 3.7674786,12.585269 4.9872465,13.019293 6.4075414,13.019293 z "
           id="path2455"
           sodipodi:nodetypes="cccsccc" />
        <path
           style="opacity:1;fill:url(#linearGradient2487);fill-opacity:1;stroke:#0f5600;stroke-width:0.57204324;stroke-linejoin:miter;stroke-miterlimit:4;stroke-dasharray:none;stroke-dashoffset:0;stroke-opacity:1"
           d="M 25.967532,12.944669 C 27.348252,12.944669 28.543927,12.535865 29.119991,11.942336 L 29.119991,10.356365 C 28.383183,11.034661 27.349196,11.420324 25.967532,11.420324 C 24.545432,11.420324 23.548118,11.055566 22.772758,10.407116 L 22.772758,11.891584 C 23.327469,12.510645 24.547237,12.944669 25.967532,12.944669 z "
           id="path2457"
           sodipodi:nodetypes="cccsccc" />
        <path
           style="opacity:1;fill:url(#linearGradient2489);fill-opacity:1;stroke:none;stroke-width:0.57204324;stroke-linejoin:miter;stroke-miterlimit:4;stroke-dasharray:none;stroke-dashoffset:0;stroke-opacity:1"
           d="M 6.6822725,11.157918 C 8.0629923,11.157918 8.7535908,10.73333 9.3296551,10.139801 L 9.0644746,7.3100024 C 8.3276662,7.9882984 8.1270706,8.5445024 6.745407,8.5445024 C 5.323307,8.5445024 4.4996132,8.1797444 3.7242531,7.5312944 L 3.4874986,10.104833 C 4.0422097,10.723894 5.2619776,11.157918 6.6822725,11.157918 z "
           id="path2459"
           sodipodi:nodetypes="cccsccc" />
        <path
           style="opacity:1;fill:url(#linearGradient2491);fill-opacity:1;stroke:none;stroke-width:0.57204324;stroke-linejoin:miter;stroke-miterlimit:4;stroke-dasharray:none;stroke-dashoffset:0;stroke-opacity:1"
           d="M 25.633599,11.055324 C 24.252879,11.055324 23.56228,10.630736 22.986216,10.037207 L 22.418005,7.3779497 C 23.154814,8.0562457 24.188801,8.4419087 25.570464,8.4419087 C 26.992564,8.4419087 27.816258,8.0771507 28.591618,7.4287007 L 28.828373,10.002239 C 28.273662,10.6213 27.053894,11.055324 25.633599,11.055324 z "
           id="path2461"
           sodipodi:nodetypes="cccsccc" />
      </g>
    </g>
    <g
       transform="matrix(0.09332679,0,0,0.09332679,11.892124,11.981828)"
       id="g4088">
      <path
         inkscape:connector-curvature="0"
         clip-path="none"
         sodipodi:nodetypes="ccccccccccccccccccccc"
         id="path3012"
         d="M 59.156262,4 C 50.862445,4 44.000004,10.862442 44.000004,19.156248 l 0,24.843745 -24.843745,0 c -8.293807,0 -15.1562478,6.862442 -15.1562478,15.156243 l 0,9.687499 c 0,8.293824 6.8624408,15.156248 15.1562478,15.156248 l 24.843745,0 0,24.843767 c 0,8.2938 6.862447,15.15625 15.156258,15.15625 l 9.687503,0 c 8.29379,0 15.15624,-6.86245 15.15624,-15.15625 l 0,-24.843767 24.843755,0 c 8.2938,0 15.15624,-6.862424 15.15624,-15.156248 l 0,-9.687499 c 0,-8.293801 -6.86244,-15.156243 -15.15624,-15.156243 l -24.843755,0 0,-24.843745 C 84.000005,10.862442 77.137555,4 68.843765,4 l -9.687503,0 z"
         style="fill:url(#linearGradient4284);fill-opacity:1;stroke:none" />
      <path
         inkscape:connector-curvature="0"
         clip-path="none"
         style="fill:url(#linearGradient4299);fill-opacity:1;fill-rule:evenodd;stroke:none;filter:url(#filter3387)"
         d="m 69.875971,12.057888 c -1.077088,0.06528 -2.528221,0.219164 -3,0.9375 L 68.465655,24.133449 79,23.37409 79,22.90534 C 80.740958,20.33518 74.219552,11.998548 69.875971,12.057888 z"
         id="path3091"
         transform="matrix(-1.2499999,0,0,1.2499999,144.00001,-10.102078)"
         sodipodi:nodetypes="cccccc" />
      <path
         inkscape:connector-curvature="0"
         clip-path="none"
         sodipodi:nodetypes="cccccc"
         transform="matrix(1.2499999,0,0,1.2499999,-15.110921,-10.102078)"
         id="path3095"
         d="m 69.875971,12.057888 c -1.077088,0.06528 -2.528221,0.219164 -3,0.9375 L 68.172686,21.789699 79,23.37409 79,22.90534 C 80.740958,20.33518 74.219552,11.998548 69.875971,12.057888 z"
         style="fill:url(#linearGradient4297);fill-opacity:1;fill-rule:evenodd;stroke:none;filter:url(#filter3387)" />
      <path
         inkscape:connector-curvature="0"
         sodipodi:nodetypes="cccccc"
         transform="matrix(-1.2499999,0,0,-1.2499999,144.00001,139.07195)"
         id="path3197"
         d="m 69.875971,12.057888 c -1.077088,0.06528 -2.528221,0.219164 -3,0.9375 L 69.051593,23.742824 79,23.37409 79,22.90534 C 80.740958,20.33518 74.219552,11.998548 69.875971,12.057888 z"
         style="opacity:0.68164804;fill:url(#linearGradient3003);fill-opacity:1;fill-rule:evenodd;stroke:none;filter:url(#filter3387)" />
      <path
         inkscape:connector-curvature="0"
         style="opacity:0.70786516;fill:url(#linearGradient3005);fill-opacity:1;fill-rule:evenodd;stroke:none;filter:url(#filter3387)"
         d="m 69.875971,12.057888 c -1.077088,0.06528 -2.528221,0.219164 -3,0.9375 L 67.782061,23.547512 79,23.37409 79,22.90534 C 80.740958,20.33518 74.219552,11.998548 69.875971,12.057888 z"
         id="path3199"
         transform="matrix(1.2499999,0,0,-1.2499999,-15.110911,139.07195)"
         sodipodi:nodetypes="cccccc" />
      <path
         inkscape:connector-curvature="0"
         clip-path="none"
         style="opacity:0.55056176;fill:url(#linearGradient4291);fill-opacity:1;fill-rule:evenodd;stroke:none;filter:url(#filter3387)"
         d="m 69.875971,12.057888 c -1.077088,0.06528 -2.528221,0.219164 -3,0.9375 L 68.465655,24.133449 79,23.37409 79,22.90534 C 80.740958,20.33518 74.219552,11.998548 69.875971,12.057888 z"
         id="path3221"
         transform="matrix(1.2499999,0,0,1.2499999,24.889073,28.928032)"
         sodipodi:nodetypes="cccccc" />
      <path
         inkscape:connector-curvature="0"
         clip-path="none"
         style="opacity:0.58052434;fill:url(#radialGradient4275);fill-opacity:1;stroke:none"
         d="M 59.156262,4 C 50.862445,4 44.000004,10.862442 44.000004,19.156248 l 0,24.843745 -24.843745,0 c -8.293807,0 -15.156252,3.134775 -15.156252,11.428576 1e-6,-2.365685 3e-6,8.477828 4e-6,13.415166 0,8.293824 6.862441,15.156248 15.156248,15.156248 l 24.843745,0 0,24.843767 c 0,8.2938 6.862447,15.15625 15.156258,15.15625 l 9.687503,0 c 8.293795,0 15.156245,-6.86245 15.156245,-15.15625 l 0,-24.843767 24.84375,0 c 8.2938,0 15.15624,-6.862424 15.15624,-15.156248 l 0,-9.687499 c 0,-8.293801 -6.86244,-15.156243 -15.15624,-15.156243 l -24.84375,0 0,-24.843745 C 84.00001,10.862442 77.13756,4 68.843765,4 l -9.687503,0 z"
         id="path3028"
         sodipodi:nodetypes="ccccccccccccccccccccc" />
      <path
         inkscape:connector-curvature="0"
         clip-path="none"
         sodipodi:nodetypes="cccccc"
         transform="matrix(-1.2499999,0,0,1.2499999,103.11092,28.928032)"
         id="path3217"
         d="m 69.875971,12.057888 c -1.077088,0.06528 -2.528221,0.219164 -3,0.9375 L 68.465655,24.133449 79,23.37409 79,22.90534 C 80.740958,20.33518 74.219552,11.998548 69.875971,12.057888 z"
         style="opacity:0.55056176;fill:url(#linearGradient4289);fill-opacity:1;fill-rule:evenodd;stroke:none;filter:url(#filter3387)" />
      <path
         inkscape:connector-curvature="0"
         clip-path="none"
         id="rect2407"
         d="m 59.156262,13.999998 c -2.834926,0 -5.156258,2.321328 -5.156258,5.15625 l 0,34.843745 -34.843745,0 c -2.834923,0 -5.156249,2.321319 -5.156249,5.156243 l 0,9.687499 c 0,2.834923 2.321326,5.156249 5.156249,5.156249 l 34.843745,0 0,34.843766 c 0,2.83493 2.321332,5.15625 5.156258,5.15625 l 9.687503,0 c 2.83492,0 5.156239,-2.32132 5.156239,-5.15625 l 0,-34.843766 34.843756,0 c 2.83492,0 5.15625,-2.321326 5.15625,-5.156249 l 0,-9.687499 c 0,-2.834924 -2.32133,-5.156243 -5.15625,-5.156243 l -34.843756,0 0,-34.843745 c 0,-2.834922 -2.321319,-5.15625 -5.156239,-5.15625 l -9.687503,0 z"
         style="fill:url(#radialGradient4271);fill-opacity:1;stroke:none" />
      <path
         inkscape:connector-curvature="0"
         clip-path="none"
         id="path3038"
         d="m 59.156262,13.999998 c -2.834926,0 -5.156258,2.321328 -5.156258,5.15625 l 0,34.843745 -34.843745,0 c -2.834923,0 -5.156249,2.321319 -5.156249,5.156243 l 0,9.687499 c 0,0.2745 0.114369,0.518049 0.156249,0.78125 8.144214,1.173923 16.728351,1.875 25.624996,1.875 28.75393,0 54.5146,-6.574575 71.484365,-16.874997 -0.72309,-0.387875 -1.54836,-0.624995 -2.42186,-0.624995 l -34.843756,0 0,-34.843745 c 0,-2.834922 -2.321319,-5.15625 -5.156239,-5.15625 l -9.687503,0 z"
         style="fill:url(#linearGradient4268);fill-opacity:1;stroke:none" />
      <path
         inkscape:connector-curvature="0"
         clip-path="none"
         sodipodi:nodetypes="cccccccccsssssssccccccccccccscssscsscccc"
         id="path3062"
         d="m 59.156262,13.999998 c -2.834926,0 -5.156258,2.321328 -5.156258,5.15625 l 0,2.5 c 0,-2.834923 3.321333,-6.656249 6.156257,-6.656249 l 9.687505,0 c 0.708719,0 1.414969,0.128705 2.031239,0.390625 0.275649,0.623795 1.21875,2.811445 1.21875,3.531249 l 0.906249,35.07812 0.07813,-34.843745 c 0,-1.43907 -0.602651,-2.733952 -1.562501,-3.671874 -0.219429,-0.219426 -0.447579,-0.447555 -0.703129,-0.625001 -0.01922,-0.01302 -0.05872,0.01277 -0.07812,0 -0.2552,-0.172827 -0.49668,-0.343174 -0.78125,-0.46875 -0.02165,-0.0092 -0.05633,0.0089 -0.07813,0 -0.2865,-0.121756 -0.62777,-0.244077 -0.937489,-0.312499 -0.0256,-0.0053 -0.0524,0.0049 -0.07813,0 -0.309169,-0.06373 -0.61137,-0.07302 -0.9375,-0.07813 l -0.07812,0 -1.17188,0 -8.515623,0 z M 19.156259,53.999993 c -2.834923,0 -5.156249,2.321319 -5.156249,5.156243 l 0,2.5 c 0,-2.834925 2.321326,-6.656248 5.156249,-6.656248 l 34.843745,-0.999995 -34.843745,0 z m 54.843745,0 34.399416,1.279294 c -16.897985,9.067749 -44.55616,15.986348 -71.274415,15.986322 -4.448322,0 -8.848855,-0.224875 -13.124996,-0.546874 5.150982,0.4673 10.448531,0.78125 15.859372,0.78125 26.925154,0 51.209374,-5.809275 68.125009,-14.999998 0.0199,-0.0108 0.0582,0.01082 0.0781,0 1.1064,-0.603076 2.16156,-1.242775 3.20312,-1.874999 -0.34076,-0.182801 -0.71323,-0.36195 -1.09374,-0.46875 -0.025,-0.0066 -0.053,0.0063 -0.0781,0 -0.38094,-0.101125 -0.76344,-0.149451 -1.17187,-0.156245 l -0.0781,0 -1.17188,0 -33.671876,0 z"
         style="fill:url(#linearGradient4265);fill-opacity:1;stroke:none" />
      <path
         inkscape:connector-curvature="0"
         clip-path="none"
         style="fill:url(#linearGradient4262);fill-opacity:1;stroke:none"
         d="m 59.156262,13.999998 c -2.834926,0 -5.156258,2.321328 -5.156258,5.15625 l 0,2.5 c 0,-2.834923 3.321333,-6.656249 6.156257,-6.656249 l 9.687505,0 c 0.708719,0 1.414969,0.128705 2.031239,0.390625 0.275649,0.623795 1.21875,2.811445 1.21875,3.531249 l 0.906249,35.07812 0.07813,-34.843745 c 0,-1.43907 -0.602651,-2.733952 -1.562501,-3.671874 -0.219429,-0.219426 -0.447579,-0.447555 -0.703129,-0.625001 -0.01922,-0.01302 -0.05872,0.01277 -0.07812,0 -0.2552,-0.172827 -0.49668,-0.343174 -0.78125,-0.46875 -0.02165,-0.0092 -0.05633,0.0089 -0.07813,0 -0.2865,-0.121756 -0.62777,-0.244077 -0.937489,-0.312499 -0.0256,-0.0053 -0.0524,0.0049 -0.07813,0 -0.309169,-0.06373 -0.61137,-0.07302 -0.9375,-0.07813 l -0.07812,0 -1.17188,0 -8.515623,0 z M 19.156259,53.999993 c -2.834923,0 -5.156249,2.321319 -5.156249,5.156243 l 0,2.5 c 0,-2.834925 2.321326,-6.656248 5.156249,-6.656248 l 34.843745,-0.999995 -34.843745,0 z m 54.843745,0 34.643556,1.279294 c -16.897975,9.067749 -44.8003,15.986348 -71.518555,15.986322 -4.448322,0 -8.848855,-0.224875 -13.124996,-0.546874 5.150982,0.4673 10.448531,0.78125 15.859372,0.78125 26.925154,0 51.209374,-5.809275 68.125009,-14.999998 0.0199,-0.0108 0.0582,0.01082 0.0781,0 1.1064,-0.603076 2.16156,-1.242775 3.20312,-1.874999 -0.34076,-0.182801 -0.71323,-0.36195 -1.09374,-0.46875 -0.025,-0.0066 -0.053,0.0063 -0.0781,0 -0.38094,-0.101125 -0.76344,-0.149451 -1.17187,-0.156245 l -0.0781,0 -1.17188,0 -33.671876,0 z"
         id="path3087"
         sodipodi:nodetypes="cccccccccsssssssccccccccccccscssscsscccc" />
      <path
         inkscape:connector-curvature="0"
         transform="matrix(2.4999996,0,0,2.4999996,-95.999962,-95.99996)"
         clip-path="none"
         style="fill:none;stroke:url(#linearGradient4230);stroke-width:0.5;stroke-linecap:round;stroke-linejoin:round;stroke-miterlimit:4;stroke-opacity:1;stroke-dasharray:none;stroke-dashoffset:1.08779998;filter:url(#filter3191)"
         d="m 62.0625,43.999992 c -1.13397,0 -2.062504,0.928531 -2.062504,2.0625 l 0,13.9375 -13.9375,0 c -1.133969,0 -2.0625,0.928528 -2.0625,2.062498 l 0,3.875 c 0,1.13397 0.928531,2.0625 2.0625,2.0625 l 13.9375,0 0,13.93751 c 0,1.13397 0.928534,2.0625 2.062504,2.0625 l 3.875,0 C 67.07147,84 68,83.07147 68,81.9375 l 0,-13.93751 13.9375,0 c 1.13397,0 2.0625,-0.92853 2.0625,-2.0625 l 0,-3.875 c 0,-1.13397 -0.92853,-2.062498 -2.0625,-2.062498 l -13.9375,0 0,-13.9375 c 0,-1.133969 -0.92853,-2.0625 -2.0625,-2.0625 l -3.875,0 z"
         id="path3099" />
    </g>
  </g>
</svg>
