<?xml version="1.0" encoding="UTF-8" standalone="no"?>
<!-- Created with Inkscape (http://www.inkscape.org/) -->

<svg
   xmlns:dc="http://purl.org/dc/elements/1.1/"
   xmlns:cc="http://creativecommons.org/ns#"
   xmlns:rdf="http://www.w3.org/1999/02/22-rdf-syntax-ns#"
   xmlns:svg="http://www.w3.org/2000/svg"
   xmlns="http://www.w3.org/2000/svg"
   xmlns:xlink="http://www.w3.org/1999/xlink"
   xmlns:sodipodi="http://sodipodi.sourceforge.net/DTD/sodipodi-0.dtd"
   xmlns:inkscape="http://www.inkscape.org/namespaces/inkscape"
   width="24"
   height="24"
   id="svg2"
   sodipodi:version="0.32"
   inkscape:version="0.48.4 r9939"
   version="1.0"
   sodipodi:docname="lock_certified.svg"
   inkscape:output_extension="org.inkscape.output.svg.inkscape"
   sodipodi:modified="true">
  <title
     id="title3012">lock_certified.svg</title>
  <defs
     id="defs4">
    <linearGradient
       inkscape:collect="always"
       id="linearGradient2433">
      <stop
         style="stop-color:#008000;stop-opacity:1;"
         offset="0"
         id="stop2435" />
      <stop
         style="stop-color:#008000;stop-opacity:0;"
         offset="1"
         id="stop2437" />
    </linearGradient>
    <inkscape:perspective
       sodipodi:type="inkscape:persp3d"
       inkscape:vp_x="0 : 12 : 1"
       inkscape:vp_y="0 : 1000 : 0"
       inkscape:vp_z="24 : 12 : 1"
       inkscape:persp3d-origin="12 : 8 : 1"
       id="perspective32" />
    <linearGradient
       id="linearGradient4269">
      <stop
         style="stop-color:#26b000;stop-opacity:1;"
         offset="0"
         id="stop4271" />
      <stop
         style="stop-color:#26b000;stop-opacity:0;"
         offset="1"
         id="stop4273" />
    </linearGradient>
    <linearGradient
       id="linearGradient4183">
      <stop
         id="stop4185"
         offset="0"
         style="stop-color:#26b000;stop-opacity:1;" />
      <stop
         id="stop4187"
         offset="1"
         style="stop-color:#145f00;stop-opacity:1;" />
    </linearGradient>
    <linearGradient
       id="linearGradient4167">
      <stop
         style="stop-color:#80000e;stop-opacity:1;"
         offset="0"
         id="stop4169" />
      <stop
         style="stop-color:#b00014;stop-opacity:0;"
         offset="1"
         id="stop4171" />
    </linearGradient>
    <linearGradient
       inkscape:collect="always"
       xlink:href="#linearGradient2433"
       id="linearGradient2439"
       x1="2.965755"
       y1="-0.80084854"
       x2="32.578228"
       y2="16.739393"
       gradientUnits="userSpaceOnUse" />
  </defs>
  <sodipodi:namedview
     id="base"
     pagecolor="#ffffff"
     bordercolor="#666666"
     borderopacity="1.0"
     inkscape:pageopacity="0.0"
     inkscape:pageshadow="2"
     inkscape:zoom="16"
     inkscape:cx="-9.322691"
     inkscape:cy="12.889047"
     inkscape:document-units="px"
     inkscape:current-layer="layer1"
     width="32px"
     height="32px"
     showguides="true"
     inkscape:guide-bbox="true"
     inkscape:window-width="1313"
     inkscape:window-height="744"
     inkscape:window-x="337"
     inkscape:window-y="1224"
     showgrid="false"
     inkscape:window-maximized="1" />
  <metadata
     id="metadata7">
    <rdf:RDF>
      <cc:Work
         rdf:about="">
        <dc:format>image/svg+xml</dc:format>
        <dc:type
           rdf:resource="http://purl.org/dc/dcmitype/StillImage" />
        <dc:title>lock_certified.svg</dc:title>
        <dc:date>2014/06/24</dc:date>
        <dc:creator>
          <cc:Agent>
            <dc:title>Gabrielle Maheux-Leclerc &lt;gabrielle.maheux@savoirfairelinux.com&gt;</dc:title>
          </cc:Agent>
        </dc:creator>
        <dc:rights>
          <cc:Agent>
            <dc:title>Savoir-faire Linux Inc.</dc:title>
          </cc:Agent>
        </dc:rights>
        <dc:publisher>
          <cc:Agent>
            <dc:title>Savoir-faire Linux Inc.</dc:title>
          </cc:Agent>
        </dc:publisher>
        <dc:source>http://sflphone.org/download/source-code</dc:source>
        <dc:subject>
          <rdf:Bag>
            <rdf:li>gnome</rdf:li>
            <rdf:li>voip</rdf:li>
            <rdf:li>sip</rdf:li>
          </rdf:Bag>
        </dc:subject>
        <dc:coverage>SFLphone project</dc:coverage>
        <cc:license
           rdf:resource="http://creativecommons.org/licenses/by-sa/3.0/" />
      </cc:Work>
      <cc:License
         rdf:about="http://creativecommons.org/licenses/by-sa/3.0/">
        <cc:permits
           rdf:resource="http://creativecommons.org/ns#Reproduction" />
        <cc:permits
           rdf:resource="http://creativecommons.org/ns#Distribution" />
        <cc:requires
           rdf:resource="http://creativecommons.org/ns#Notice" />
        <cc:requires
           rdf:resource="http://creativecommons.org/ns#Attribution" />
        <cc:permits
           rdf:resource="http://creativecommons.org/ns#DerivativeWorks" />
        <cc:requires
           rdf:resource="http://creativecommons.org/ns#ShareAlike" />
      </cc:License>
    </rdf:RDF>
  </metadata>
  <g
     inkscape:label="Calque 1"
     inkscape:groupmode="layer"
     id="layer1">
    <rect
       style="color:#bebebe;fill:none;stroke:none;stroke-width:1;marker:none;visibility:visible;display:inline;overflow:visible"
       id="rect44095-0-2"
       width="27.25"
       height="27.25"
       x="-25.687498"
       y="-27.12499"
       inkscape:label="a"
       transform="scale(-1,-1)" />
    <rect
       style="color:#bebebe;fill:none;stroke:none;stroke-width:1;marker:none;visibility:visible;display:inline;overflow:visible"
       id="rect44095-0"
       width="27.357903"
       height="27.357903"
       x="-1.6802465"
       y="-4.3527112"
       inkscape:label="a" />
    <rect
       inkscape:label="a"
       y="-18.073694"
       x="-1.6802227"
       height="27.402094"
       width="27.402094"
       id="rect44122-0"
       style="color:#bebebe;fill:none;stroke:none;stroke-width:1;marker:none;visibility:visible;display:inline;overflow:visible" />
    <rect
       inkscape:label="a"
       y="-24.857332"
       x="-2.7434559"
       height="26.103628"
       width="26.103628"
       id="rect43299-7-0"
       style="color:#bebebe;fill:none;stroke:none;stroke-width:1;marker:none;visibility:visible;display:inline;overflow:visible"
       transform="matrix(-0.25881905,0.96592583,-0.96592583,-0.25881905,0,0)" />
    <rect
       y="2.2499964"
       x="-1.8749943"
       height="27.875"
       width="27.875"
       id="rect3246-4-3-8-3-7"
       style="color:#bebebe;fill:none;stroke:none;stroke-width:1;marker:none;visibility:visible;display:inline;overflow:visible" />
    <g
       inkscape:label="accessories-calculator"
       id="g40867-7-0-5"
       transform="matrix(0,-1.4921875,1.4921875,0,-593.45313,95.6875)">
      <rect
         style="opacity:0.51464431;color:#bebebe;fill:none;stroke:none;stroke-width:3;marker:none;visibility:visible;display:inline;overflow:visible;enable-background:accumulate"
         id="rect40869-8-3-9"
         width="16"
         height="16"
         x="48"
         y="398" />
    </g>
    <rect
       style="color:#bebebe;fill:none;stroke:none;stroke-width:1;marker:none;visibility:visible;display:inline;overflow:visible"
       id="rect20566-4-6-4-5-4-1-8-4"
       width="9.0690622"
       height="9.0690622"
       x="4.1474762"
       y="7.854094"
       inkscape:label="a" />
    <rect
       inkscape:label="audio-volume-high"
       y="-0.1875"
       x="0.062504999"
       height="24"
       width="24"
       id="rect16155-0"
       style="color:#bebebe;fill:none;stroke:none;stroke-width:1;marker:none;visibility:visible;display:inline;overflow:visible" />
    <rect
       style="color:#bebebe;fill:none;stroke:none;stroke-width:1;marker:none;visibility:visible;display:inline;overflow:visible;enable-background:new"
       id="rect10837-3-3"
       y="-0.12497"
       x="-0.87500161"
       ry="0.15129246"
       rx="0.14408804"
       height="16"
       width="16" />
    <rect
       style="color:#bebebe;fill:none;stroke:none;stroke-width:2;marker:none;visibility:visible;display:inline;overflow:visible"
       id="rect35598-3"
       width="16"
       height="16"
       x="3.3125002"
       y="1.125" />
    <path
       style="color:#bebebe;fill:#545454;fill-opacity:1;fill-rule:nonzero;stroke:none;stroke-width:2;marker:none;visibility:visible;display:inline;overflow:visible"
       d="m 10.109807,0.03134266 c -2.5826927,0 -4.7109371,2.12824444 -4.7109371,4.71093724 l 0,4.7109372 -1.5703124,0 c -0.8699531,0 -1.5703124,0.7003589 -1.5703124,1.5703119 l 0,0.834229 0,8.587646 7.8515619,0 0.63794,0 c -0.217442,-0.672881 -0.392579,-1.364845 -0.392579,-2.110107 0,-3.832783 3.135475,-6.968262 6.968262,-6.968262 1.398065,0 2.689191,0.417422 3.778564,1.128662 l 0,-0.637939 0,-0.834229 c 0,-0.869953 -0.700359,-1.5703119 -1.570312,-1.5703119 l -1.570313,0 0,-4.7109372 c 0,-2.5826928 -2.128244,-4.71093724 -4.710937,-4.71093724 l -3.140625,0 z m 0,3.14062484 3.140625,0 c 0.897119,0 1.570312,0.6731929 1.570312,1.5703124 l 0,4.7109372 -6.2812493,0 0,-4.7109372 c 0,-0.8971195 0.6731929,-1.5703124 1.5703123,-1.5703124 z"
       id="rect4063-0-6-3-1"
       inkscape:connector-curvature="0" />
    <rect
       style="fill:none;stroke:none;display:inline"
       id="rect13555-9-9-6"
       width="25.125002"
       height="25.124998"
       x="-0.56250727"
       y="-0.68749839" />
    <g
       style="fill:#bebebe;fill-opacity:1;stroke:none;display:inline"
       transform="matrix(1.5820312,0,0,1.5820312,-32.828097,-436.89061)"
       inkscape:label="lock"
       id="g4053-3-8-5-5">
      <rect
         style="color:#bebebe;fill:none;stroke:none;stroke-width:1;marker:none;visibility:visible;display:inline;overflow:visible"
         id="rect4055-9-7-2-4"
         width="16"
         height="16"
         x="20"
         y="276"
         inkscape:label="a" />
    </g>
    <path
       style="fill:#55a1e9;fill-opacity:1;stroke:none"
       d="m 17.663834,12.351594 c -0.188901,-0.0079 -0.950579,0.709651 -1.136933,0.741477 -0.186355,0.0318 -1.109552,-0.415892 -1.285229,-0.346023 -0.175678,0.06991 -0.584183,1.032059 -0.741479,1.136934 -0.157233,0.104874 -1.202596,0.111835 -1.334662,0.247159 -0.132082,0.135246 -0.09666,1.174882 -0.197727,1.334661 -0.101073,0.15978 -1.07132,0.613604 -1.136933,0.79091 -0.06565,0.177307 0.37334,1.098165 0.346022,1.285231 -0.02737,0.187065 -0.704211,0.997701 -0.692046,1.186365 0.01265,0.188664 0.789218,0.856065 0.840343,1.038069 0.05109,0.182005 -0.285583,1.167257 -0.197728,1.334663 0.08779,0.167404 1.115057,0.497133 1.235797,0.642614 0.120694,0.145528 0.247112,1.168033 0.395455,1.28523 0.148375,0.117213 1.165185,-0.03433 1.334662,0.04935 0.169476,0.08383 0.706584,0.991343 0.889774,1.03807 0.183191,0.04666 1.046896,-0.501943 1.235797,-0.494319 0.188901,0.0079 1.049444,0.625009 1.235798,0.593183 0.186354,-0.03179 0.763529,-0.869338 0.939206,-0.939205 0.175677,-0.06992 1.226797,0.104874 1.384093,0 0.157233,-0.104877 0.362252,-1.100521 0.494319,-1.235799 0.132082,-0.135245 1.134751,-0.383971 1.235798,-0.543751 0.101083,-0.159779 -0.164478,-1.157355 -0.09886,-1.33466 0.06565,-0.177308 0.911888,-0.801573 0.939206,-0.988638 0.02737,-0.187068 -0.581018,-0.997703 -0.593183,-1.186366 -0.01265,-0.188664 0.496012,-1.103225 0.444888,-1.28523 -0.05109,-0.182004 -0.950216,-0.672938 -1.038071,-0.840342 -0.08779,-0.167404 0.02183,-1.189181 -0.09886,-1.334661 -0.120694,-0.145528 -1.186318,-0.278259 -1.334661,-0.395456 -0.148376,-0.117212 -0.473139,-1.102576 -0.642615,-1.186366 -0.169477,-0.08383 -1.151471,0.244455 -1.334662,0.197728 -0.183191,-0.04666 -0.8986,-0.783285 -1.087502,-0.79091 z m -0.09886,2.323298 0.889774,2.3233 2.471595,0.197727 -1.927844,1.58182 0.593183,2.372732 -2.07614,-1.334661 -2.076139,1.334661 0.593182,-2.422163 -1.878413,-1.58182 2.471596,-0.148217 0.939206,-2.323299 z"
       id="path12156-3"
       inkscape:connector-curvature="0" />
  </g>
</svg>
