<?xml version="1.0" encoding="UTF-8" standalone="no"?>
<!-- Created with Inkscape (http://www.inkscape.org/) -->
<svg
   xmlns:dc="http://purl.org/dc/elements/1.1/"
   xmlns:cc="http://creativecommons.org/ns#"
   xmlns:rdf="http://www.w3.org/1999/02/22-rdf-syntax-ns#"
   xmlns:svg="http://www.w3.org/2000/svg"
   xmlns="http://www.w3.org/2000/svg"
   xmlns:xlink="http://www.w3.org/1999/xlink"
   xmlns:sodipodi="http://sodipodi.sourceforge.net/DTD/sodipodi-0.dtd"
   xmlns:inkscape="http://www.inkscape.org/namespaces/inkscape"
   width="24"
   height="24"
   id="svg2"
   sodipodi:version="0.32"
   inkscape:version="0.46"
   version="1.0"
   sodipodi:docbase="/home/plbeaudoin/SFLPhone/sflphone/sflphone-gtk/pixmaps"
   sodipodi:docname="mailbox.svg"
   inkscape:output_extension="org.inkscape.output.svg.inkscape"
   sodipodi:modified="true">
  <defs
     id="defs4">
    <linearGradient
       inkscape:collect="always"
       id="linearGradient2542">
      <stop
         style="stop-color:#008000;stop-opacity:1;"
         offset="0"
         id="stop2544" />
      <stop
         style="stop-color:#008000;stop-opacity:0;"
         offset="1"
         id="stop2546" />
    </linearGradient>
    <radialGradient
       inkscape:collect="always"
       xlink:href="#linearGradient2378"
       id="radialGradient6283"
       gradientUnits="userSpaceOnUse"
       cx="38.658855"
       cy="9.3411446"
       fx="38.658855"
       fy="9.3411446"
       r="8.341651" />
    <linearGradient
       inkscape:collect="always"
       id="linearGradient6984">
      <stop
         style="stop-color:#babdb6;stop-opacity:1;"
         offset="0"
         id="stop6986" />
      <stop
         style="stop-color:#babdb6;stop-opacity:0;"
         offset="1"
         id="stop6988" />
    </linearGradient>
    <linearGradient
       inkscape:collect="always"
       xlink:href="#linearGradient6984"
       id="linearGradient6335"
       gradientUnits="userSpaceOnUse"
       gradientTransform="matrix(0.6363867,0,0,0.4838745,-2.7900741,-17.395207)"
       x1="14.125"
       y1="79.81311"
       x2="14.125"
       y2="76.624176" />
    <radialGradient
       inkscape:collect="always"
       xlink:href="#linearGradient6945"
       id="radialGradient6338"
       gradientUnits="userSpaceOnUse"
       gradientTransform="matrix(1.659903,0,0,1.0705967,-19.298824,-54.261732)"
       cx="13.107393"
       cy="61.48016"
       fx="13.107393"
       fy="61.48016"
       r="18.5" />
    <linearGradient
       inkscape:collect="always"
       id="linearGradient6932">
      <stop
         style="stop-color:#000000;stop-opacity:1;"
         offset="0"
         id="stop6934" />
      <stop
         style="stop-color:#000000;stop-opacity:0;"
         offset="1"
         id="stop10860" />
    </linearGradient>
    <linearGradient
       inkscape:collect="always"
       xlink:href="#linearGradient6932"
       id="linearGradient6364"
       gradientUnits="userSpaceOnUse"
       x1="32.625"
       y1="68.4375"
       x2="32.625"
       y2="58.838387" />
    <linearGradient
       inkscape:collect="always"
       id="linearGradient7088">
      <stop
         style="stop-color:#ffffff;stop-opacity:1;"
         offset="0"
         id="stop7090" />
      <stop
         style="stop-color:#ffffff;stop-opacity:0;"
         offset="1"
         id="stop7092" />
    </linearGradient>
    <linearGradient
       inkscape:collect="always"
       xlink:href="#linearGradient7088"
       id="linearGradient7351"
       gradientUnits="userSpaceOnUse"
       gradientTransform="matrix(0.6363302,0,0,0.5083228,-3.4259158,0.2770224)"
       x1="9.9965248"
       y1="21.246521"
       x2="9.9965248"
       y2="25.371557" />
    <linearGradient
       inkscape:collect="always"
       id="linearGradient7059">
      <stop
         style="stop-color:#babdb6;stop-opacity:1"
         offset="0"
         id="stop7061" />
      <stop
         style="stop-color:#babdb6;stop-opacity:0"
         offset="1"
         id="stop7063" />
    </linearGradient>
    <linearGradient
       inkscape:collect="always"
       xlink:href="#linearGradient7059"
       id="linearGradient7356"
       gradientUnits="userSpaceOnUse"
       x1="9.0107775"
       y1="19.584124"
       x2="9.0107775"
       y2="24.779999"
       gradientTransform="matrix(0.6498748,0,0,0.490503,-3.75776,0.2750172)" />
    <linearGradient
       inkscape:collect="always"
       id="linearGradient7067">
      <stop
         style="stop-color:#ffffff;stop-opacity:1"
         offset="0"
         id="stop7069" />
      <stop
         style="stop-color:#eeeeec;stop-opacity:1"
         offset="1"
         id="stop7071" />
    </linearGradient>
    <radialGradient
       inkscape:collect="always"
       xlink:href="#linearGradient7067"
       id="radialGradient7354"
       gradientUnits="userSpaceOnUse"
       gradientTransform="matrix(0.9695713,0,0,0.6491763,-11.230666,-4.0429636)"
       cx="26.762928"
       cy="25.349953"
       fx="26.762928"
       fy="25.349953"
       r="15.5" />
    <linearGradient
       inkscape:collect="always"
       id="linearGradient7002">
      <stop
         style="stop-color:#000000;stop-opacity:1;"
         offset="0"
         id="stop7004" />
      <stop
         style="stop-color:#000000;stop-opacity:0;"
         offset="1"
         id="stop7006" />
    </linearGradient>
    <linearGradient
       inkscape:collect="always"
       xlink:href="#linearGradient7002"
       id="linearGradient6357"
       gradientUnits="userSpaceOnUse"
       gradientTransform="matrix(0.6363867,0,0,0.5514327,-3.4264602,-0.1292465)"
       x1="15.75"
       y1="24.561808"
       x2="15.75"
       y2="35.853024" />
    <radialGradient
       inkscape:collect="always"
       xlink:href="#linearGradient6945"
       id="radialGradient6362"
       gradientUnits="userSpaceOnUse"
       gradientTransform="matrix(1.659903,0,0,-1.0705967,-19.298824,83.367071)"
       cx="13.107393"
       cy="61.48016"
       fx="13.107393"
       fy="61.48016"
       r="18.5" />
    <radialGradient
       inkscape:collect="always"
       xlink:href="#linearGradient5060"
       id="radialGradient6226"
       gradientUnits="userSpaceOnUse"
       gradientTransform="matrix(-2.774389,0,0,1.969706,112.7623,-872.8854)"
       cx="605.71429"
       cy="486.64789"
       fx="605.71429"
       fy="486.64789"
       r="117.14286" />
    <linearGradient
       id="linearGradient5060"
       inkscape:collect="always">
      <stop
         id="stop5062"
         offset="0"
         style="stop-color:black;stop-opacity:1;" />
      <stop
         id="stop5064"
         offset="1"
         style="stop-color:black;stop-opacity:0;" />
    </linearGradient>
    <radialGradient
       inkscape:collect="always"
       xlink:href="#linearGradient5060"
       id="radialGradient6224"
       gradientUnits="userSpaceOnUse"
       gradientTransform="matrix(2.774389,0,0,1.969706,-1891.633,-872.8854)"
       cx="605.71429"
       cy="486.64789"
       fx="605.71429"
       fy="486.64789"
       r="117.14286" />
    <linearGradient
       id="linearGradient5048">
      <stop
         id="stop5050"
         offset="0"
         style="stop-color:black;stop-opacity:0;" />
      <stop
         style="stop-color:black;stop-opacity:1;"
         offset="0.5"
         id="stop5056" />
      <stop
         id="stop5052"
         offset="1"
         style="stop-color:black;stop-opacity:0;" />
    </linearGradient>
    <linearGradient
       inkscape:collect="always"
       xlink:href="#linearGradient5048"
       id="linearGradient6222"
       gradientUnits="userSpaceOnUse"
       gradientTransform="matrix(2.774389,0,0,1.969706,-1892.179,-872.8854)"
       x1="302.85715"
       y1="366.64789"
       x2="302.85715"
       y2="609.50507" />
    <linearGradient
       inkscape:collect="always"
       id="linearGradient6968">
      <stop
         style="stop-color:#ffffff;stop-opacity:1;"
         offset="0"
         id="stop6970" />
      <stop
         style="stop-color:#ffffff;stop-opacity:0;"
         offset="1"
         id="stop6972" />
    </linearGradient>
    <linearGradient
       inkscape:collect="always"
       xlink:href="#linearGradient6968"
       id="linearGradient6974"
       x1="14.75"
       y1="73"
       x2="15.375"
       y2="82"
       gradientUnits="userSpaceOnUse" />
    <linearGradient
       id="linearGradient2378">
      <stop
         id="stop2380"
         offset="0"
         style="stop-color:#ffffff;stop-opacity:1;" />
      <stop
         style="stop-color:#fefede;stop-opacity:0.91836733;"
         offset="0.25"
         id="stop4146" />
      <stop
         style="stop-color:#f5f328;stop-opacity:1;"
         offset="0.5"
         id="stop2386" />
      <stop
         id="stop2382"
         offset="1"
         style="stop-color:#f5f32d;stop-opacity:0.12234043;" />
    </linearGradient>
    <linearGradient
       id="linearGradient6945"
       inkscape:collect="always">
      <stop
         id="stop6947"
         offset="0"
         style="stop-color:#ffffff;stop-opacity:1" />
      <stop
         id="stop6949"
         offset="1"
         style="stop-color:#d3d7cf;stop-opacity:1" />
    </linearGradient>
    <inkscape:perspective
       sodipodi:type="inkscape:persp3d"
       inkscape:vp_x="0 : 12 : 1"
       inkscape:vp_y="0 : 1000 : 0"
       inkscape:vp_z="24 : 12 : 1"
       inkscape:persp3d-origin="12 : 8 : 1"
       id="perspective6815" />
    <linearGradient
       id="linearGradient4045">
      <stop
         style="stop-color:#ffffff;stop-opacity:0"
         offset="0"
         id="stop4047" />
      <stop
         style="stop-color:#fefee7;stop-opacity:0.89308178"
         offset="1"
         id="stop4049" />
    </linearGradient>
    <linearGradient
       id="linearGradient4269">
      <stop
         style="stop-color:#1db000;stop-opacity:1;"
         offset="0"
         id="stop4271" />
      <stop
         style="stop-color:#1db000;stop-opacity:0;"
         offset="1"
         id="stop4273" />
    </linearGradient>
    <linearGradient
       id="linearGradient4183">
      <stop
         id="stop4185"
         offset="0"
         style="stop-color:#1db000;stop-opacity:1;" />
      <stop
         id="stop4187"
         offset="1"
         style="stop-color:#0f5f00;stop-opacity:1;" />
    </linearGradient>
    <linearGradient
       id="linearGradient4167">
      <stop
         style="stop-color:#80000e;stop-opacity:1;"
         offset="0"
         id="stop4169" />
      <stop
         style="stop-color:#b00014;stop-opacity:0;"
         offset="1"
         id="stop4171" />
    </linearGradient>
    <linearGradient
       inkscape:collect="always"
       xlink:href="#linearGradient4183"
       id="linearGradient2224"
       x1="16.826796"
       y1="6.7288713"
       x2="27.5625"
       y2="22.512505"
       gradientUnits="userSpaceOnUse"
       gradientTransform="matrix(0.875025,0,0,0.875025,0.666703,0.177907)" />
    <linearGradient
       y2="13.920053"
       x2="6.8378897"
       y1="12.625902"
       x1="2.0651877"
       gradientTransform="matrix(-1,0,0,1,32.04188,-2.86473)"
       gradientUnits="userSpaceOnUse"
       id="linearGradient1388"
       xlink:href="#linearGradient4269"
       inkscape:collect="always" />
    <linearGradient
       gradientTransform="translate(0.426158,-2.762136)"
       gradientUnits="userSpaceOnUse"
       y2="13.920053"
       x2="6.8378897"
       y1="12.625902"
       x1="2.0651877"
       id="linearGradient1386"
       xlink:href="#linearGradient4269"
       inkscape:collect="always" />
    <linearGradient
       gradientUnits="userSpaceOnUse"
       y2="10.576721"
       x2="14.013638"
       y1="2.7028866"
       x1="15.647213"
       id="linearGradient1384"
       xlink:href="#linearGradient4183"
       inkscape:collect="always" />
    <linearGradient
       gradientTransform="translate(-0.947018,-0.885198)"
       gradientUnits="userSpaceOnUse"
       y2="12.535715"
       x2="31.31678"
       y1="12.535715"
       x1="24.397505"
       id="linearGradient1382"
       xlink:href="#linearGradient4183"
       inkscape:collect="always" />
    <linearGradient
       gradientTransform="translate(1.262691,-1.100752)"
       gradientUnits="userSpaceOnUse"
       y2="12.825893"
       x2="7.9239235"
       y1="12.825893"
       x1="1.0046476"
       id="linearGradient1380"
       xlink:href="#linearGradient4183"
       inkscape:collect="always" />
    <linearGradient
       id="linearGradient1374">
      <stop
         id="stop1376"
         offset="0"
         style="stop-color:#80000e;stop-opacity:1;" />
      <stop
         id="stop1378"
         offset="1"
         style="stop-color:#b00014;stop-opacity:0;" />
    </linearGradient>
    <linearGradient
       id="linearGradient1368">
      <stop
         style="stop-color:#26b000;stop-opacity:1;"
         offset="0"
         id="stop1370" />
      <stop
         style="stop-color:#145f00;stop-opacity:1;"
         offset="1"
         id="stop1372" />
    </linearGradient>
    <linearGradient
       id="linearGradient1362">
      <stop
         id="stop1364"
         offset="0"
         style="stop-color:#26b000;stop-opacity:1;" />
      <stop
         id="stop1366"
         offset="1"
         style="stop-color:#26b000;stop-opacity:0;" />
    </linearGradient>
    <linearGradient
       inkscape:collect="always"
       xlink:href="#linearGradient4183"
       id="linearGradient1406"
       gradientUnits="userSpaceOnUse"
       x1="15.647213"
       y1="2.7028866"
       x2="14.013638"
       y2="10.576721" />
    <linearGradient
       inkscape:collect="always"
       xlink:href="#linearGradient4183"
       id="linearGradient1408"
       gradientUnits="userSpaceOnUse"
       gradientTransform="translate(1.262691,-1.100752)"
       x1="10.57493"
       y1="12.115559"
       x2="-0.68574232"
       y2="12.115559" />
    <linearGradient
       inkscape:collect="always"
       xlink:href="#linearGradient4183"
       id="linearGradient1410"
       gradientUnits="userSpaceOnUse"
       gradientTransform="translate(-0.947018,-0.885198)"
       x1="31.692968"
       y1="11.264216"
       x2="23.888865"
       y2="13.35532" />
    <linearGradient
       inkscape:collect="always"
       xlink:href="#linearGradient4269"
       id="linearGradient1412"
       gradientUnits="userSpaceOnUse"
       gradientTransform="translate(0.426158,-2.762136)"
       x1="7.8517423"
       y1="15.912388"
       x2="7.1114841"
       y2="11.597325" />
    <linearGradient
       inkscape:collect="always"
       xlink:href="#linearGradient4269"
       id="linearGradient1414"
       gradientUnits="userSpaceOnUse"
       gradientTransform="matrix(-1,0,0,1,32.04188,-2.86473)"
       x1="2.0651877"
       y1="12.625902"
       x2="6.8378897"
       y2="13.920053" />
    <linearGradient
       gradientTransform="matrix(1.256521,0,0,-1.256521,-7.854319,28.773309)"
       gradientUnits="userSpaceOnUse"
       y2="8.5305319"
       x2="15.630395"
       y1="22.874208"
       x1="15.630395"
       id="linearGradient2444"
       xlink:href="#linearGradient4269"
       inkscape:collect="always" />
    <linearGradient
       y2="13.920053"
       x2="6.8378897"
       y1="12.625902"
       x1="2.0651877"
       gradientTransform="matrix(-1,0,0,1,31.179578,-2.86473)"
       gradientUnits="userSpaceOnUse"
       id="linearGradient2442"
       xlink:href="#linearGradient4269"
       inkscape:collect="always" />
    <linearGradient
       gradientTransform="translate(1.1362892,-2.762136)"
       gradientUnits="userSpaceOnUse"
       y2="13.920053"
       x2="6.8378897"
       y1="12.625902"
       x1="2.0651877"
       id="linearGradient2440"
       xlink:href="#linearGradient4269"
       inkscape:collect="always" />
    <linearGradient
       gradientUnits="userSpaceOnUse"
       y2="10.576721"
       x2="14.013638"
       y1="2.7028866"
       x1="15.647213"
       id="linearGradient2438"
       xlink:href="#linearGradient4183"
       inkscape:collect="always" />
    <linearGradient
       gradientTransform="translate(-1.9107675,-0.885198)"
       gradientUnits="userSpaceOnUse"
       y2="12.535715"
       x2="31.31678"
       y1="12.535715"
       x1="24.397505"
       id="linearGradient2436"
       xlink:href="#linearGradient4183"
       inkscape:collect="always" />
    <linearGradient
       gradientTransform="translate(1.9220986,-1.100752)"
       gradientUnits="userSpaceOnUse"
       y2="12.825893"
       x2="7.9239235"
       y1="12.825893"
       x1="1.0046476"
       id="linearGradient2434"
       xlink:href="#linearGradient4183"
       inkscape:collect="always" />
    <linearGradient
       id="linearGradient2428">
      <stop
         id="stop2430"
         offset="0"
         style="stop-color:#80000e;stop-opacity:1;" />
      <stop
         id="stop2432"
         offset="1"
         style="stop-color:#b00014;stop-opacity:0;" />
    </linearGradient>
    <linearGradient
       id="linearGradient2422">
      <stop
         style="stop-color:#26b000;stop-opacity:1;"
         offset="0"
         id="stop2424" />
      <stop
         style="stop-color:#145f00;stop-opacity:1;"
         offset="1"
         id="stop2426" />
    </linearGradient>
    <linearGradient
       id="linearGradient2416">
      <stop
         id="stop2418"
         offset="0"
         style="stop-color:#26b000;stop-opacity:1;" />
      <stop
         id="stop2420"
         offset="1"
         style="stop-color:#26b000;stop-opacity:0;" />
    </linearGradient>
    <linearGradient
       inkscape:collect="always"
       xlink:href="#linearGradient2542"
       id="linearGradient2548"
       x1="-2.1546042"
       y1="-7.1975217"
       x2="25.153345"
       y2="24.96549"
       gradientUnits="userSpaceOnUse" />
    <linearGradient
       inkscape:collect="always"
       xlink:href="#linearGradient2542"
       id="linearGradient6012"
       gradientUnits="userSpaceOnUse"
       x1="-2.1546042"
       y1="-7.1975217"
       x2="25.153345"
       y2="24.96549" />
    <linearGradient
       inkscape:collect="always"
       xlink:href="#linearGradient2542"
       id="linearGradient6024"
       gradientUnits="userSpaceOnUse"
       x1="-2.1546042"
       y1="-7.1975217"
       x2="25.153345"
       y2="24.96549" />
  </defs>
  <sodipodi:namedview
     id="base"
     pagecolor="#ffffff"
     bordercolor="#666666"
     borderopacity="1.0"
     inkscape:pageopacity="0.0"
     inkscape:pageshadow="2"
     inkscape:zoom="8"
     inkscape:cx="22.991745"
     inkscape:cy="-2.9160694"
     inkscape:document-units="px"
     inkscape:current-layer="layer1"
     width="32px"
     height="32px"
     showguides="true"
     inkscape:guide-bbox="true"
     inkscape:window-width="1014"
     inkscape:window-height="722"
     inkscape:window-x="412"
     inkscape:window-y="135"
     showgrid="false">
    <sodipodi:guide
       orientation="vertical"
       position="16.5,12.125"
       id="guide3146" />
  </sodipodi:namedview>
  <metadata
     id="metadata7">
    <rdf:RDF>
      <cc:Work
         rdf:about="">
        <dc:format>image/svg+xml</dc:format>
        <dc:type
           rdf:resource="http://purl.org/dc/dcmitype/StillImage" />
      </cc:Work>
    </rdf:RDF>
  </metadata>
  <g
     inkscape:label="Calque 1"
     inkscape:groupmode="layer"
     id="layer1">
    <path
       sodipodi:type="inkscape:offset"
       inkscape:radius="-1.0012817"
       inkscape:original="M 23.5 66.5 C 18.5 66.5 17.5 67.5 16.5 68.5 L 5.90625 79.09375 C 6.161869 79.349369 6.514512 79.499999 6.90625 79.5 L 40.09375 79.5 C 40.485487 79.5 40.83813 79.349369 41.09375 79.09375 L 30.5 68.5 C 29.5 67.5 28.5 66.5 23.5 66.5 z "
       style="fill:none;fill-opacity:1;fill-rule:evenodd;stroke:url(#linearGradient6974);stroke-width:1px;stroke-linecap:butt;stroke-linejoin:miter;stroke-opacity:1"
       id="path6922"
       d="M 23.5,67.5 C 21.066752,67.5 19.672512,67.751714 18.84375,68.0625 C 18.014988,68.373286 17.71875,68.71875 17.21875,69.21875 L 7.9375,78.5 L 39.0625,78.5 L 29.78125,69.21875 C 29.28125,68.71875 28.985012,68.373286 28.15625,68.0625 C 27.327488,67.751714 25.933248,67.5 23.5,67.5 z"
       transform="matrix(0.4502137,0,0,0.3127812,14.307693,37.985654)" />
    <g
       style="opacity:0.7;display:inline"
       id="g6055"
       transform="matrix(1.3789487e-2,0,0,7.7745724e-3,26.01486,18.959687)">
      <rect
         y="-150.69685"
         x="-1559.2523"
         height="478.35718"
         width="1339.6335"
         id="rect6057"
         style="opacity:0.39195981;fill:url(#linearGradient6222);fill-opacity:1;fill-rule:nonzero;stroke:none;stroke-width:1;stroke-linecap:round;stroke-linejoin:miter;marker:none;marker-start:none;marker-mid:none;marker-end:none;stroke-miterlimit:4;stroke-dasharray:none;stroke-dashoffset:0;stroke-opacity:1;visibility:visible;display:inline;overflow:visible" />
      <path
         sodipodi:nodetypes="cccc"
         id="path6059"
         d="M -219.61876,-150.68038 C -219.61876,-150.68038 -219.61876,327.65041 -219.61876,327.65041 C -76.744594,328.55086 125.78146,220.48075 125.78138,88.454235 C 125.78138,-43.572302 -33.655436,-150.68036 -219.61876,-150.68038 z"
         style="opacity:0.40206185;fill:url(#radialGradient6224);fill-opacity:1;fill-rule:nonzero;stroke:none;stroke-width:1;stroke-linecap:round;stroke-linejoin:miter;marker:none;marker-start:none;marker-mid:none;marker-end:none;stroke-miterlimit:4;stroke-dasharray:none;stroke-dashoffset:0;stroke-opacity:1;visibility:visible;display:inline;overflow:visible" />
      <path
         style="opacity:0.40206185;fill:url(#radialGradient6226);fill-opacity:1;fill-rule:nonzero;stroke:none;stroke-width:1;stroke-linecap:round;stroke-linejoin:miter;marker:none;marker-start:none;marker-mid:none;marker-end:none;stroke-miterlimit:4;stroke-dasharray:none;stroke-dashoffset:0;stroke-opacity:1;visibility:visible;display:inline;overflow:visible"
         d="M -1559.2523,-150.68038 C -1559.2523,-150.68038 -1559.2523,327.65041 -1559.2523,327.65041 C -1702.1265,328.55086 -1904.6525,220.48075 -1904.6525,88.454235 C -1904.6525,-43.572302 -1745.2157,-150.68036 -1559.2523,-150.68038 z"
         id="path6061"
         sodipodi:nodetypes="cccc" />
    </g>
    <path
       style="fill:url(#radialGradient6362);fill-opacity:1;fill-rule:evenodd;stroke:none;stroke-width:0.99999988;stroke-linecap:butt;stroke-linejoin:round;stroke-miterlimit:4;stroke-dashoffset:0.69999992;stroke-opacity:0.99236642"
       d="M 12.165015,2.7312062 C 8.6504387,2.7312062 8.3466935,3.2137146 7.7103073,3.6962245 L 0.71005448,9.003817 L 0.71005448,9.682347 L 0.71005448,9.772816 L 0.71005448,20.388003 C 0.71005448,20.76604 1.10638,21.066531 1.6049719,21.066531 L 22.725056,21.066531 C 23.223651,21.066531 23.619975,20.766038 23.619975,20.388003 L 23.619975,9.772816 L 23.619975,9.682347 L 23.619975,9.003817 L 16.619723,3.6962245 C 15.983333,3.2137146 15.665143,2.7312062 12.165015,2.7312062 z"
       id="rect5931" />
    <path
       style="fill:none;fill-opacity:1;fill-rule:evenodd;stroke:#888a85;stroke-width:0.51318032;stroke-linecap:butt;stroke-linejoin:round;stroke-miterlimit:4;stroke-dashoffset:0.69999992;stroke-opacity:0.99236642"
       d="M 23.619975,10.255326 L 23.619975,9.003817 L 16.619723,3.6962245 C 15.983333,3.2137146 15.665143,2.7312062 12.165015,2.7312062 C 8.6504387,2.7312062 8.3466935,3.2137146 7.7103083,3.6962245 L 0.71005448,9.003817 L 0.71005448,10.255326"
       id="path7161"
       sodipodi:nodetypes="ccccccc" />
    <path
       sodipodi:type="inkscape:offset"
       inkscape:radius="-0.98534405"
       inkscape:original="M 24.5 4.5 C 18.977297 4.5 18.5 5.499998 17.5 6.5 L 6.5 17.5 L 6.5 18.90625 L 6.5 19.09375 L 6.5 41.09375 C 6.5 41.877225 7.1227756 42.500002 7.90625 42.5 L 41.09375 42.5 C 41.877224 42.5 42.5 41.877224 42.5 41.09375 L 42.5 19.09375 L 42.5 18.90625 L 42.5 17.5 L 31.5 6.5 C 30.5 5.5 30 4.499998 24.5 4.5 z "
       style="fill:none;fill-opacity:1;fill-rule:evenodd;stroke:#ffffff;stroke-width:0.93754596;stroke-linecap:butt;stroke-linejoin:round;stroke-miterlimit:4;stroke-dashoffset:0.69999992;stroke-opacity:0.99236642"
       id="path6064"
       d="M 24.5,5.5 C 21.798121,5.5 20.393246,5.7355566 19.65625,6.03125 C 18.919254,6.3269434 18.748198,6.6268011 18.1875,7.1875 L 7.5,17.875 L 7.5,18.90625 L 7.5,19.09375 L 7.5,41.09375 C 7.5,41.355066 7.6449379,41.500001 7.90625,41.5 L 41.09375,41.5 C 41.355064,41.5 41.5,41.355064 41.5,41.09375 L 41.5,19.09375 L 41.5,18.90625 L 41.5,17.875 L 30.8125,7.1875 C 30.254438,6.6294378 30.053706,6.3277326 29.3125,6.03125 C 28.571294,5.7347674 27.190282,5.499999 24.5,5.5 z"
       transform="matrix(0.6233103,0,0,0.4806737,-3.106088,0.5137033)" />
    <path
       style="opacity:0.07462685;fill:url(#linearGradient6357);fill-opacity:1;fill-rule:evenodd;stroke:none;stroke-width:1px;stroke-linecap:butt;stroke-linejoin:round;stroke-opacity:1"
       d="M 12.165015,13.105141 C 10.552675,13.105141 9.5549726,13.242417 8.8637572,13.46702 C 8.1725419,13.691621 7.8097425,14.018451 7.4915491,14.294166 L 1.2668919,20.652877 C 1.4892844,20.845585 1.2734892,20.825198 1.6049719,20.825198 L 22.725056,20.825198 C 23.056538,20.825198 22.880518,20.67326 23.10291,20.480555 L 16.838479,14.294166 C 16.520284,14.018451 16.157487,13.691621 15.466271,13.46702 C 14.775057,13.242417 13.777355,13.105141 12.165015,13.105141 z"
       id="path7000"
       sodipodi:nodetypes="csccccccsc" />
    <path
       style="fill:url(#radialGradient7354);fill-opacity:1;fill-rule:evenodd;stroke:url(#linearGradient7356);stroke-width:0.51318032;stroke-linecap:butt;stroke-linejoin:miter;stroke-miterlimit:4;stroke-dasharray:none;stroke-dashoffset:0.69999992;stroke-opacity:0.99236642"
       d="M 3.2486974,3.9537947 C 2.7928654,3.9537947 2.416046,4.20275 2.416046,4.5209391 L 2.416046,12.139066 L 7.3916506,15.89448 C 7.6965728,16.124625 7.9984941,16.42656 8.6710917,16.630237 C 9.3436882,16.833913 10.350022,16.952127 12.164169,16.952127 C 13.971015,16.95213 14.983258,16.833718 15.657245,16.630237 C 16.331235,16.426754 16.630895,16.125279 16.936686,15.89448 L 21.91229,12.139066 L 21.91229,4.5209391 C 21.91229,4.20275 21.535471,3.9537947 21.079638,3.9537947 L 3.2486974,3.9537947 z"
       id="rect7037" />
    <path
       style="fill:none;fill-opacity:1;fill-rule:evenodd;stroke:url(#linearGradient7351);stroke-width:0.51318043;stroke-linecap:butt;stroke-linejoin:miter;stroke-miterlimit:4;stroke-dashoffset:0.69999992;stroke-opacity:0.99236642"
       d="M 3.4345134,4.5977714 C 3.2951507,4.5977714 3.2555452,4.6503549 3.2555452,4.6771964 L 3.2555452,13.366344 L 7.94848,17.115228 C 8.2953043,17.392285 8.4645602,17.600509 8.9825176,17.766516 C 9.5164922,17.937659 10.424458,18.068334 12.164168,18.068334 C 13.896526,18.068334 14.810822,17.937467 15.345817,17.766516 C 15.864921,17.600645 16.031504,17.393503 16.379856,17.115228 L 21.072791,13.366344 L 21.072791,4.6771964 C 21.072791,4.6503534 21.033187,4.5977714 20.893822,4.5977714 L 3.4345134,4.5977714 z"
       id="path7081"
       sodipodi:nodetypes="ccccsssccccc" />
    <rect
       style="fill:#d3d7cf;fill-opacity:1;fill-rule:evenodd;stroke:none;stroke-width:1;stroke-linecap:butt;stroke-linejoin:miter;stroke-miterlimit:4;stroke-dasharray:none;stroke-dashoffset:0.69999992;stroke-opacity:0.99236642"
       id="rect7096"
       width="7.485157"
       height="0.37758133"
       x="4.6789727"
       y="5.5925789"
       rx="0.30619618"
       ry="0.22152303" />
    <rect
       style="fill:#d3d7cf;fill-opacity:1;fill-rule:evenodd;stroke:none;stroke-width:1;stroke-linecap:butt;stroke-linejoin:miter;stroke-miterlimit:4;stroke-dasharray:none;stroke-dashoffset:0.69999992;stroke-opacity:0.99236642"
       id="rect7110"
       width="3.3937743"
       height="0.43649527"
       x="16.406347"
       y="5.5581346"
       rx="0.30166888"
       ry="0.21824767" />
    <g
       id="g7169"
       transform="matrix(0.6363867,0,0,0.4825084,-3.4264602,0.5599189)">
      <path
         sodipodi:nodetypes="ccssscccssscc"
         id="path7112"
         d="M 7.09375,21.75 L 17.15625,33.34375 C 17.62545,33.812951 18.090035,34.428507 19.125,34.84375 C 20.159965,35.258993 21.70847,35.5 24.5,35.5 C 27.280303,35.500001 28.837893,35.258593 29.875,34.84375 C 30.912107,34.428907 31.373213,33.814287 31.84375,33.34375 L 41.875,21.875 L 31.84375,31.84375 C 31.373213,32.314287 30.912107,32.928907 29.875,33.34375 C 28.837893,33.758593 27.280303,34.000001 24.5,34 C 21.70847,34 20.159965,33.758993 19.125,33.34375 C 18.090035,32.928507 17.62545,32.312951 17.15625,31.84375 L 7.09375,21.75 z"
         style="opacity:1;fill:#ffffff;fill-opacity:1;fill-rule:evenodd;stroke:none;stroke-width:1px;stroke-linecap:butt;stroke-linejoin:round;stroke-opacity:1" />
      <path
         sodipodi:nodetypes="ccssscccssscc"
         id="path7128"
         d="M 7.09375,21.75 L 17.15625,31.34375 C 17.62545,31.812951 18.090035,32.428507 19.125,32.84375 C 20.159965,33.258993 21.70847,33.5 24.5,33.5 C 27.280303,33.500001 28.837893,33.258593 29.875,32.84375 C 30.912107,32.428907 31.373213,31.814287 31.84375,31.34375 L 41.875,21.875 L 31.84375,31.84375 C 31.373213,32.314287 30.912107,32.928907 29.875,33.34375 C 28.837893,33.758593 27.280303,34.000001 24.5,34 C 21.70847,34 20.159965,33.758993 19.125,33.34375 C 18.090035,32.928507 17.62545,32.312951 17.15625,31.84375 L 7.09375,21.75 z"
         style="opacity:0.3;fill:#000000;fill-opacity:1;fill-rule:evenodd;stroke:none;stroke-width:1px;stroke-linecap:butt;stroke-linejoin:round;stroke-opacity:1" />
      <path
         transform="translate(1,-38)"
         d="M 6.90625,55 C 5.8578131,55 5,55.857811 5,56.90625 L 5,58.5 C 5.0051575,58.6306 5.0612439,58.75399 5.15625,58.84375 L 16.15625,69.84375 C 16.62545,70.312951 17.090035,70.928507 18.125,71.34375 C 19.159965,71.758993 20.70847,72 23.5,72 C 26.280303,72.000001 27.837893,71.758593 28.875,71.34375 C 29.912107,70.928907 30.373213,70.314287 30.84375,69.84375 L 41.84375,58.84375 C 41.938756,58.75399 41.994842,58.6306 42,58.5 L 42,56.90625 C 42,55.857813 41.142189,55 40.09375,55 L 6.90625,55 z"
         id="path6930"
         style="opacity:0.16791047;fill:url(#linearGradient6364);fill-opacity:1;fill-rule:evenodd;stroke:none;stroke-width:1px;stroke-linecap:butt;stroke-linejoin:round;stroke-opacity:1"
         inkscape:original="M 6.90625 55.5 C 6.1227756 55.5 5.5 56.122774 5.5 56.90625 L 5.5 58.5 L 16.5 69.5 C 17.5 70.500002 17.977297 71.5 23.5 71.5 C 29 71.500002 29.5 70.5 30.5 69.5 L 41.5 58.5 L 41.5 56.90625 C 41.5 56.122776 40.877226 55.5 40.09375 55.5 L 6.90625 55.5 z "
         inkscape:radius="0.5"
         sodipodi:type="inkscape:offset" />
    </g>
    <path
       style="fill:url(#radialGradient6338);fill-opacity:1;fill-rule:evenodd;stroke:none;stroke-width:0.89999998;stroke-linecap:butt;stroke-linejoin:round;stroke-miterlimit:4;stroke-dasharray:none;stroke-opacity:1"
       d="M 12.165015,14.793922 C 8.9830786,14.793922 8.3466935,15.27643 7.7103073,15.758938 L 0.96858565,20.870515 C 1.1312592,20.99385 1.3556753,21.06653 1.6049719,21.066531 L 22.725056,21.066531 C 22.974353,21.066531 23.19877,20.99385 23.361442,20.870515 L 16.619723,15.758938 C 15.983333,15.27643 15.346949,14.793922 12.165015,14.793922 z"
       id="path6902" />
    <path
       style="opacity:0.55597014;fill:url(#linearGradient6335);fill-opacity:1;fill-rule:evenodd;stroke:none;stroke-width:0.99999988;stroke-linecap:butt;stroke-linejoin:round;stroke-miterlimit:4;stroke-dashoffset:0.69999992;stroke-opacity:0.99236642"
       d="M 1.028246,18.850008 L 1.028246,20.392359 C 1.028246,20.644461 1.2734083,20.83087 1.6049719,20.83087 L 22.725056,20.83087 C 23.056619,20.83087 23.30178,20.644461 23.30178,20.392359 L 23.30178,18.850008 L 1.028246,18.850008 z"
       id="path6980"
       sodipodi:nodetypes="ccccccc" />
    <g
       id="g4724"
       transform="matrix(0.6033378,0,0,0.4364954,-2.0143013,2.0661723)">
      <rect
         ry="0.50750387"
         rx="0.50750387"
         y="14.078901"
         x="11.09375"
         height="0.86502957"
         width="25.03125"
         id="rect4710"
         style="fill:#d3d7cf;fill-opacity:1;fill-rule:evenodd;stroke:none;stroke-width:1;stroke-linecap:butt;stroke-linejoin:miter;stroke-miterlimit:4;stroke-dasharray:none;stroke-dashoffset:0.69999992;stroke-opacity:0.99236642" />
      <rect
         style="fill:#d3d7cf;fill-opacity:1;fill-rule:evenodd;stroke:none;stroke-width:1;stroke-linecap:butt;stroke-linejoin:miter;stroke-miterlimit:4;stroke-dasharray:none;stroke-dashoffset:0.69999992;stroke-opacity:0.99236642"
         id="rect4712"
         width="25.03125"
         height="0.86502957"
         x="11.09375"
         y="16.078901"
         rx="0.50750387"
         ry="0.50750387" />
      <rect
         ry="0.50750387"
         rx="0.50750387"
         y="18.078901"
         x="11.09375"
         height="0.86502957"
         width="25.03125"
         id="rect4714"
         style="fill:#d3d7cf;fill-opacity:1;fill-rule:evenodd;stroke:none;stroke-width:1;stroke-linecap:butt;stroke-linejoin:miter;stroke-miterlimit:4;stroke-dasharray:none;stroke-dashoffset:0.69999992;stroke-opacity:0.99236642" />
      <rect
         style="fill:#d3d7cf;fill-opacity:1;fill-rule:evenodd;stroke:none;stroke-width:1;stroke-linecap:butt;stroke-linejoin:miter;stroke-miterlimit:4;stroke-dasharray:none;stroke-dashoffset:0.69999992;stroke-opacity:0.99236642"
         id="rect4716"
         width="25.03125"
         height="0.86502957"
         x="11.09375"
         y="20.078901"
         rx="0.50750387"
         ry="0.50750387" />
      <rect
         ry="0.50750387"
         rx="0.50750387"
         y="22.078901"
         x="11.09375"
         height="0.86502957"
         width="25.03125"
         id="rect4718"
         style="fill:#d3d7cf;fill-opacity:1;fill-rule:evenodd;stroke:none;stroke-width:1;stroke-linecap:butt;stroke-linejoin:miter;stroke-miterlimit:4;stroke-dasharray:none;stroke-dashoffset:0.69999992;stroke-opacity:0.99236642" />
      <rect
         style="fill:#d3d7cf;fill-opacity:1;fill-rule:evenodd;stroke:none;stroke-width:1;stroke-linecap:butt;stroke-linejoin:miter;stroke-miterlimit:4;stroke-dasharray:none;stroke-dashoffset:0.69999992;stroke-opacity:0.99236642"
         id="rect4720"
         width="25.03125"
         height="0.86502957"
         x="11.09375"
         y="24.078901"
         rx="0.50750387"
         ry="0.50750387" />
      <rect
         ry="0.50750387"
         rx="0.50750387"
         y="26.078901"
         x="11.09375"
         height="0.86502957"
         width="25.03125"
         id="rect4722"
         style="fill:#d3d7cf;fill-opacity:1;fill-rule:evenodd;stroke:none;stroke-width:1;stroke-linecap:butt;stroke-linejoin:miter;stroke-miterlimit:4;stroke-dasharray:none;stroke-dashoffset:0.69999992;stroke-opacity:0.99236642" />
    </g>
    <path
       style="fill:none;fill-opacity:1;fill-rule:evenodd;stroke:#888a85;stroke-width:0.51318026;stroke-linecap:butt;stroke-linejoin:round;stroke-miterlimit:4;stroke-dashoffset:0.69999992;stroke-opacity:0.99236642"
       d="M 0.71005448,9.772816 L 0.71005448,20.456781 C 0.71005448,20.837262 1.10638,21.139703 1.6049719,21.139702 L 22.725056,21.139702 C 23.223651,21.139702 23.619975,20.837262 23.619975,20.456781 L 23.619975,9.772816"
       id="path7174"
       sodipodi:nodetypes="cccccc" />
    <g
       id="g6320"
       transform="matrix(0.6363866,0,0,0.4993148,-39.223209,-0.1458227)">
      <path
         sodipodi:nodetypes="ccssscccccc"
         id="path7039"
         d="M 63.25,41.970971 L 73.40625,30.627221 C 73.875623,30.157847 74.3406,29.542237 75.375,29.127221 C 76.4094,28.712205 77.95864,28.470971 80.75,28.470971 C 83.530132,28.47097 85.088454,28.712602 86.125,29.127221 C 87.161546,29.54184 87.623047,30.156518 88.09375,30.627221 L 98.25,41.970971 L 88.103408,32.175118 C 86.059401,30.205524 83.585161,29.902961 80.759658,30.018868 C 78.088808,30.068408 75.295355,30.018538 73.415908,32.175118 L 63.25,41.970971 z"
         style="fill:#888a85;fill-opacity:1;fill-rule:evenodd;stroke:none;stroke-width:0.89999998;stroke-linecap:butt;stroke-linejoin:round;stroke-miterlimit:4;stroke-dasharray:none;stroke-opacity:1" />
      <path
         sodipodi:nodetypes="ccccccccc"
         id="path7049"
         d="M 63.25,41.99247 L 73.415908,33.404596 C 75.295355,31.286609 78.088808,31.335586 80.759658,31.286933 C 83.585161,31.1731 86.059401,31.470249 88.103408,33.404596 L 98.25,41.99247 L 88.09375,31.833825 C 86.049743,29.899478 83.575503,29.60233 80.75,29.716162 C 78.07915,29.764816 75.285697,29.715838 73.40625,31.833825 L 63.25,41.99247 z"
         style="fill:#ffffff;fill-opacity:1;fill-rule:evenodd;stroke:none;stroke-width:0.89999998;stroke-linecap:butt;stroke-linejoin:round;stroke-miterlimit:4;stroke-dasharray:none;stroke-opacity:1" />
    </g>
    <path
       style="opacity:0.594697;fill:none;fill-opacity:1;fill-rule:evenodd;stroke:#ffffff;stroke-width:0.51318032;stroke-linecap:butt;stroke-linejoin:round;stroke-miterlimit:4;stroke-dashoffset:0.69999992;stroke-opacity:0.99236642"
       d="M 1.5771273,20.156868 C 1.5771273,20.392971 1.6674678,20.523921 1.8303473,20.523921 L 22.516457,20.523921 C 22.679338,20.523921 22.769677,20.39297 22.769677,20.156868"
       id="path7293"
       sodipodi:nodetypes="cccc" />
    <g
       style="display:inline"
       id="g5992"
       transform="matrix(0.7663589,0,0,0.6468413,0.9401131,-23.459248)">
      <path
         transform="matrix(1.14985,0,0,1.14985,-23.09153,35.3537)"
         d="M 47.000506,9.3411446 A 8.341651,8.341651 0 1 1 30.317204,9.3411446 A 8.341651,8.341651 0 1 1 47.000506,9.3411446 z"
         sodipodi:ry="8.341651"
         sodipodi:rx="8.341651"
         sodipodi:cy="9.3411446"
         sodipodi:cx="38.658855"
         id="path5988"
         style="fill:url(#radialGradient6283);fill-opacity:1;fill-rule:evenodd;stroke:none;stroke-width:1px;stroke-linecap:butt;stroke-linejoin:miter;stroke-opacity:1;display:inline"
         sodipodi:type="arc" />
      <path
         transform="matrix(0.674116,0.299577,-0.299577,0.674116,-3.207e-2,27.67034)"
         d="M 44.520054,15.50279 C 44.012883,16.381236 39.925351,15.341967 38.998703,15.754538 C 38.072055,16.167108 36.109289,19.900142 35.117113,19.689249 C 34.124936,19.478355 33.850222,15.26973 33.171495,14.515926 C 32.492767,13.762123 28.335913,13.048993 28.229885,12.040207 C 28.123857,11.031421 32.041607,9.4696164 32.548778,8.5911701 C 33.055949,7.7127238 32.449637,3.5389508 33.376285,3.1263806 C 34.302933,2.7138103 36.998949,5.957187 37.991126,6.1680807 C 38.983302,6.3789743 42.765436,4.5125708 43.444163,5.2663741 C 44.122891,6.0201775 41.871371,9.5864995 41.977399,10.595285 C 42.083426,11.604071 45.027225,14.624343 44.520054,15.50279 z"
         inkscape:randomized="0"
         inkscape:rounded="0.18352206"
         inkscape:flatsided="false"
         sodipodi:arg2="1.1519173"
         sodipodi:arg1="0.52359878"
         sodipodi:r2="5.0676599"
         sodipodi:r1="8.755579"
         sodipodi:cy="11.125"
         sodipodi:cx="36.9375"
         sodipodi:sides="5"
         id="path5990"
         style="opacity:1;fill:#ffffff;fill-opacity:1;fill-rule:evenodd;stroke:none;stroke-width:0.5;stroke-linecap:butt;stroke-linejoin:miter;marker:none;marker-start:none;marker-mid:none;marker-end:none;stroke-miterlimit:4;stroke-dasharray:none;stroke-dashoffset:0;stroke-opacity:1;visibility:visible;display:inline;overflow:visible"
         sodipodi:type="star" />
    </g>
    <rect
       ry="0.22152303"
       rx="0.30619618"
       y="6.46556"
       x="4.6789727"
       height="0.37758133"
       width="2.9224164"
       id="rect4708"
       style="fill:#d3d7cf;fill-opacity:1;fill-rule:evenodd;stroke:none;stroke-width:1;stroke-linecap:butt;stroke-linejoin:miter;stroke-miterlimit:4;stroke-dasharray:none;stroke-dashoffset:0.69999992;stroke-opacity:0.99236642" />
  </g>
</svg>
