<?xml version="1.0" encoding="UTF-8" standalone="no"?>
<!-- Created with Inkscape (http://www.inkscape.org/) -->
<svg
   xmlns:dc="http://purl.org/dc/elements/1.1/"
   xmlns:cc="http://creativecommons.org/ns#"
   xmlns:rdf="http://www.w3.org/1999/02/22-rdf-syntax-ns#"
   xmlns:svg="http://www.w3.org/2000/svg"
   xmlns="http://www.w3.org/2000/svg"
   xmlns:xlink="http://www.w3.org/1999/xlink"
   xmlns:sodipodi="http://sodipodi.sourceforge.net/DTD/sodipodi-0.dtd"
   xmlns:inkscape="http://www.inkscape.org/namespaces/inkscape"
   width="48"
   height="48"
   id="svg5875"
   sodipodi:version="0.32"
   inkscape:version="0.46"
   version="1.0"
   sodipodi:docname="sflphone_small.svg"
   inkscape:output_extension="org.inkscape.output.svg.inkscape">
  <defs
     id="defs5877">
    <linearGradient
       inkscape:collect="always"
       id="linearGradient3803">
      <stop
         style="stop-color:#ffffff;stop-opacity:1;"
         offset="0"
         id="stop3805" />
      <stop
         style="stop-color:#ffffff;stop-opacity:0;"
         offset="1"
         id="stop3807" />
    </linearGradient>
    <linearGradient
       inkscape:collect="always"
       id="linearGradient4684">
      <stop
         style="stop-color:#ffffff;stop-opacity:1;"
         offset="0"
         id="stop4686" />
      <stop
         style="stop-color:#ffffff;stop-opacity:0;"
         offset="1"
         id="stop4688" />
    </linearGradient>
    <linearGradient
       inkscape:collect="always"
       id="linearGradient4669">
      <stop
         style="stop-color:#ffffff;stop-opacity:1;"
         offset="0"
         id="stop4671" />
      <stop
         style="stop-color:#ffffff;stop-opacity:0;"
         offset="1"
         id="stop4673" />
    </linearGradient>
    <linearGradient
       inkscape:collect="always"
       id="linearGradient3859">
      <stop
         style="stop-color:#ffffff;stop-opacity:1;"
         offset="0"
         id="stop3861" />
      <stop
         style="stop-color:#ffffff;stop-opacity:0;"
         offset="1"
         id="stop3863" />
    </linearGradient>
    <linearGradient
       inkscape:collect="always"
       id="linearGradient5850">
      <stop
         style="stop-color:#ffffff;stop-opacity:1;"
         offset="0"
         id="stop5852" />
      <stop
         style="stop-color:#ffffff;stop-opacity:0;"
         offset="1"
         id="stop5854" />
    </linearGradient>
    <linearGradient
       inkscape:collect="always"
       xlink:href="#linearGradient5850"
       id="linearGradient5856"
       x1="476.3125"
       y1="439.0293"
       x2="477.3125"
       y2="514.42188"
       gradientUnits="userSpaceOnUse" />
    <linearGradient
       inkscape:collect="always"
       id="linearGradient4999">
      <stop
         style="stop-color:#ffffff;stop-opacity:1;"
         offset="0"
         id="stop5001" />
      <stop
         style="stop-color:#ffffff;stop-opacity:0;"
         offset="1"
         id="stop5003" />
    </linearGradient>
    <linearGradient
       inkscape:collect="always"
       xlink:href="#linearGradient4999"
       id="linearGradient5862"
       gradientUnits="userSpaceOnUse"
       x1="698.38525"
       y1="245.5472"
       x2="702.81964"
       y2="977.78302" />
    <linearGradient
       inkscape:collect="always"
       id="linearGradient4991">
      <stop
         style="stop-color:#ffffff;stop-opacity:1;"
         offset="0"
         id="stop4993" />
      <stop
         style="stop-color:#ffffff;stop-opacity:0;"
         offset="1"
         id="stop4995" />
    </linearGradient>
    <radialGradient
       inkscape:collect="always"
       xlink:href="#linearGradient4991"
       id="radialGradient4997"
       cx="736.5"
       cy="640.93073"
       fx="736.5"
       fy="640.93073"
       r="91.964203"
       gradientTransform="matrix(1,0,0,0.8097086,0,99.14184)"
       gradientUnits="userSpaceOnUse" />
    <inkscape:perspective
       sodipodi:type="inkscape:persp3d"
       inkscape:vp_x="0 : 526.18109 : 1"
       inkscape:vp_y="0 : 1000 : 0"
       inkscape:vp_z="744.09448 : 526.18109 : 1"
       inkscape:persp3d-origin="372.04724 : 350.78739 : 1"
       id="perspective5883" />
    <linearGradient
       inkscape:collect="always"
       xlink:href="#linearGradient3859"
       id="linearGradient3873"
       x1="352.19498"
       y1="451.55289"
       x2="106.34038"
       y2="658.39594"
       gradientUnits="userSpaceOnUse"
       gradientTransform="translate(-3.8268196,-1.7394634)" />
    <inkscape:perspective
       id="perspective2422"
       inkscape:persp3d-origin="372.04724 : 350.78739 : 1"
       inkscape:vp_z="744.09448 : 526.18109 : 1"
       inkscape:vp_y="0 : 1000 : 0"
       inkscape:vp_x="0 : 526.18109 : 1"
       sodipodi:type="inkscape:persp3d" />
    <inkscape:perspective
       id="perspective2437"
       inkscape:persp3d-origin="168.5 : 109.33333 : 1"
       inkscape:vp_z="337 : 164 : 1"
       inkscape:vp_y="0 : 1000 : 0"
       inkscape:vp_x="0 : 164 : 1"
       sodipodi:type="inkscape:persp3d" />
    <linearGradient
       inkscape:collect="always"
       xlink:href="#linearGradient4669"
       id="linearGradient4675"
       x1="-20.657925"
       y1="-244.41351"
       x2="184.57913"
       y2="789.61469"
       gradientUnits="userSpaceOnUse"
       spreadMethod="pad" />
    <linearGradient
       inkscape:collect="always"
       xlink:href="#linearGradient4684"
       id="linearGradient4690"
       x1="52.987782"
       y1="-84.148399"
       x2="127.02813"
       y2="99.500687"
       gradientUnits="userSpaceOnUse" />
    <linearGradient
       inkscape:collect="always"
       xlink:href="#linearGradient4669"
       id="linearGradient5149"
       gradientUnits="userSpaceOnUse"
       spreadMethod="pad"
       x1="-20.657925"
       y1="-244.41351"
       x2="184.57913"
       y2="789.61469" />
    <radialGradient
       inkscape:collect="always"
       xlink:href="#linearGradient4991"
       id="radialGradient5297"
       gradientUnits="userSpaceOnUse"
       gradientTransform="matrix(1,0,0,0.8097086,0,99.14184)"
       cx="736.5"
       cy="640.93073"
       fx="736.5"
       fy="640.93073"
       r="91.964203" />
    <linearGradient
       inkscape:collect="always"
       xlink:href="#linearGradient4999"
       id="linearGradient5299"
       gradientUnits="userSpaceOnUse"
       x1="698.38525"
       y1="245.5472"
       x2="702.81964"
       y2="977.78302" />
    <linearGradient
       inkscape:collect="always"
       xlink:href="#linearGradient4684"
       id="linearGradient5301"
       gradientUnits="userSpaceOnUse"
       x1="52.987782"
       y1="-84.148399"
       x2="127.02813"
       y2="99.500687" />
    <linearGradient
       inkscape:collect="always"
       xlink:href="#linearGradient4684"
       id="linearGradient5308"
       gradientUnits="userSpaceOnUse"
       x1="52.987782"
       y1="-84.148399"
       x2="127.02813"
       y2="99.500687"
       gradientTransform="matrix(0.2605128,0,0,0.2605128,-8.9636399e-5,0.4297618)" />
    <linearGradient
       inkscape:collect="always"
       xlink:href="#linearGradient3803"
       id="linearGradient3809"
       x1="12.663443"
       y1="8.5301828"
       x2="41.858654"
       y2="57.533279"
       gradientUnits="userSpaceOnUse"
       gradientTransform="matrix(0.405852,0,0,0.405852,-0.3512056,7.8644811e-2)" />
  </defs>
  <sodipodi:namedview
     id="base"
     pagecolor="#ffffff"
     bordercolor="#666666"
     borderopacity="1.0"
     gridtolerance="10000"
     guidetolerance="10"
     objecttolerance="10"
     inkscape:pageopacity="0.0"
     inkscape:pageshadow="2"
     inkscape:zoom="4.6527672"
     inkscape:cx="28.248197"
     inkscape:cy="33.850213"
     inkscape:document-units="px"
     inkscape:current-layer="layer2"
     showgrid="false"
     inkscape:window-width="1680"
     inkscape:window-height="1050"
     inkscape:window-x="0"
     inkscape:window-y="0"
     showguides="true"
     inkscape:guide-bbox="true" />
  <metadata
     id="metadata5880">
    <rdf:RDF>
      <cc:Work
         rdf:about="">
        <dc:format>image/svg+xml</dc:format>
        <dc:type
           rdf:resource="http://purl.org/dc/dcmitype/StillImage" />
        <dc:title>Icône SFL</dc:title>
        <dc:date>2009-04-29</dc:date>
        <dc:creator>
          <cc:Agent>
            <dc:title>Jérôme Oufella</dc:title>
          </cc:Agent>
        </dc:creator>
        <dc:rights>
          <cc:Agent>
            <dc:title>(c) 2009 Savoir-faire Linux inc.</dc:title>
          </cc:Agent>
        </dc:rights>
        <dc:subject>
          <rdf:Bag>
            <rdf:li>sfl icon</rdf:li>
          </rdf:Bag>
        </dc:subject>
      </cc:Work>
    </rdf:RDF>
  </metadata>
  <g
     inkscape:label="Circle"
     inkscape:groupmode="layer"
     id="layer1"
     transform="translate(-182.15973,-428.80763)"
     style="display:inline">
    <g
       style="display:inline"
       id="g5868"
       transform="matrix(0.2605128,0,0,0.2605128,73.525789,315.71943)">
      <path
         transform="matrix(0.9959566,0,0,1.2202117,1.6861043,-136.53125)"
         d="M 602,544.5 A 92.5,75.5 0 1 1 417,544.5 A 92.5,75.5 0 1 1 602,544.5 z"
         sodipodi:ry="75.5"
         sodipodi:rx="92.5"
         sodipodi:cy="544.5"
         sodipodi:cx="509.5"
         id="path4987"
         style="fill:#00252b;fill-opacity:1;fill-rule:evenodd"
         sodipodi:type="arc" />
      <path
         transform="matrix(0.9200853,0,0,1.1406537,-168.51683,-66.406557)"
         d="M 827,521 A 90.5,73 0 1 1 646,521 A 90.5,73 0 1 1 827,521 z"
         sodipodi:ry="73"
         sodipodi:rx="90.5"
         sodipodi:cy="521"
         sodipodi:cx="736.5"
         id="path4989"
         style="opacity:0.83064515;fill:url(#radialGradient5297);fill-opacity:1;fill-rule:evenodd;stroke:url(#linearGradient5299);stroke-width:2.92839932;stroke-miterlimit:4;stroke-dasharray:none;stroke-opacity:1"
         sodipodi:type="arc" />
    </g>
  </g>
  <g
     inkscape:groupmode="layer"
     id="layer3"
     inkscape:label="Bg logo"
     style="display:inline">
    <path
       style="opacity:1;fill:#006f82;fill-opacity:0;fill-rule:evenodd;stroke:#006f82;stroke-width:0.422086;stroke-linecap:round;stroke-linejoin:round;stroke-miterlimit:4;stroke-dasharray:none;stroke-opacity:1;display:inline"
       d="M 3.9096794,25.294043 L 3.9075534,24.324524 L 4.2239284,25.899506 L 4.2204704,24.324039 L 4.7453664,25.858304 L 4.7413804,24.040455 L 5.1636554,26.342414 L 5.2602484,22.82775 L 5.5828324,27.230494 L 6.0925734,21.856935 L 6.2109654,28.279839 L 6.6170254,23.189216 L 6.9377424,26.743632 L 7.1391744,23.471184 L 7.4605114,27.308377 L 7.6565354,21.571739 L 8.2988564,29.084537 L 8.0694154,19.591657 L 9.2416854,30.941325 L 8.9040424,19.671158 L 9.8679594,31.142336 L 9.4246814,19.266383 L 10.070636,28.435444 L 10.266396,22.577612 L 10.591986,28.353843 L 10.993521,21.202997 L 11.006817,27.262484 L 11.511509,19.586325 L 11.427141,28.675725 L 11.930857,20.555196 L 12.162245,30.936799 L 12.761139,18.655263 L 12.894602,31.945586 L 13.383959,17.280808 L 13.6266,32.792779 L 14.007578,16.269923 L 14.25377,33.39775 L 14.527957,15.74396 L 15.090428,34.40638 L 15.053741,17.682189 L 15.504195,32.830269 L 15.683741,19.579859 L 16.021827,31.052009 L 16.20952,21.518089 L 16.749838,30.081358 L 16.836242,21.921084 L 17.166795,29.959524 L 17.463053,22.364478 L 17.89472,28.948482 L 17.672285,22.646931 L 18.519846,28.624336 L 18.299979,23.49429 L 18.931664,26.159495 L 19.089486,13.800454 L 19.661626,26.077572 L 19.727122,11.983034 L 20.079027,26.157719 L 20.669689,13.720766 L 20.736619,33.436399 L 21.293838,12.951313 L 21.556696,34.08053 L 21.732164,11.776759 L 22.485145,36.579661 L 22.349486,11.493024 L 23.105286,37.581753 L 23.158389,10.641781 L 23.652621,38.549005 L 23.590775,10.35715 L 24.272521,39.440795 L 24.21661,10.356179 L 25.221204,40.369396 L 25.279783,19.524593 L 25.658997,38.951758 L 25.595804,20.93799 L 26.568228,39.884686 L 26.118483,21.462338 L 26.519257,39.923026 L 25.885502,10.353594 L 27.528877,39.070286 L 26.303789,10.837706 L 28.057056,38.502493 L 27.27509,11.28104 L 28.987115,38.136772 L 28.80819,11.318586 C 28.80819,11.318586 29.496848,39.958812 29.705019,39.756503 C 29.913184,39.554196 30.164782,11.599262 30.164782,11.599262 L 30.223173,38.216122 L 30.687821,12.285196 L 30.751881,37.891419 L 31.209879,12.526768 L 31.272264,37.368069 L 31.942943,13.858725 L 32.096995,36.536929 L 32.779072,14.624966 L 32.830232,34.348212 L 33.318959,15.797057 L 33.756892,28.836712 L 34.155713,16.847498 L 34.486059,28.390031 L 35.298286,18.260799 L 35.737735,31.988138 L 35.935141,19.680568 L 36.481882,31.175976 L 36.65072,20.240987 L 37.208926,29.761199 L 37.397973,20.845306 L 38.225474,28.469297 L 38.139025,22.218122 L 38.876042,28.951389 L 38.974891,22.863649 L 40.085586,27.740932 L 40.122948,23.182675 L 40.958252,27.943931 L 40.990306,23.787044 L 41.69247,26.200755 L 41.853191,22.365187 L 42.150759,26.929559 L 42.426881,24.54975 C 42.426881,24.54975 42.870962,25.996 42.870518,25.794017 C 42.87007,25.592036 43.478635,24.910271 43.373516,24.546861 C 43.268417,24.183456 43.816455,25.472218 43.816455,25.472218"
       id="path4922"
       sodipodi:nodetypes="ccccccccccccccccccccccccccccccccccccccccccccccccccccccccccccccccccccccccccccccccccccscccccccccccccccccccccccccccccccccccc" />
  </g>
  <g
     inkscape:groupmode="layer"
     id="layer2"
     inkscape:label="Handset"
     style="display:inline">
    <path
       style="opacity:0.07000002;fill:url(#linearGradient5308);fill-opacity:1;fill-rule:nonzero;stroke:none;stroke-width:12.29699993;stroke-miterlimit:4;stroke-dasharray:none;stroke-opacity:1;display:inline"
       d="M 23.527475,3.2954028 C 12.150785,3.5839538 3.0120904,12.910416 3.0120904,24.356237 C 3.0120904,27.791987 3.8387804,31.031256 5.2997184,33.89752 C 4.9416924,32.35914 4.7542694,30.757457 4.7542694,29.110597 C 4.7542694,17.483095 14.187603,8.0416208 25.815103,8.0416208 C 34.005671,8.0416198 41.104503,12.72884 44.588309,19.561173 C 42.4157,10.241869 34.050797,3.2954028 24.072924,3.2954028 C 23.891244,3.2954028 23.708057,3.2908228 23.527475,3.2954028 z"
       id="path4679" />
    <path
       id="path3760"
       d="M 35.538076,38.22286 C 35.398034,38.591877 33.947346,39.963664 33.2705,40.367105 L 32.52227,40.813095 L 29.443712,36.801139 L 26.365151,32.789186 L 26.89506,32.239892 C 27.413652,31.702324 28.969717,30.658086 29.475555,30.508183 C 29.695171,30.443098 30.137732,30.963192 32.662514,34.253471 C 34.275073,36.354943 35.569078,38.14117 35.538076,38.22286 z M 20.129258,18.207369 C 20.013546,18.512273 18.182887,20.072924 17.586271,20.375285 L 17.044225,20.649984 L 14.010007,16.624508 L 10.975785,12.599031 L 12.020492,11.737293 C 12.595083,11.263336 13.348575,10.758584 13.694918,10.615619 L 14.324633,10.355684 L 17.263402,14.185463 C 19.233796,16.753266 20.178145,18.078551 20.129258,18.207369 z M 31.977729,41.186622 C 31.958262,41.237833 31.619054,41.443873 31.223935,41.644488 C 28.118857,43.221061 23.128318,41.365202 18.430059,36.886769 C 16.767114,35.301627 13.336727,31.055304 11.981567,28.904462 C 9.3663884,24.753784 8.1365464,21.269057 8.1727954,18.112403 C 8.1954184,16.142387 8.8419814,14.480161 10.001399,13.411291 L 10.398949,13.044786 L 13.448566,16.959676 L 16.498185,20.874565 L 16.251534,21.301789 C 15.910844,21.891887 15.972469,22.665833 16.45391,23.843403 C 17.058141,25.321303 21.851972,31.565432 23.138077,32.54976 C 24.148744,33.323281 24.7705,33.549099 25.517776,33.414057 L 26.046941,33.318429 L 29.030033,37.205973 C 30.670733,39.344123 31.997198,41.135411 31.977729,41.186622 z"
       style="opacity:0.32000002;fill:#000000;fill-opacity:1" />
    <path
       style="fill:#dfdfdf;fill-opacity:1"
       d="M 36.995738,36.765198 C 36.855696,37.134215 35.405009,38.506001 34.728163,38.909443 L 33.979933,39.355434 L 30.901374,35.343476 L 27.822814,31.331524 L 28.352723,30.78223 C 28.871315,30.244662 30.427379,29.200424 30.933217,29.05052 C 31.152833,28.985436 31.595394,29.50553 34.120177,32.795809 C 35.732735,34.897281 37.02674,36.683508 36.995738,36.765198 z M 21.58692,16.749707 C 21.471208,17.054611 19.64055,18.615262 19.043933,18.917622 L 18.501887,19.192321 L 15.467668,15.166846 L 12.433447,11.141369 L 13.478154,10.27963 C 14.052745,9.8056738 14.806237,9.3009208 15.15258,9.1579568 L 15.782295,8.8980208 L 18.721064,12.727801 C 20.691459,15.295604 21.635807,16.620888 21.58692,16.749707 z M 33.435391,39.728961 C 33.415924,39.780171 33.076716,39.986208 32.681598,40.186827 C 29.57652,41.7634 24.58598,39.907539 19.887721,35.429107 C 18.224776,33.843965 14.794389,29.597642 13.43923,27.4468 C 10.82405,23.296122 9.5942084,19.811395 9.6304584,16.65474 C 9.6530814,14.684724 10.299644,13.022499 11.459061,11.953629 L 11.856611,11.587124 L 14.906228,15.502014 L 17.955847,19.416904 L 17.709196,19.844127 C 17.368506,20.434225 17.430131,21.208171 17.911573,22.385741 C 18.515803,23.86364 23.309634,30.10777 24.595739,31.092098 C 25.606407,31.865618 26.228163,32.091437 26.975438,31.956394 L 27.504603,31.860767 L 30.487695,35.74831 C 32.128396,37.886461 33.454861,39.67775 33.435391,39.728961 z"
       id="path3218" />
    <g
       transform="matrix(0.2429437,0,0,0.2429437,-43.323004,-101.73845)"
       id="g3787"
       style="fill:#ffffff;fill-opacity:0">
      <path
         id="path3789"
         d="M 324.6064,576.10592 C 324.02996,577.62486 318.05867,583.27138 315.27265,584.93202 L 312.1928,586.7678 L 299.5209,570.25386 L 286.84899,553.73994 L 289.03019,551.47895 C 291.16481,549.26622 297.56985,544.96795 299.65197,544.35092 C 300.55595,544.08302 302.37761,546.22382 312.77007,559.7672 C 319.40765,568.41724 324.73401,575.76967 324.6064,576.10592 z M 261.18093,493.71856 C 260.70464,494.9736 253.16932,501.39752 250.71354,502.64209 L 248.48238,503.7728 L 235.99299,487.20322 L 223.50359,470.63363 L 227.80379,467.08656 C 230.16891,465.13567 233.27042,463.05802 234.69603,462.46955 L 237.28805,461.39961 L 249.38455,477.16367 C 257.49505,487.73321 261.38216,493.18832 261.18093,493.71856 z M 309.95137,588.3053 C 309.87124,588.51609 308.475,589.36418 306.84862,590.18996 C 294.06756,596.67941 273.5256,589.04036 254.18672,570.60633 C 247.34174,564.0816 233.22165,546.60297 227.64357,537.74972 C 216.87902,520.66478 211.81677,506.32102 211.96598,493.32766 C 212.0591,485.21872 214.72047,478.3767 219.49284,473.97704 L 221.12923,472.46844 L 233.682,488.58283 L 246.23478,504.69722 L 245.21952,506.45575 C 243.81718,508.8847 244.07084,512.0704 246.05254,516.91749 C 248.53966,523.00079 268.27193,548.70275 273.56577,552.75442 C 277.72586,555.93837 280.28512,556.86788 283.36104,556.31202 L 285.53918,555.9184 L 297.81812,571.92023 C 304.57154,580.72124 310.03151,588.09451 309.95137,588.3053 z"
         style="opacity:0.32000002;fill:#ffffff;fill-opacity:0" />
      <path
         style="fill:#ffffff;fill-opacity:0"
         d="M 330.6064,570.10592 C 330.02996,571.62486 324.05867,577.27138 321.27265,578.93202 L 318.1928,580.7678 L 305.5209,564.25386 L 292.84899,547.73994 L 295.03019,545.47895 C 297.16481,543.26622 303.56985,538.96795 305.65197,538.35092 C 306.55595,538.08302 308.37761,540.22382 318.77007,553.7672 C 325.40765,562.41724 330.73401,569.76967 330.6064,570.10592 z M 267.18093,487.71856 C 266.70464,488.9736 259.16932,495.39752 256.71354,496.64209 L 254.48238,497.7728 L 241.99299,481.20322 L 229.50359,464.63363 L 233.80379,461.08656 C 236.16891,459.13567 239.27042,457.05802 240.69603,456.46955 L 243.28805,455.39961 L 255.38455,471.16367 C 263.49505,481.73321 267.38216,487.18832 267.18093,487.71856 z M 315.95137,582.3053 C 315.87124,582.51609 314.475,583.36418 312.84862,584.18996 C 300.06756,590.67941 279.5256,583.04036 260.18672,564.60633 C 253.34174,558.0816 239.22165,540.60297 233.64357,531.74972 C 222.87902,514.66478 217.81677,500.32102 217.96598,487.32766 C 218.0591,479.21872 220.72047,472.3767 225.49284,467.97704 L 227.12923,466.46844 L 239.682,482.58283 L 252.23478,498.69722 L 251.21952,500.45575 C 249.81718,502.8847 250.07084,506.0704 252.05254,510.91749 C 254.53966,517.00079 274.27193,542.70275 279.56577,546.75442 C 283.72586,549.93837 286.28512,550.86788 289.36104,550.31202 L 291.53918,549.9184 L 303.81812,565.92023 C 310.57154,574.72124 316.03151,582.09451 315.95137,582.3053 z"
         id="path3791" />
    </g>
    <path
       style="fill:url(#linearGradient3809);fill-opacity:1;stroke:none"
       d="M 15.781409,8.8932418 L 15.147265,9.1595828 C 14.800922,9.3025468 14.047716,9.8017188 13.473126,10.275675 L 12.43313,11.138111 L 15.464337,15.171264 L 17.075062,17.301987 C 17.747797,15.999549 18.559669,14.800815 19.472125,13.712734 C 19.228486,13.391198 19.010941,13.097624 18.723835,12.72347 L 15.781409,8.8932418 z M 11.862401,11.582011 L 11.456549,11.949814 C 10.297132,13.018684 9.6528374,14.685146 9.6302154,16.655161 C 9.5939664,19.811816 10.819898,23.297608 13.435077,27.448286 C 13.79323,28.016729 14.303805,28.729545 14.880925,29.502911 C 14.795272,28.716428 14.741413,27.918333 14.741413,27.105848 C 14.741413,23.783816 15.470787,20.649097 16.770672,17.910765 L 14.90629,15.501019 L 11.862401,11.582011 z"
       id="path3798" />
  </g>
</svg>
