<?xml version="1.0" encoding="UTF-8" standalone="no"?>
<!-- Created with Inkscape (http://www.inkscape.org/) -->
<svg
   xmlns:dc="http://purl.org/dc/elements/1.1/"
   xmlns:cc="http://creativecommons.org/ns#"
   xmlns:rdf="http://www.w3.org/1999/02/22-rdf-syntax-ns#"
   xmlns:svg="http://www.w3.org/2000/svg"
   xmlns="http://www.w3.org/2000/svg"
   xmlns:xlink="http://www.w3.org/1999/xlink"
   xmlns:sodipodi="http://sodipodi.sourceforge.net/DTD/sodipodi-0.dtd"
   xmlns:inkscape="http://www.inkscape.org/namespaces/inkscape"
   width="24"
   height="24"
   id="svg2"
   sodipodi:version="0.32"
   inkscape:version="0.46"
   version="1.0"
   sodipodi:docbase="/home/plbeaudoin/SFLPhone/sflphone/sflphone-gtk/pixmaps"
   sodipodi:docname="mailbox.svg"
   inkscape:output_extension="org.inkscape.output.svg.inkscape"
   sodipodi:modified="true">
  <defs
     id="defs4">
    <linearGradient
       inkscape:collect="always"
       id="linearGradient2542">
      <stop
         style="stop-color:#008000;stop-opacity:1;"
         offset="0"
         id="stop2544" />
      <stop
         style="stop-color:#008000;stop-opacity:0;"
         offset="1"
         id="stop2546" />
    </linearGradient>
    <radialGradient
       inkscape:collect="always"
       xlink:href="#linearGradient2378"
       id="radialGradient6283"
       gradientUnits="userSpaceOnUse"
       cx="38.658855"
       cy="9.3411446"
       fx="38.658855"
       fy="9.3411446"
       r="8.341651" />
    <linearGradient
       inkscape:collect="always"
       id="linearGradient6984">
      <stop
         style="stop-color:#babdb6;stop-opacity:1;"
         offset="0"
         id="stop6986" />
      <stop
         style="stop-color:#babdb6;stop-opacity:0;"
         offset="1"
         id="stop6988" />
    </linearGradient>
    <linearGradient
       inkscape:collect="always"
       xlink:href="#linearGradient6984"
       id="linearGradient6335"
       gradientUnits="userSpaceOnUse"
       gradientTransform="matrix(0.4012864,0,0,0.2705794,6.757826,-10.140964)"
       x1="14.125"
       y1="79.81311"
       x2="14.125"
       y2="76.624176" />
    <radialGradient
       inkscape:collect="always"
       xlink:href="#linearGradient6945"
       id="radialGradient6338"
       gradientUnits="userSpaceOnUse"
       gradientTransform="matrix(1.0466849,0,0,0.5986706,-3.652096,-30.756483)"
       cx="13.107393"
       cy="61.48016"
       fx="13.107393"
       fy="61.48016"
       r="18.5" />
    <linearGradient
       inkscape:collect="always"
       id="linearGradient6932">
      <stop
         style="stop-color:#000000;stop-opacity:1;"
         offset="0"
         id="stop6934" />
      <stop
         style="stop-color:#000000;stop-opacity:0;"
         offset="1"
         id="stop10860" />
    </linearGradient>
    <linearGradient
       inkscape:collect="always"
       xlink:href="#linearGradient6932"
       id="linearGradient6364"
       gradientUnits="userSpaceOnUse"
       x1="32.625"
       y1="68.4375"
       x2="32.625"
       y2="58.838387" />
    <linearGradient
       inkscape:collect="always"
       id="linearGradient7088">
      <stop
         style="stop-color:#ffffff;stop-opacity:1;"
         offset="0"
         id="stop7090" />
      <stop
         style="stop-color:#ffffff;stop-opacity:0;"
         offset="1"
         id="stop7092" />
    </linearGradient>
    <linearGradient
       inkscape:collect="always"
       xlink:href="#linearGradient7088"
       id="linearGradient7351"
       gradientUnits="userSpaceOnUse"
       gradientTransform="matrix(0.4012507,0,0,0.2842508,6.356883,-0.2587693)"
       x1="9.9965248"
       y1="21.246521"
       x2="9.9965248"
       y2="25.371557" />
    <linearGradient
       inkscape:collect="always"
       id="linearGradient7059">
      <stop
         style="stop-color:#babdb6;stop-opacity:1"
         offset="0"
         id="stop7061" />
      <stop
         style="stop-color:#babdb6;stop-opacity:0"
         offset="1"
         id="stop7063" />
    </linearGradient>
    <linearGradient
       inkscape:collect="always"
       xlink:href="#linearGradient7059"
       id="linearGradient7356"
       gradientUnits="userSpaceOnUse"
       x1="9.0107775"
       y1="19.584124"
       x2="9.0107775"
       y2="24.779999"
       gradientTransform="matrix(0.4097916,0,0,0.2742861,6.147632,-0.2598906)" />
    <linearGradient
       inkscape:collect="always"
       id="linearGradient7067">
      <stop
         style="stop-color:#ffffff;stop-opacity:1"
         offset="0"
         id="stop7069" />
      <stop
         style="stop-color:#eeeeec;stop-opacity:1"
         offset="1"
         id="stop7071" />
    </linearGradient>
    <radialGradient
       inkscape:collect="always"
       xlink:href="#linearGradient7067"
       id="radialGradient7354"
       gradientUnits="userSpaceOnUse"
       gradientTransform="matrix(0.6113826,0,0,0.3630152,1.435442,-2.6744773)"
       cx="26.762928"
       cy="25.349953"
       fx="26.762928"
       fy="25.349953"
       r="15.5" />
    <linearGradient
       inkscape:collect="always"
       id="linearGradient7002">
      <stop
         style="stop-color:#000000;stop-opacity:1;"
         offset="0"
         id="stop7004" />
      <stop
         style="stop-color:#000000;stop-opacity:0;"
         offset="1"
         id="stop7006" />
    </linearGradient>
    <linearGradient
       inkscape:collect="always"
       xlink:href="#linearGradient7002"
       id="linearGradient6357"
       gradientUnits="userSpaceOnUse"
       gradientTransform="matrix(0.4012864,0,0,0.3083575,6.35654,-0.4859523)"
       x1="15.75"
       y1="24.561808"
       x2="15.75"
       y2="35.853024" />
    <radialGradient
       inkscape:collect="always"
       xlink:href="#linearGradient6945"
       id="radialGradient6362"
       gradientUnits="userSpaceOnUse"
       gradientTransform="matrix(1.0466849,0,0,-0.5986706,-3.652096,46.20464)"
       cx="13.107393"
       cy="61.48016"
       fx="13.107393"
       fy="61.48016"
       r="18.5" />
    <radialGradient
       inkscape:collect="always"
       xlink:href="#linearGradient5060"
       id="radialGradient6226"
       gradientUnits="userSpaceOnUse"
       gradientTransform="matrix(-2.774389,0,0,1.969706,112.7623,-872.8854)"
       cx="605.71429"
       cy="486.64789"
       fx="605.71429"
       fy="486.64789"
       r="117.14286" />
    <linearGradient
       id="linearGradient5060"
       inkscape:collect="always">
      <stop
         id="stop5062"
         offset="0"
         style="stop-color:black;stop-opacity:1;" />
      <stop
         id="stop5064"
         offset="1"
         style="stop-color:black;stop-opacity:0;" />
    </linearGradient>
    <radialGradient
       inkscape:collect="always"
       xlink:href="#linearGradient5060"
       id="radialGradient6224"
       gradientUnits="userSpaceOnUse"
       gradientTransform="matrix(2.774389,0,0,1.969706,-1891.633,-872.8854)"
       cx="605.71429"
       cy="486.64789"
       fx="605.71429"
       fy="486.64789"
       r="117.14286" />
    <linearGradient
       id="linearGradient5048">
      <stop
         id="stop5050"
         offset="0"
         style="stop-color:black;stop-opacity:0;" />
      <stop
         style="stop-color:black;stop-opacity:1;"
         offset="0.5"
         id="stop5056" />
      <stop
         id="stop5052"
         offset="1"
         style="stop-color:black;stop-opacity:0;" />
    </linearGradient>
    <linearGradient
       inkscape:collect="always"
       xlink:href="#linearGradient5048"
       id="linearGradient6222"
       gradientUnits="userSpaceOnUse"
       gradientTransform="matrix(2.774389,0,0,1.969706,-1892.179,-872.8854)"
       x1="302.85715"
       y1="366.64789"
       x2="302.85715"
       y2="609.50507" />
    <linearGradient
       inkscape:collect="always"
       id="linearGradient6968">
      <stop
         style="stop-color:#ffffff;stop-opacity:1;"
         offset="0"
         id="stop6970" />
      <stop
         style="stop-color:#ffffff;stop-opacity:0;"
         offset="1"
         id="stop6972" />
    </linearGradient>
    <linearGradient
       inkscape:collect="always"
       xlink:href="#linearGradient6968"
       id="linearGradient6974"
       x1="14.75"
       y1="73"
       x2="15.375"
       y2="82"
       gradientUnits="userSpaceOnUse" />
    <linearGradient
       id="linearGradient2378">
      <stop
         id="stop2380"
         offset="0"
         style="stop-color:#ffffff;stop-opacity:1;" />
      <stop
         style="stop-color:#fefede;stop-opacity:0.91836733;"
         offset="0.25"
         id="stop4146" />
      <stop
         style="stop-color:#f5f328;stop-opacity:1;"
         offset="0.5"
         id="stop2386" />
      <stop
         id="stop2382"
         offset="1"
         style="stop-color:#f5f32d;stop-opacity:0.12234043;" />
    </linearGradient>
    <linearGradient
       id="linearGradient6945"
       inkscape:collect="always">
      <stop
         id="stop6947"
         offset="0"
         style="stop-color:#ffffff;stop-opacity:1" />
      <stop
         id="stop6949"
         offset="1"
         style="stop-color:#d3d7cf;stop-opacity:1" />
    </linearGradient>
    <inkscape:perspective
       sodipodi:type="inkscape:persp3d"
       inkscape:vp_x="0 : 12 : 1"
       inkscape:vp_y="0 : 1000 : 0"
       inkscape:vp_z="24 : 12 : 1"
       inkscape:persp3d-origin="12 : 8 : 1"
       id="perspective6815" />
    <linearGradient
       id="linearGradient4045">
      <stop
         style="stop-color:#ffffff;stop-opacity:0"
         offset="0"
         id="stop4047" />
      <stop
         style="stop-color:#fefee7;stop-opacity:0.89308178"
         offset="1"
         id="stop4049" />
    </linearGradient>
    <linearGradient
       id="linearGradient4269">
      <stop
         style="stop-color:#1db000;stop-opacity:1;"
         offset="0"
         id="stop4271" />
      <stop
         style="stop-color:#1db000;stop-opacity:0;"
         offset="1"
         id="stop4273" />
    </linearGradient>
    <linearGradient
       id="linearGradient4183">
      <stop
         id="stop4185"
         offset="0"
         style="stop-color:#1db000;stop-opacity:1;" />
      <stop
         id="stop4187"
         offset="1"
         style="stop-color:#0f5f00;stop-opacity:1;" />
    </linearGradient>
    <linearGradient
       id="linearGradient4167">
      <stop
         style="stop-color:#80000e;stop-opacity:1;"
         offset="0"
         id="stop4169" />
      <stop
         style="stop-color:#b00014;stop-opacity:0;"
         offset="1"
         id="stop4171" />
    </linearGradient>
    <linearGradient
       inkscape:collect="always"
       xlink:href="#linearGradient4183"
       id="linearGradient2224"
       x1="16.826796"
       y1="6.7288713"
       x2="27.5625"
       y2="22.512505"
       gradientUnits="userSpaceOnUse"
       gradientTransform="matrix(0.875025,0,0,0.875025,0.666703,0.177907)" />
    <linearGradient
       y2="13.920053"
       x2="6.8378897"
       y1="12.625902"
       x1="2.0651877"
       gradientTransform="matrix(-1,0,0,1,32.04188,-2.86473)"
       gradientUnits="userSpaceOnUse"
       id="linearGradient1388"
       xlink:href="#linearGradient4269"
       inkscape:collect="always" />
    <linearGradient
       gradientTransform="translate(0.426158,-2.762136)"
       gradientUnits="userSpaceOnUse"
       y2="13.920053"
       x2="6.8378897"
       y1="12.625902"
       x1="2.0651877"
       id="linearGradient1386"
       xlink:href="#linearGradient4269"
       inkscape:collect="always" />
    <linearGradient
       gradientUnits="userSpaceOnUse"
       y2="10.576721"
       x2="14.013638"
       y1="2.7028866"
       x1="15.647213"
       id="linearGradient1384"
       xlink:href="#linearGradient4183"
       inkscape:collect="always" />
    <linearGradient
       gradientTransform="translate(-0.947018,-0.885198)"
       gradientUnits="userSpaceOnUse"
       y2="12.535715"
       x2="31.31678"
       y1="12.535715"
       x1="24.397505"
       id="linearGradient1382"
       xlink:href="#linearGradient4183"
       inkscape:collect="always" />
    <linearGradient
       gradientTransform="translate(1.262691,-1.100752)"
       gradientUnits="userSpaceOnUse"
       y2="12.825893"
       x2="7.9239235"
       y1="12.825893"
       x1="1.0046476"
       id="linearGradient1380"
       xlink:href="#linearGradient4183"
       inkscape:collect="always" />
    <linearGradient
       id="linearGradient1374">
      <stop
         id="stop1376"
         offset="0"
         style="stop-color:#80000e;stop-opacity:1;" />
      <stop
         id="stop1378"
         offset="1"
         style="stop-color:#b00014;stop-opacity:0;" />
    </linearGradient>
    <linearGradient
       id="linearGradient1368">
      <stop
         style="stop-color:#26b000;stop-opacity:1;"
         offset="0"
         id="stop1370" />
      <stop
         style="stop-color:#145f00;stop-opacity:1;"
         offset="1"
         id="stop1372" />
    </linearGradient>
    <linearGradient
       id="linearGradient1362">
      <stop
         id="stop1364"
         offset="0"
         style="stop-color:#26b000;stop-opacity:1;" />
      <stop
         id="stop1366"
         offset="1"
         style="stop-color:#26b000;stop-opacity:0;" />
    </linearGradient>
    <linearGradient
       inkscape:collect="always"
       xlink:href="#linearGradient4183"
       id="linearGradient1406"
       gradientUnits="userSpaceOnUse"
       x1="15.647213"
       y1="2.7028866"
       x2="14.013638"
       y2="10.576721" />
    <linearGradient
       inkscape:collect="always"
       xlink:href="#linearGradient4183"
       id="linearGradient1408"
       gradientUnits="userSpaceOnUse"
       gradientTransform="translate(1.262691,-1.100752)"
       x1="10.57493"
       y1="12.115559"
       x2="-0.68574232"
       y2="12.115559" />
    <linearGradient
       inkscape:collect="always"
       xlink:href="#linearGradient4183"
       id="linearGradient1410"
       gradientUnits="userSpaceOnUse"
       gradientTransform="translate(-0.947018,-0.885198)"
       x1="31.692968"
       y1="11.264216"
       x2="23.888865"
       y2="13.35532" />
    <linearGradient
       inkscape:collect="always"
       xlink:href="#linearGradient4269"
       id="linearGradient1412"
       gradientUnits="userSpaceOnUse"
       gradientTransform="translate(0.426158,-2.762136)"
       x1="7.8517423"
       y1="15.912388"
       x2="7.1114841"
       y2="11.597325" />
    <linearGradient
       inkscape:collect="always"
       xlink:href="#linearGradient4269"
       id="linearGradient1414"
       gradientUnits="userSpaceOnUse"
       gradientTransform="matrix(-1,0,0,1,32.04188,-2.86473)"
       x1="2.0651877"
       y1="12.625902"
       x2="6.8378897"
       y2="13.920053" />
    <linearGradient
       gradientTransform="matrix(1.256521,0,0,-1.256521,-7.854319,28.773309)"
       gradientUnits="userSpaceOnUse"
       y2="8.5305319"
       x2="15.630395"
       y1="22.874208"
       x1="15.630395"
       id="linearGradient2444"
       xlink:href="#linearGradient4269"
       inkscape:collect="always" />
    <linearGradient
       y2="13.920053"
       x2="6.8378897"
       y1="12.625902"
       x1="2.0651877"
       gradientTransform="matrix(-1,0,0,1,31.179578,-2.86473)"
       gradientUnits="userSpaceOnUse"
       id="linearGradient2442"
       xlink:href="#linearGradient4269"
       inkscape:collect="always" />
    <linearGradient
       gradientTransform="translate(1.1362892,-2.762136)"
       gradientUnits="userSpaceOnUse"
       y2="13.920053"
       x2="6.8378897"
       y1="12.625902"
       x1="2.0651877"
       id="linearGradient2440"
       xlink:href="#linearGradient4269"
       inkscape:collect="always" />
    <linearGradient
       gradientUnits="userSpaceOnUse"
       y2="10.576721"
       x2="14.013638"
       y1="2.7028866"
       x1="15.647213"
       id="linearGradient2438"
       xlink:href="#linearGradient4183"
       inkscape:collect="always" />
    <linearGradient
       gradientTransform="translate(-1.9107675,-0.885198)"
       gradientUnits="userSpaceOnUse"
       y2="12.535715"
       x2="31.31678"
       y1="12.535715"
       x1="24.397505"
       id="linearGradient2436"
       xlink:href="#linearGradient4183"
       inkscape:collect="always" />
    <linearGradient
       gradientTransform="translate(1.9220986,-1.100752)"
       gradientUnits="userSpaceOnUse"
       y2="12.825893"
       x2="7.9239235"
       y1="12.825893"
       x1="1.0046476"
       id="linearGradient2434"
       xlink:href="#linearGradient4183"
       inkscape:collect="always" />
    <linearGradient
       id="linearGradient2428">
      <stop
         id="stop2430"
         offset="0"
         style="stop-color:#80000e;stop-opacity:1;" />
      <stop
         id="stop2432"
         offset="1"
         style="stop-color:#b00014;stop-opacity:0;" />
    </linearGradient>
    <linearGradient
       id="linearGradient2422">
      <stop
         style="stop-color:#26b000;stop-opacity:1;"
         offset="0"
         id="stop2424" />
      <stop
         style="stop-color:#145f00;stop-opacity:1;"
         offset="1"
         id="stop2426" />
    </linearGradient>
    <linearGradient
       id="linearGradient2416">
      <stop
         id="stop2418"
         offset="0"
         style="stop-color:#26b000;stop-opacity:1;" />
      <stop
         id="stop2420"
         offset="1"
         style="stop-color:#26b000;stop-opacity:0;" />
    </linearGradient>
    <linearGradient
       inkscape:collect="always"
       xlink:href="#linearGradient2542"
       id="linearGradient2548"
       x1="-2.1546042"
       y1="-7.1975217"
       x2="25.153345"
       y2="24.96549"
       gradientUnits="userSpaceOnUse" />
    <linearGradient
       inkscape:collect="always"
       xlink:href="#linearGradient2542"
       id="linearGradient6010"
       gradientUnits="userSpaceOnUse"
       x1="-2.1546042"
       y1="-7.1975217"
       x2="25.153345"
       y2="24.96549" />
    <linearGradient
       inkscape:collect="always"
       xlink:href="#linearGradient2542"
       id="linearGradient6012"
       gradientUnits="userSpaceOnUse"
       x1="-2.1546042"
       y1="-7.1975217"
       x2="25.153345"
       y2="24.96549" />
    <linearGradient
       inkscape:collect="always"
       xlink:href="#linearGradient2542"
       id="linearGradient6014"
       gradientUnits="userSpaceOnUse"
       x1="-2.1546042"
       y1="-7.1975217"
       x2="25.153345"
       y2="24.96549" />
    <linearGradient
       inkscape:collect="always"
       xlink:href="#linearGradient2542"
       id="linearGradient6016"
       gradientUnits="userSpaceOnUse"
       x1="-2.1546042"
       y1="-7.1975217"
       x2="25.153345"
       y2="24.96549" />
    <linearGradient
       inkscape:collect="always"
       xlink:href="#linearGradient2542"
       id="linearGradient6018"
       gradientUnits="userSpaceOnUse"
       x1="-2.1546042"
       y1="-7.1975217"
       x2="25.153345"
       y2="24.96549" />
    <linearGradient
       inkscape:collect="always"
       xlink:href="#linearGradient2542"
       id="linearGradient6020"
       gradientUnits="userSpaceOnUse"
       x1="-2.1546042"
       y1="-7.1975217"
       x2="25.153345"
       y2="24.96549" />
    <linearGradient
       inkscape:collect="always"
       xlink:href="#linearGradient2542"
       id="linearGradient6022"
       gradientUnits="userSpaceOnUse"
       x1="-2.1546042"
       y1="-7.1975217"
       x2="25.153345"
       y2="24.96549" />
    <linearGradient
       inkscape:collect="always"
       xlink:href="#linearGradient2542"
       id="linearGradient6024"
       gradientUnits="userSpaceOnUse"
       x1="-2.1546042"
       y1="-7.1975217"
       x2="25.153345"
       y2="24.96549" />
  </defs>
  <sodipodi:namedview
     id="base"
     pagecolor="#ffffff"
     bordercolor="#666666"
     borderopacity="1.0"
     inkscape:pageopacity="0.0"
     inkscape:pageshadow="2"
     inkscape:zoom="8"
     inkscape:cx="22.991745"
     inkscape:cy="-2.9160694"
     inkscape:document-units="px"
     inkscape:current-layer="layer1"
     width="32px"
     height="32px"
     showguides="true"
     inkscape:guide-bbox="true"
     inkscape:window-width="1014"
     inkscape:window-height="722"
     inkscape:window-x="412"
     inkscape:window-y="135"
     showgrid="false">
    <sodipodi:guide
       orientation="vertical"
       position="16.5,12.125"
       id="guide3146" />
  </sodipodi:namedview>
  <metadata
     id="metadata7">
    <rdf:RDF>
      <cc:Work
         rdf:about="">
        <dc:format>image/svg+xml</dc:format>
        <dc:type
           rdf:resource="http://purl.org/dc/dcmitype/StillImage" />
      </cc:Work>
    </rdf:RDF>
  </metadata>
  <g
     inkscape:label="Calque 1"
     inkscape:groupmode="layer"
     id="layer1">
    <g
       id="g2446"
       inkscape:label="Calque 1"
       transform="matrix(1.0000089,0,0,0.9411362,19.312133,1.5877181)"
       style="fill:url(#linearGradient2548);fill-opacity:1">
      <g
         style="fill:url(#linearGradient6012);fill-opacity:1;stroke:#000000;stroke-opacity:0.44968555"
         transform="matrix(-0.4376782,-0.758081,0.7581751,-0.4377326,3.5952686,30.820492)"
         id="g2181">
        <path
           sodipodi:nodetypes="csccczccsccccc"
           id="path2183"
           d="M 41.109694,-0.41817229 C 40.505298,0.20454826 39.040867,0.77635346 37.592239,0.77635106 C 36.102089,0.77635106 34.114653,0.15682998 33.532659,-0.49267807 L 33.569913,-2.0031726 L 33.569913,-3.0835065 C 31.027414,-3.5787101 30.997014,-3.8285637 27.525623,-3.8285643 C 24.054233,-3.8285649 23.830777,-3.5759718 21.29017,-3.0462535 L 21.29017,-0.3436665 C 20.685773,0.27905404 19.221343,0.87609843 17.772714,0.87609724 C 16.282564,0.87609724 14.623294,0.43325774 13.915083,-0.41817229 L 14.138601,-5.7646408 C 18.129172,-7.3187814 22.030595,-8.3970767 27.437882,-8.5586077 C 32.38601,-8.450833 36.259126,-7.7053161 40.886177,-5.8763994 L 41.109694,-0.41817229 z"
           style="opacity:1;fill:url(#linearGradient6010);fill-opacity:1;stroke:#000000;stroke-width:0.65573961;stroke-linejoin:miter;stroke-miterlimit:4;stroke-dasharray:none;stroke-dashoffset:0;stroke-opacity:0.44968555" />
      </g>
      <g
         transform="matrix(-0.4400595,-0.7622054,0.7622054,-0.4400595,-10.917299,27.830684)"
         id="g2451"
         style="fill:url(#linearGradient6024);fill-opacity:1">
        <path
           style="opacity:1;fill:url(#linearGradient6014);fill-opacity:1;stroke:#0f5600;stroke-width:0.625;stroke-linejoin:miter;stroke-miterlimit:4;stroke-dasharray:none;stroke-dashoffset:0;stroke-opacity:1"
           d="M 16.100095,4.59375 C 10.946289,4.7477067 7.2256019,5.7999634 3.4220983,7.28125 L 3.2345983,10.227679 C 3.7846813,10.972881 5.0136533,11.508929 6.4220983,11.508929 C 7.7912983,11.508929 8.9758403,11.004648 9.5470983,10.290179 L 9.5470983,9.1875 C 11.968608,8.682612 12.862258,8.4375 16.125,8.4375 C 19.479577,8.4375001 20.38467,8.6842603 22.807982,9.15625 L 22.807982,10.165179 C 23.37924,10.879648 24.563781,11.383929 25.932982,11.383929 C 27.341427,11.383929 28.53915,10.847881 29.089232,10.102679 L 28.901732,7.15625 C 24.491586,5.413068 20.816266,4.6964725 16.100095,4.59375 z"
           id="path2453"
           sodipodi:nodetypes="cccsccsccsccc" />
        <path
           style="opacity:1;fill:url(#linearGradient6016);fill-opacity:1;stroke:#0f5600;stroke-width:0.57204324;stroke-linejoin:miter;stroke-miterlimit:4;stroke-dasharray:none;stroke-dashoffset:0;stroke-opacity:1"
           d="M 6.4075414,13.019293 C 7.7882612,13.019293 8.983936,12.610489 9.5600003,12.01696 L 9.5600003,10.430989 C 8.8231919,11.109285 7.789205,11.494948 6.4075414,11.494948 C 4.9854414,11.494948 3.9881276,11.13019 3.2127675,10.48174 L 3.2127675,11.966208 C 3.7674786,12.585269 4.9872465,13.019293 6.4075414,13.019293 z"
           id="path2455"
           sodipodi:nodetypes="cccsccc" />
        <path
           style="opacity:1;fill:url(#linearGradient6018);fill-opacity:1;stroke:#0f5600;stroke-width:0.57204324;stroke-linejoin:miter;stroke-miterlimit:4;stroke-dasharray:none;stroke-dashoffset:0;stroke-opacity:1"
           d="M 25.967532,12.944669 C 27.348252,12.944669 28.543927,12.535865 29.119991,11.942336 L 29.119991,10.356365 C 28.383183,11.034661 27.349196,11.420324 25.967532,11.420324 C 24.545432,11.420324 23.548118,11.055566 22.772758,10.407116 L 22.772758,11.891584 C 23.327469,12.510645 24.547237,12.944669 25.967532,12.944669 z"
           id="path2457"
           sodipodi:nodetypes="cccsccc" />
        <path
           style="opacity:1;fill:url(#linearGradient6020);fill-opacity:1;stroke:none;stroke-width:0.57204324;stroke-linejoin:miter;stroke-miterlimit:4;stroke-dasharray:none;stroke-dashoffset:0;stroke-opacity:1"
           d="M 6.6822725,11.157918 C 8.0629923,11.157918 8.7535908,10.73333 9.3296551,10.139801 L 9.0644746,7.3100024 C 8.3276662,7.9882984 8.1270706,8.5445024 6.745407,8.5445024 C 5.323307,8.5445024 4.4996132,8.1797444 3.7242531,7.5312944 L 3.4874986,10.104833 C 4.0422097,10.723894 5.2619776,11.157918 6.6822725,11.157918 z"
           id="path2459"
           sodipodi:nodetypes="cccsccc" />
        <path
           style="opacity:1;fill:url(#linearGradient6022);fill-opacity:1;stroke:none;stroke-width:0.57204324;stroke-linejoin:miter;stroke-miterlimit:4;stroke-dasharray:none;stroke-dashoffset:0;stroke-opacity:1"
           d="M 25.633599,11.055324 C 24.252879,11.055324 23.56228,10.630736 22.986216,10.037207 L 22.418005,7.3779497 C 23.154814,8.0562457 24.188801,8.4419087 25.570464,8.4419087 C 26.992564,8.4419087 27.816258,8.0771507 28.591618,7.4287007 L 28.828373,10.002239 C 28.273662,10.6213 27.053894,11.055324 25.633599,11.055324 z"
           id="path2461"
           sodipodi:nodetypes="cccsccc" />
      </g>
    </g>
    <path
       sodipodi:type="inkscape:offset"
       inkscape:radius="-1.0012817"
       inkscape:original="M 23.5 66.5 C 18.5 66.5 17.5 67.5 16.5 68.5 L 5.90625 79.09375 C 6.161869 79.349369 6.514512 79.499999 6.90625 79.5 L 40.09375 79.5 C 40.485487 79.5 40.83813 79.349369 41.09375 79.09375 L 30.5 68.5 C 29.5 67.5 28.5 66.5 23.5 66.5 z "
       style="fill:none;fill-opacity:1;fill-rule:evenodd;stroke:url(#linearGradient6974);stroke-width:1px;stroke-linecap:butt;stroke-linejoin:miter;stroke-opacity:1"
       id="path6922"
       d="M 23.5,67.5 C 21.066752,67.5 19.672512,67.751714 18.84375,68.0625 C 18.014988,68.373286 17.71875,68.71875 17.21875,69.21875 L 7.9375,78.5 L 39.0625,78.5 L 29.78125,69.21875 C 29.28125,68.71875 28.985012,68.373286 28.15625,68.0625 C 27.327488,67.751714 25.933248,67.5 23.5,67.5 z"
       transform="matrix(0.4502137,0,0,0.3127812,14.307693,37.985654)" />
    <g
       style="opacity:0.7;display:inline"
       id="g6055"
       transform="matrix(8.6952354e-3,0,0,4.3474898e-3,24.921352,10.188454)">
      <rect
         y="-150.69685"
         x="-1559.2523"
         height="478.35718"
         width="1339.6335"
         id="rect6057"
         style="opacity:0.39195981;fill:url(#linearGradient6222);fill-opacity:1;fill-rule:nonzero;stroke:none;stroke-width:1;stroke-linecap:round;stroke-linejoin:miter;marker:none;marker-start:none;marker-mid:none;marker-end:none;stroke-miterlimit:4;stroke-dasharray:none;stroke-dashoffset:0;stroke-opacity:1;visibility:visible;display:inline;overflow:visible" />
      <path
         sodipodi:nodetypes="cccc"
         id="path6059"
         d="M -219.61876,-150.68038 C -219.61876,-150.68038 -219.61876,327.65041 -219.61876,327.65041 C -76.744594,328.55086 125.78146,220.48075 125.78138,88.454235 C 125.78138,-43.572302 -33.655436,-150.68036 -219.61876,-150.68038 z"
         style="opacity:0.40206185;fill:url(#radialGradient6224);fill-opacity:1;fill-rule:nonzero;stroke:none;stroke-width:1;stroke-linecap:round;stroke-linejoin:miter;marker:none;marker-start:none;marker-mid:none;marker-end:none;stroke-miterlimit:4;stroke-dasharray:none;stroke-dashoffset:0;stroke-opacity:1;visibility:visible;display:inline;overflow:visible" />
      <path
         style="opacity:0.40206185;fill:url(#radialGradient6226);fill-opacity:1;fill-rule:nonzero;stroke:none;stroke-width:1;stroke-linecap:round;stroke-linejoin:miter;marker:none;marker-start:none;marker-mid:none;marker-end:none;stroke-miterlimit:4;stroke-dasharray:none;stroke-dashoffset:0;stroke-opacity:1;visibility:visible;display:inline;overflow:visible"
         d="M -1559.2523,-150.68038 C -1559.2523,-150.68038 -1559.2523,327.65041 -1559.2523,327.65041 C -1702.1265,328.55086 -1904.6525,220.48075 -1904.6525,88.454235 C -1904.6525,-43.572302 -1745.2157,-150.68036 -1559.2523,-150.68038 z"
         id="path6061"
         sodipodi:nodetypes="cccc" />
    </g>
    <path
       style="fill:url(#radialGradient6362);fill-opacity:1;fill-rule:evenodd;stroke:none;stroke-width:0.99999988;stroke-linecap:butt;stroke-linejoin:round;stroke-miterlimit:4;stroke-dashoffset:0.69999992;stroke-opacity:0.99236642"
       d="M 16.188056,1.113594 C 13.97187,1.113594 13.780337,1.3834096 13.379051,1.6532259 L 8.964902,4.621197 L 8.964902,5.000626 L 8.964902,5.051216 L 8.964902,10.987159 C 8.964902,11.198554 9.214813,11.366588 9.52921,11.366588 L 22.846901,11.366588 C 23.161299,11.366588 23.41121,11.198553 23.41121,10.987159 L 23.41121,5.051216 L 23.41121,5.000626 L 23.41121,4.621197 L 18.997061,1.6532259 C 18.595773,1.3834096 18.395131,1.113594 16.188056,1.113594 z"
       id="rect5931" />
    <path
       style="fill:none;fill-opacity:1;fill-rule:evenodd;stroke:#888a85;stroke-width:0.30473173;stroke-linecap:butt;stroke-linejoin:round;stroke-miterlimit:4;stroke-dashoffset:0.69999992;stroke-opacity:0.99236642"
       d="M 23.41121,5.321032 L 23.41121,4.621197 L 18.997061,1.6532259 C 18.595773,1.3834096 18.395131,1.113594 16.188056,1.113594 C 13.97187,1.113594 13.780337,1.3834096 13.379052,1.6532259 L 8.964902,4.621197 L 8.964902,5.321032"
       id="path7161"
       sodipodi:nodetypes="ccccccc" />
    <path
       sodipodi:type="inkscape:offset"
       inkscape:radius="-0.98534405"
       inkscape:original="M 24.5 4.5 C 18.977297 4.5 18.5 5.499998 17.5 6.5 L 6.5 17.5 L 6.5 18.90625 L 6.5 19.09375 L 6.5 41.09375 C 6.5 41.877225 7.1227756 42.500002 7.90625 42.5 L 41.09375 42.5 C 41.877224 42.5 42.5 41.877224 42.5 41.09375 L 42.5 19.09375 L 42.5 18.90625 L 42.5 17.5 L 31.5 6.5 C 30.5 5.5 30 4.499998 24.5 4.5 z "
       style="fill:none;fill-opacity:1;fill-rule:evenodd;stroke:#ffffff;stroke-width:0.93754596;stroke-linecap:butt;stroke-linejoin:round;stroke-miterlimit:4;stroke-dashoffset:0.69999992;stroke-opacity:0.99236642"
       id="path6064"
       d="M 24.5,5.5 C 21.798121,5.5 20.393246,5.7355566 19.65625,6.03125 C 18.919254,6.3269434 18.748198,6.6268011 18.1875,7.1875 L 7.5,17.875 L 7.5,18.90625 L 7.5,19.09375 L 7.5,41.09375 C 7.5,41.355066 7.6449379,41.500001 7.90625,41.5 L 41.09375,41.5 C 41.355064,41.5 41.5,41.355064 41.5,41.09375 L 41.5,19.09375 L 41.5,18.90625 L 41.5,17.875 L 30.8125,7.1875 C 30.254438,6.6294378 30.053706,6.3277326 29.3125,6.03125 C 28.571294,5.7347674 27.190282,5.499999 24.5,5.5 z"
       transform="matrix(0.3930408,0,0,0.2687896,6.558557,-0.1264191)" />
    <path
       style="opacity:0.07462685;fill:url(#linearGradient6357);fill-opacity:1;fill-rule:evenodd;stroke:none;stroke-width:1px;stroke-linecap:butt;stroke-linejoin:round;stroke-opacity:1"
       d="M 16.188056,6.91463 C 15.171363,6.91463 14.542242,6.991393 14.106382,7.11699 C 13.670523,7.242587 13.441752,7.425347 13.241109,7.579526 L 9.316027,11.135275 C 9.456261,11.243035 9.320187,11.231636 9.52921,11.231636 L 22.846901,11.231636 C 23.055924,11.231636 22.944931,11.146672 23.085164,11.038914 L 19.135002,7.579526 C 18.934358,7.425347 18.705589,7.242587 18.269729,7.11699 C 17.83387,6.991393 17.20475,6.91463 16.188056,6.91463 z"
       id="path7000"
       sodipodi:nodetypes="csccccccsc" />
    <path
       style="fill:url(#radialGradient7354);fill-opacity:1;fill-rule:evenodd;stroke:url(#linearGradient7356);stroke-width:0.30473173;stroke-linecap:butt;stroke-linejoin:miter;stroke-miterlimit:4;stroke-dasharray:none;stroke-dashoffset:0.69999992;stroke-opacity:0.99236642"
       d="M 10.565694,1.7972574 C 10.27826,1.7972574 10.040649,1.9364716 10.040649,2.1144009 L 10.040649,6.374407 L 13.178116,8.474411 C 13.370391,8.603106 13.560773,8.771945 13.984893,8.88584 C 14.409012,8.999736 15.043577,9.06584 16.187523,9.06584 C 17.326866,9.065841 17.965155,8.999626 18.390152,8.88584 C 18.815149,8.772055 19.004106,8.603472 19.196928,8.474411 L 22.334395,6.374407 L 22.334395,2.1144009 C 22.334395,1.9364716 22.096784,1.7972574 21.80935,1.7972574 L 10.565694,1.7972574 z"
       id="rect7037" />
    <path
       style="fill:none;fill-opacity:1;fill-rule:evenodd;stroke:url(#linearGradient7351);stroke-width:0.30473176;stroke-linecap:butt;stroke-linejoin:miter;stroke-miterlimit:4;stroke-dashoffset:0.69999992;stroke-opacity:0.99236642"
       d="M 10.682864,2.157365 C 10.594986,2.157365 10.570012,2.1867693 10.570012,2.201779 L 10.570012,7.060693 L 13.529236,9.157045 C 13.747933,9.311973 13.85466,9.428411 14.181269,9.521241 C 14.517977,9.616942 15.090513,9.690015 16.187522,9.690015 C 17.279895,9.690015 17.856423,9.616835 18.193775,9.521241 C 18.521106,9.428487 18.626148,9.312654 18.845808,9.157045 L 21.805032,7.060693 L 21.805032,2.201779 C 21.805032,2.1867685 21.780059,2.157365 21.69218,2.157365 L 10.682864,2.157365 z"
       id="path7081"
       sodipodi:nodetypes="ccccsssccccc" />
    <rect
       style="fill:#d3d7cf;fill-opacity:1;fill-rule:evenodd;stroke:none;stroke-width:1;stroke-linecap:butt;stroke-linejoin:miter;stroke-miterlimit:4;stroke-dasharray:none;stroke-dashoffset:0.69999992;stroke-opacity:0.99236642"
       id="rect7096"
       width="4.7199154"
       height="0.21114101"
       x="11.467583"
       y="2.7136545"
       rx="0.19307812"
       ry="0.12387425" />
    <rect
       style="fill:#d3d7cf;fill-opacity:1;fill-rule:evenodd;stroke:none;stroke-width:1;stroke-linecap:butt;stroke-linejoin:miter;stroke-miterlimit:4;stroke-dasharray:none;stroke-dashoffset:0.69999992;stroke-opacity:0.99236642"
       id="rect7110"
       width="2.1400123"
       height="0.24408528"
       x="18.862514"
       y="2.6943941"
       rx="0.19022335"
       ry="0.12204266" />
    <g
       id="g7169"
       transform="matrix(0.4012864,0,0,0.2698156,6.35654,-0.1005756)">
      <path
         sodipodi:nodetypes="ccssscccssscc"
         id="path7112"
         d="M 7.09375,21.75 L 17.15625,33.34375 C 17.62545,33.812951 18.090035,34.428507 19.125,34.84375 C 20.159965,35.258993 21.70847,35.5 24.5,35.5 C 27.280303,35.500001 28.837893,35.258593 29.875,34.84375 C 30.912107,34.428907 31.373213,33.814287 31.84375,33.34375 L 41.875,21.875 L 31.84375,31.84375 C 31.373213,32.314287 30.912107,32.928907 29.875,33.34375 C 28.837893,33.758593 27.280303,34.000001 24.5,34 C 21.70847,34 20.159965,33.758993 19.125,33.34375 C 18.090035,32.928507 17.62545,32.312951 17.15625,31.84375 L 7.09375,21.75 z"
         style="opacity:1;fill:#ffffff;fill-opacity:1;fill-rule:evenodd;stroke:none;stroke-width:1px;stroke-linecap:butt;stroke-linejoin:round;stroke-opacity:1" />
      <path
         sodipodi:nodetypes="ccssscccssscc"
         id="path7128"
         d="M 7.09375,21.75 L 17.15625,31.34375 C 17.62545,31.812951 18.090035,32.428507 19.125,32.84375 C 20.159965,33.258993 21.70847,33.5 24.5,33.5 C 27.280303,33.500001 28.837893,33.258593 29.875,32.84375 C 30.912107,32.428907 31.373213,31.814287 31.84375,31.34375 L 41.875,21.875 L 31.84375,31.84375 C 31.373213,32.314287 30.912107,32.928907 29.875,33.34375 C 28.837893,33.758593 27.280303,34.000001 24.5,34 C 21.70847,34 20.159965,33.758993 19.125,33.34375 C 18.090035,32.928507 17.62545,32.312951 17.15625,31.84375 L 7.09375,21.75 z"
         style="opacity:0.3;fill:#000000;fill-opacity:1;fill-rule:evenodd;stroke:none;stroke-width:1px;stroke-linecap:butt;stroke-linejoin:round;stroke-opacity:1" />
      <path
         transform="translate(1,-38)"
         d="M 6.90625,55 C 5.8578131,55 5,55.857811 5,56.90625 L 5,58.5 C 5.0051575,58.6306 5.0612439,58.75399 5.15625,58.84375 L 16.15625,69.84375 C 16.62545,70.312951 17.090035,70.928507 18.125,71.34375 C 19.159965,71.758993 20.70847,72 23.5,72 C 26.280303,72.000001 27.837893,71.758593 28.875,71.34375 C 29.912107,70.928907 30.373213,70.314287 30.84375,69.84375 L 41.84375,58.84375 C 41.938756,58.75399 41.994842,58.6306 42,58.5 L 42,56.90625 C 42,55.857813 41.142189,55 40.09375,55 L 6.90625,55 z"
         id="path6930"
         style="opacity:0.16791047;fill:url(#linearGradient6364);fill-opacity:1;fill-rule:evenodd;stroke:none;stroke-width:1px;stroke-linecap:butt;stroke-linejoin:round;stroke-opacity:1"
         inkscape:original="M 6.90625 55.5 C 6.1227756 55.5 5.5 56.122774 5.5 56.90625 L 5.5 58.5 L 16.5 69.5 C 17.5 70.500002 17.977297 71.5 23.5 71.5 C 29 71.500002 29.5 70.5 30.5 69.5 L 41.5 58.5 L 41.5 56.90625 C 41.5 56.122776 40.877226 55.5 40.09375 55.5 L 6.90625 55.5 z "
         inkscape:radius="0.5"
         sodipodi:type="inkscape:offset" />
    </g>
    <path
       style="fill:url(#radialGradient6338);fill-opacity:1;fill-rule:evenodd;stroke:none;stroke-width:0.89999998;stroke-linecap:butt;stroke-linejoin:round;stroke-miterlimit:4;stroke-dasharray:none;stroke-opacity:1"
       d="M 16.188056,7.858985 C 14.181623,7.858985 13.780337,8.128801 13.379051,8.398616 L 9.127924,11.256976 C 9.230501,11.325945 9.372011,11.366587 9.52921,11.366588 L 22.846901,11.366588 C 23.0041,11.366588 23.145611,11.325945 23.248188,11.256976 L 18.997061,8.398616 C 18.595773,8.128801 18.194488,7.858985 16.188056,7.858985 z"
       id="path6902" />
    <path
       style="opacity:0.55597014;fill:url(#linearGradient6335);fill-opacity:1;fill-rule:evenodd;stroke:none;stroke-width:0.99999988;stroke-linecap:butt;stroke-linejoin:round;stroke-miterlimit:4;stroke-dashoffset:0.69999992;stroke-opacity:0.99236642"
       d="M 9.165544,10.127122 L 9.165544,10.989594 C 9.165544,11.130569 9.320136,11.234807 9.52921,11.234807 L 22.846901,11.234807 C 23.055975,11.234807 23.210567,11.130569 23.210567,10.989594 L 23.210567,10.127122 L 9.165544,10.127122 z"
       id="path6980"
       sodipodi:nodetypes="ccccccc" />
    <g
       id="g4724"
       transform="matrix(0.3804467,0,0,0.2440853,7.247005,0.7417114)">
      <rect
         ry="0.50750387"
         rx="0.50750387"
         y="14.078901"
         x="11.09375"
         height="0.86502957"
         width="25.03125"
         id="rect4710"
         style="fill:#d3d7cf;fill-opacity:1;fill-rule:evenodd;stroke:none;stroke-width:1;stroke-linecap:butt;stroke-linejoin:miter;stroke-miterlimit:4;stroke-dasharray:none;stroke-dashoffset:0.69999992;stroke-opacity:0.99236642" />
      <rect
         style="fill:#d3d7cf;fill-opacity:1;fill-rule:evenodd;stroke:none;stroke-width:1;stroke-linecap:butt;stroke-linejoin:miter;stroke-miterlimit:4;stroke-dasharray:none;stroke-dashoffset:0.69999992;stroke-opacity:0.99236642"
         id="rect4712"
         width="25.03125"
         height="0.86502957"
         x="11.09375"
         y="16.078901"
         rx="0.50750387"
         ry="0.50750387" />
      <rect
         ry="0.50750387"
         rx="0.50750387"
         y="18.078901"
         x="11.09375"
         height="0.86502957"
         width="25.03125"
         id="rect4714"
         style="fill:#d3d7cf;fill-opacity:1;fill-rule:evenodd;stroke:none;stroke-width:1;stroke-linecap:butt;stroke-linejoin:miter;stroke-miterlimit:4;stroke-dasharray:none;stroke-dashoffset:0.69999992;stroke-opacity:0.99236642" />
      <rect
         style="fill:#d3d7cf;fill-opacity:1;fill-rule:evenodd;stroke:none;stroke-width:1;stroke-linecap:butt;stroke-linejoin:miter;stroke-miterlimit:4;stroke-dasharray:none;stroke-dashoffset:0.69999992;stroke-opacity:0.99236642"
         id="rect4716"
         width="25.03125"
         height="0.86502957"
         x="11.09375"
         y="20.078901"
         rx="0.50750387"
         ry="0.50750387" />
      <rect
         ry="0.50750387"
         rx="0.50750387"
         y="22.078901"
         x="11.09375"
         height="0.86502957"
         width="25.03125"
         id="rect4718"
         style="fill:#d3d7cf;fill-opacity:1;fill-rule:evenodd;stroke:none;stroke-width:1;stroke-linecap:butt;stroke-linejoin:miter;stroke-miterlimit:4;stroke-dasharray:none;stroke-dashoffset:0.69999992;stroke-opacity:0.99236642" />
      <rect
         style="fill:#d3d7cf;fill-opacity:1;fill-rule:evenodd;stroke:none;stroke-width:1;stroke-linecap:butt;stroke-linejoin:miter;stroke-miterlimit:4;stroke-dasharray:none;stroke-dashoffset:0.69999992;stroke-opacity:0.99236642"
         id="rect4720"
         width="25.03125"
         height="0.86502957"
         x="11.09375"
         y="24.078901"
         rx="0.50750387"
         ry="0.50750387" />
      <rect
         ry="0.50750387"
         rx="0.50750387"
         y="26.078901"
         x="11.09375"
         height="0.86502957"
         width="25.03125"
         id="rect4722"
         style="fill:#d3d7cf;fill-opacity:1;fill-rule:evenodd;stroke:none;stroke-width:1;stroke-linecap:butt;stroke-linejoin:miter;stroke-miterlimit:4;stroke-dasharray:none;stroke-dashoffset:0.69999992;stroke-opacity:0.99236642" />
    </g>
    <path
       style="fill:none;fill-opacity:1;fill-rule:evenodd;stroke:#888a85;stroke-width:0.30473167;stroke-linecap:butt;stroke-linejoin:round;stroke-miterlimit:4;stroke-dashoffset:0.69999992;stroke-opacity:0.99236642"
       d="M 8.964902,5.051216 L 8.964902,11.025618 C 8.964902,11.238381 9.214813,11.407505 9.52921,11.407504 L 22.846901,11.407504 C 23.161299,11.407504 23.41121,11.238381 23.41121,11.025618 L 23.41121,5.051216"
       id="path7174"
       sodipodi:nodetypes="cccccc" />
    <g
       id="g6320"
       transform="matrix(0.4012863,0,0,0.2792136,-16.215815,-0.4952216)">
      <path
         sodipodi:nodetypes="ccssscccccc"
         id="path7039"
         d="M 63.25,41.970971 L 73.40625,30.627221 C 73.875623,30.157847 74.3406,29.542237 75.375,29.127221 C 76.4094,28.712205 77.95864,28.470971 80.75,28.470971 C 83.530132,28.47097 85.088454,28.712602 86.125,29.127221 C 87.161546,29.54184 87.623047,30.156518 88.09375,30.627221 L 98.25,41.970971 L 88.103408,32.175118 C 86.059401,30.205524 83.585161,29.902961 80.759658,30.018868 C 78.088808,30.068408 75.295355,30.018538 73.415908,32.175118 L 63.25,41.970971 z"
         style="fill:#888a85;fill-opacity:1;fill-rule:evenodd;stroke:none;stroke-width:0.89999998;stroke-linecap:butt;stroke-linejoin:round;stroke-miterlimit:4;stroke-dasharray:none;stroke-opacity:1" />
      <path
         sodipodi:nodetypes="ccccccccc"
         id="path7049"
         d="M 63.25,41.99247 L 73.415908,33.404596 C 75.295355,31.286609 78.088808,31.335586 80.759658,31.286933 C 83.585161,31.1731 86.059401,31.470249 88.103408,33.404596 L 98.25,41.99247 L 88.09375,31.833825 C 86.049743,29.899478 83.575503,29.60233 80.75,29.716162 C 78.07915,29.764816 75.285697,29.715838 73.40625,31.833825 L 63.25,41.99247 z"
         style="fill:#ffffff;fill-opacity:1;fill-rule:evenodd;stroke:none;stroke-width:0.89999998;stroke-linecap:butt;stroke-linejoin:round;stroke-miterlimit:4;stroke-dasharray:none;stroke-opacity:1" />
    </g>
    <path
       style="opacity:0.594697;fill:none;fill-opacity:1;fill-rule:evenodd;stroke:#ffffff;stroke-width:0.30473173;stroke-linecap:butt;stroke-linejoin:round;stroke-miterlimit:4;stroke-dashoffset:0.69999992;stroke-opacity:0.99236642"
       d="M 9.511652,10.85791 C 9.511652,10.989937 9.568618,11.063164 9.671325,11.063164 L 22.715365,11.063164 C 22.818072,11.063164 22.875038,10.989936 22.875038,10.85791"
       id="path7293"
       sodipodi:nodetypes="cccc" />
    <g
       style="display:inline"
       id="g5992"
       transform="matrix(0.4832429,0,0,0.3617094,9.10997,-13.531936)">
      <path
         transform="matrix(1.14985,0,0,1.14985,-23.09153,35.3537)"
         d="M 47.000506,9.3411446 A 8.341651,8.341651 0 1 1 30.317204,9.3411446 A 8.341651,8.341651 0 1 1 47.000506,9.3411446 z"
         sodipodi:ry="8.341651"
         sodipodi:rx="8.341651"
         sodipodi:cy="9.3411446"
         sodipodi:cx="38.658855"
         id="path5988"
         style="fill:url(#radialGradient6283);fill-opacity:1;fill-rule:evenodd;stroke:none;stroke-width:1px;stroke-linecap:butt;stroke-linejoin:miter;stroke-opacity:1;display:inline"
         sodipodi:type="arc" />
      <path
         transform="matrix(0.674116,0.299577,-0.299577,0.674116,-3.207e-2,27.67034)"
         d="M 44.520054,15.50279 C 44.012883,16.381236 39.925351,15.341967 38.998703,15.754538 C 38.072055,16.167108 36.109289,19.900142 35.117113,19.689249 C 34.124936,19.478355 33.850222,15.26973 33.171495,14.515926 C 32.492767,13.762123 28.335913,13.048993 28.229885,12.040207 C 28.123857,11.031421 32.041607,9.4696164 32.548778,8.5911701 C 33.055949,7.7127238 32.449637,3.5389508 33.376285,3.1263806 C 34.302933,2.7138103 36.998949,5.957187 37.991126,6.1680807 C 38.983302,6.3789743 42.765436,4.5125708 43.444163,5.2663741 C 44.122891,6.0201775 41.871371,9.5864995 41.977399,10.595285 C 42.083426,11.604071 45.027225,14.624343 44.520054,15.50279 z"
         inkscape:randomized="0"
         inkscape:rounded="0.18352206"
         inkscape:flatsided="false"
         sodipodi:arg2="1.1519173"
         sodipodi:arg1="0.52359878"
         sodipodi:r2="5.0676599"
         sodipodi:r1="8.755579"
         sodipodi:cy="11.125"
         sodipodi:cx="36.9375"
         sodipodi:sides="5"
         id="path5990"
         style="opacity:1;fill:#ffffff;fill-opacity:1;fill-rule:evenodd;stroke:none;stroke-width:0.5;stroke-linecap:butt;stroke-linejoin:miter;marker:none;marker-start:none;marker-mid:none;marker-end:none;stroke-miterlimit:4;stroke-dasharray:none;stroke-dashoffset:0;stroke-opacity:1;visibility:visible;display:inline;overflow:visible"
         sodipodi:type="star" />
    </g>
    <rect
       ry="0.12387425"
       rx="0.19307812"
       y="3.2018204"
       x="11.467583"
       height="0.21114101"
       width="1.8427882"
       id="rect4708"
       style="fill:#d3d7cf;fill-opacity:1;fill-rule:evenodd;stroke:none;stroke-width:1;stroke-linecap:butt;stroke-linejoin:miter;stroke-miterlimit:4;stroke-dasharray:none;stroke-dashoffset:0.69999992;stroke-opacity:0.99236642" />
  </g>
</svg>
