<?xml version="1.0" encoding="UTF-8" standalone="no"?>
<!-- Created with Inkscape (http://www.inkscape.org/) -->
<svg
   xmlns:dc="http://purl.org/dc/elements/1.1/"
   xmlns:cc="http://creativecommons.org/ns#"
   xmlns:rdf="http://www.w3.org/1999/02/22-rdf-syntax-ns#"
   xmlns:svg="http://www.w3.org/2000/svg"
   xmlns="http://www.w3.org/2000/svg"
   xmlns:xlink="http://www.w3.org/1999/xlink"
   xmlns:sodipodi="http://sodipodi.sourceforge.net/DTD/sodipodi-0.dtd"
   xmlns:inkscape="http://www.inkscape.org/namespaces/inkscape"
   width="24"
   height="24"
   id="svg2"
   sodipodi:version="0.32"
   inkscape:version="0.46"
   version="1.0"
   sodipodi:docbase="/home/plbeaudoin/SFLPhone/sflphone/sflphone-gtk/pixmaps"
   sodipodi:docname="incoming.svg"
   inkscape:output_extension="org.inkscape.output.svg.inkscape"
   sodipodi:modified="true">
  <defs
     id="defs4">
    <linearGradient
       inkscape:collect="always"
       id="linearGradient2772">
      <stop
         style="stop-color:#008000;stop-opacity:1;"
         offset="0"
         id="stop2774" />
      <stop
         style="stop-color:#008000;stop-opacity:0;"
         offset="1"
         id="stop2776" />
    </linearGradient>
    <linearGradient
       inkscape:collect="always"
       id="linearGradient2505">
      <stop
         style="stop-color:#008000;stop-opacity:1;"
         offset="0"
         id="stop2507" />
      <stop
         style="stop-color:#008000;stop-opacity:0;"
         offset="1"
         id="stop2509" />
    </linearGradient>
    <inkscape:perspective
       sodipodi:type="inkscape:persp3d"
       inkscape:vp_x="0 : 12 : 1"
       inkscape:vp_y="0 : 1000 : 0"
       inkscape:vp_z="24 : 12 : 1"
       inkscape:persp3d-origin="12 : 8 : 1"
       id="perspective4177" />
    <linearGradient
       id="linearGradient4269">
      <stop
         style="stop-color:#26b000;stop-opacity:1;"
         offset="0"
         id="stop4271" />
      <stop
         style="stop-color:#26b000;stop-opacity:0;"
         offset="1"
         id="stop4273" />
    </linearGradient>
    <linearGradient
       id="linearGradient4183">
      <stop
         id="stop4185"
         offset="0"
         style="stop-color:#26b000;stop-opacity:1;" />
      <stop
         id="stop4187"
         offset="1"
         style="stop-color:#145f00;stop-opacity:1;" />
    </linearGradient>
    <linearGradient
       id="linearGradient4167">
      <stop
         style="stop-color:#80000e;stop-opacity:1;"
         offset="0"
         id="stop4169" />
      <stop
         style="stop-color:#b00014;stop-opacity:0;"
         offset="1"
         id="stop4171" />
    </linearGradient>
    <linearGradient
       inkscape:collect="always"
       xlink:href="#linearGradient2505"
       id="linearGradient2511"
       x1="17.620802"
       y1="9.4159222"
       x2="-3.8121746"
       y2="9.3760633"
       gradientUnits="userSpaceOnUse"
       gradientTransform="matrix(0.668614,0,0,1,3.7748346,0.1767767)" />
    <linearGradient
       inkscape:collect="always"
       xlink:href="#linearGradient2772"
       id="linearGradient2778"
       x1="26.420586"
       y1="3.4565225"
       x2="20.291727"
       y2="-5.2758617"
       gradientUnits="userSpaceOnUse" />
  </defs>
  <sodipodi:namedview
     id="base"
     pagecolor="#ffffff"
     bordercolor="#666666"
     borderopacity="1.0"
     inkscape:pageopacity="0.0"
     inkscape:pageshadow="2"
     inkscape:zoom="11.313708"
     inkscape:cx="18.87396"
     inkscape:cy="2.756874"
     inkscape:document-units="px"
     inkscape:current-layer="layer1"
     width="32px"
     height="32px"
     showguides="true"
     inkscape:guide-bbox="true"
     inkscape:window-width="1331"
     inkscape:window-height="922"
     inkscape:window-x="169"
     inkscape:window-y="24"
     showgrid="false">
    <sodipodi:guide
       orientation="vertical"
       position="15.982143"
       id="guide3146" />
  </sodipodi:namedview>
  <metadata
     id="metadata7">
    <rdf:RDF>
      <cc:Work
         rdf:about="">
        <dc:format>image/svg+xml</dc:format>
        <dc:type
           rdf:resource="http://purl.org/dc/dcmitype/StillImage" />
      </cc:Work>
    </rdf:RDF>
  </metadata>
  <g
     inkscape:label="Calque 1"
     inkscape:groupmode="layer"
     id="layer1">
    <path
       style="opacity:1;fill:url(#linearGradient2511);fill-opacity:1;stroke:none;stroke-width:0.62500000000000000;stroke-linejoin:miter;stroke-miterlimit:4;stroke-dasharray:none;stroke-dashoffset:0;stroke-opacity:1"
       d="M 1.2259613,4.6445578 L 9.5484692,4.6445578 L 9.5484692,0.60013384 L 15.849421,9.5528402 L 9.5484692,18.505547 L 9.5484692,14.461122 L 1.2259613,14.461122 L 1.2259613,4.6445578 z"
       id="rect4262" />
    <g
       id="g4160"
       transform="matrix(0.3274903,-0.8169208,-0.8169208,-0.3274903,19.715453,28.330727)"
       style="fill:url(#linearGradient2778);fill-opacity:1">
      <path
         sodipodi:nodetypes="cccsccsccsccc"
         id="path3153"
         d="M 16.100095,4.59375 C 10.946289,4.7477067 7.2256019,5.7999634 3.4220983,7.28125 L 3.2345983,10.227679 C 3.7846813,10.972881 5.0136533,11.508929 6.4220983,11.508929 C 7.7912983,11.508929 8.9758403,11.004648 9.5470983,10.290179 L 9.5470983,9.1875 C 11.968608,8.682612 12.862258,8.4375 16.125,8.4375 C 19.479577,8.4375001 20.38467,8.6842603 22.807982,9.15625 L 22.807982,10.165179 C 23.37924,10.879648 24.563781,11.383929 25.932982,11.383929 C 27.341427,11.383929 28.53915,10.847881 29.089232,10.102679 L 28.901732,7.15625 C 24.491586,5.413068 20.816266,4.6964725 16.100095,4.59375 z"
         style="opacity:1;fill:url(#linearGradient2778);fill-opacity:1.0;stroke:#0f5600;stroke-width:0.62500000000000000;stroke-linejoin:miter;stroke-miterlimit:4;stroke-dasharray:none;stroke-dashoffset:0;stroke-opacity:1" />
      <path
         sodipodi:nodetypes="cccsccc"
         id="path3161"
         d="M 6.4075414,13.019293 C 7.7882612,13.019293 8.983936,12.610489 9.5600003,12.01696 L 9.5600003,10.430989 C 8.8231919,11.109285 7.789205,11.494948 6.4075414,11.494948 C 4.9854414,11.494948 3.9881276,11.13019 3.2127675,10.48174 L 3.2127675,11.966208 C 3.7674786,12.585269 4.9872465,13.019293 6.4075414,13.019293 z"
         style="opacity:1;fill:url(#linearGradient2778);fill-opacity:1.0;stroke:#0f5600;stroke-width:0.57204323999999995;stroke-linejoin:miter;stroke-miterlimit:4;stroke-dasharray:none;stroke-dashoffset:0;stroke-opacity:1" />
      <path
         sodipodi:nodetypes="cccsccc"
         id="path4140"
         d="M 25.967532,12.944669 C 27.348252,12.944669 28.543927,12.535865 29.119991,11.942336 L 29.119991,10.356365 C 28.383183,11.034661 27.349196,11.420324 25.967532,11.420324 C 24.545432,11.420324 23.548118,11.055566 22.772758,10.407116 L 22.772758,11.891584 C 23.327469,12.510645 24.547237,12.944669 25.967532,12.944669 z"
         style="opacity:1;fill:url(#linearGradient2778);fill-opacity:1.0;stroke:#0f5600;stroke-width:0.57204323999999995;stroke-linejoin:miter;stroke-miterlimit:4;stroke-dasharray:none;stroke-dashoffset:0;stroke-opacity:1" />
      <path
         sodipodi:nodetypes="cccsccc"
         id="path4246"
         d="M 6.6822725,11.157918 C 8.0629923,11.157918 8.7535908,10.73333 9.3296551,10.139801 L 9.8978659,7.4805434 C 9.1610575,8.1588394 8.1270706,8.5445024 6.745407,8.5445024 C 5.323307,8.5445024 4.4996132,8.1797444 3.7242531,7.5312944 L 3.4874986,10.104833 C 4.0422097,10.723894 5.2619776,11.157918 6.6822725,11.157918 z"
         style="opacity:1;fill:url(#linearGradient2778);fill-opacity:1.0;stroke:none;stroke-width:0.57204323999999995;stroke-linejoin:miter;stroke-miterlimit:4;stroke-dasharray:none;stroke-dashoffset:0;stroke-opacity:1" />
      <path
         sodipodi:nodetypes="cccsccc"
         id="path4258"
         d="M 25.633599,11.055324 C 24.252879,11.055324 23.56228,10.630736 22.986216,10.037207 L 22.418005,7.3779497 C 23.154814,8.0562457 24.188801,8.4419087 25.570464,8.4419087 C 26.992564,8.4419087 27.816258,8.0771507 28.591618,7.4287007 L 28.828373,10.002239 C 28.273662,10.6213 27.053894,11.055324 25.633599,11.055324 z"
         style="opacity:1;fill:url(#linearGradient2778);fill-opacity:1.0;stroke:none;stroke-width:0.57204323999999995;stroke-linejoin:miter;stroke-miterlimit:4;stroke-dasharray:none;stroke-dashoffset:0;stroke-opacity:1" />
    </g>
  </g>
</svg>
