<?xml version="1.0" encoding="UTF-8" standalone="no"?>
<!-- Created with Inkscape (http://www.inkscape.org/) -->

<svg
   xmlns:dc="http://purl.org/dc/elements/1.1/"
   xmlns:cc="http://creativecommons.org/ns#"
   xmlns:rdf="http://www.w3.org/1999/02/22-rdf-syntax-ns#"
   xmlns:svg="http://www.w3.org/2000/svg"
   xmlns="http://www.w3.org/2000/svg"
   xmlns:sodipodi="http://sodipodi.sourceforge.net/DTD/sodipodi-0.dtd"
   xmlns:inkscape="http://www.inkscape.org/namespaces/inkscape"
   width="128"
   height="128"
   id="svg2"
   sodipodi:version="0.32"
   inkscape:version="0.48.3.1 r9886"
   version="1.0"
   sodipodi:docname="contact.svg"
   inkscape:output_extension="org.inkscape.output.svgz.inkscape"
   inkscape:export-filename="/home/nuno/Ãrea de Trabalho/wall/tmp/meeting-participant.png"
   inkscape:export-xdpi="90"
   inkscape:export-ydpi="90">
  <defs
     id="defs4" />
  <sodipodi:namedview
     id="base"
     pagecolor="#ffffff"
     bordercolor="#666666"
     borderopacity="1.0"
     gridtolerance="50"
     guidetolerance="10"
     objecttolerance="10"
     inkscape:pageopacity="0.0"
     inkscape:pageshadow="2"
     inkscape:zoom="4.5007615"
     inkscape:cx="76.851724"
     inkscape:cy="39.653881"
     inkscape:document-units="px"
     inkscape:current-layer="layer1"
     width="128px"
     height="128px"
     showgrid="false"
     showborder="true"
     inkscape:window-width="1918"
     inkscape:window-height="1147"
     inkscape:window-x="1"
     inkscape:window-y="36"
     inkscape:grid-bbox="true"
     showguides="true"
     inkscape:guide-bbox="true"
     inkscape:snap-nodes="true"
     inkscape:snap-global="false"
     inkscape:window-maximized="1"
     inkscape:snap-bbox="true" />
  <metadata
     id="metadata7">
    <rdf:RDF>
      <cc:Work
         rdf:about="">
        <dc:format>image/svg+xml</dc:format>
        <dc:type
           rdf:resource="http://purl.org/dc/dcmitype/StillImage" />
        <dc:title></dc:title>
      </cc:Work>
    </rdf:RDF>
  </metadata>
  <g
     inkscape:label="Layer 1"
     inkscape:groupmode="layer"
     id="layer1">
    <g
       style="opacity:0.40163933"
       transform="matrix(-0.7690129,0,0,0.6392557,-2502.6085,203.19934)"
       id="g4640" />
    <g
       style="opacity:0.40163933"
       transform="matrix(0.9821429,0,0,0.6392557,641.1926,210.3962)"
       id="g4748" />
    <g
       id="g6931"
       inkscape:label="zip_app"
       style="display:inline"
       transform="matrix(0.9821429,0,0,0.9821429,192.21026,-157.69167)" />
    <g
       style="opacity:0.40163933"
       transform="matrix(-0.7690129,0,0,0.6392557,-2364.6913,357.18806)"
       id="g6943" />
    <g
       id="g6945"
       transform="matrix(-0.7690129,0,0,0.6392557,-2364.6913,357.18806)"
       style="opacity:0.40163933" />
    <g
       id="g7565"
       inkscape:label="box"
       style="display:inline"
       transform="matrix(0.9821429,0,0,0.9821429,143.59421,-208.7631)" />
    <g
       id="g7567"
       inkscape:label="zip_app"
       style="display:inline"
       transform="matrix(0.9821429,0,0,0.9821429,143.59421,-208.7631)" />
    <g
       style="opacity:0.40163933"
       transform="matrix(-0.7690129,0,0,0.6392557,-2413.3071,306.11663)"
       id="g7579" />
    <g
       id="g7581"
       transform="matrix(-0.7690129,0,0,0.6392557,-2413.3071,306.11663)"
       style="opacity:0.40163933" />
    <g
       id="g7583"
       transform="matrix(0.9821429,0,0,0.6392557,730.49387,313.31363)"
       style="opacity:0.40163933" />
    <g
       style="opacity:0.40163933"
       transform="matrix(0.9821429,0,0,0.6392557,730.49387,313.31363)"
       id="g7585" />
    <g
       id="g8400"
       inkscape:label="box"
       style="display:inline"
       transform="matrix(0.9821429,0,0,0.9821429,-236.74048,-87.22295)" />
    <g
       id="g8402"
       inkscape:label="zip_app"
       style="display:inline"
       transform="matrix(0.9821429,0,0,0.9821429,-236.74048,-87.22295)" />
    <g
       style="opacity:0.40163933"
       transform="matrix(-0.7690129,0,0,0.6392557,-2793.6413,427.65677)"
       id="g8414" />
    <g
       id="g8416"
       transform="matrix(-0.7690129,0,0,0.6392557,-2793.6413,427.65677)"
       style="opacity:0.40163933" />
    <g
       id="g8418"
       transform="matrix(0.9821429,0,0,0.6392557,350.15925,434.85377)"
       style="opacity:0.40163933" />
    <g
       style="opacity:0.40163933"
       transform="matrix(0.9821429,0,0,0.6392557,350.15925,434.85377)"
       id="g8420" />
    <g
       id="g9110"
       inkscape:label="box"
       style="display:inline"
       transform="matrix(0.9821429,0,0,0.9821429,11.14464,86.01919)" />
    <g
       id="g9112"
       inkscape:label="zip_app"
       style="display:inline"
       transform="matrix(0.9821429,0,0,0.9821429,11.14464,86.01919)" />
    <g
       style="opacity:0.40163933"
       transform="matrix(-0.7690129,0,0,0.6392557,-2545.7571,600.89892)"
       id="g9124" />
    <g
       id="g9126"
       transform="matrix(-0.7690129,0,0,0.6392557,-2545.7571,600.89892)"
       style="opacity:0.40163933" />
    <g
       id="g9128"
       transform="matrix(0.9821429,0,0,0.6392557,598.0443,608.09592)"
       style="opacity:0.40163933" />
    <g
       style="opacity:0.40163933"
       transform="matrix(0.9821429,0,0,0.6392557,598.0443,608.09592)"
       id="g9130" />
    <g
       id="g3639"
       inkscape:label="box"
       style="display:inline"
       transform="matrix(0.9821429,0,0,0.9821429,-87.70776,-143.37353)" />
    <g
       id="g3641"
       inkscape:label="zip_app"
       style="display:inline"
       transform="matrix(0.9821429,0,0,0.9821429,-87.70776,-143.37353)" />
    <g
       style="opacity:0.40163933"
       transform="matrix(-0.7690129,0,0,0.6392557,-2644.6085,371.5062)"
       id="g3653" />
    <g
       id="g3655"
       transform="matrix(-0.7690129,0,0,0.6392557,-2644.6085,371.5062)"
       style="opacity:0.40163933" />
    <g
       id="g3657"
       transform="matrix(0.9821429,0,0,0.6392557,499.192,378.7032)"
       style="opacity:0.40163933" />
    <g
       style="opacity:0.40163933"
       transform="matrix(0.9821429,0,0,0.6392557,499.192,378.7032)"
       id="g3659" />
    <g
       id="g10467"
       inkscape:label="box"
       style="display:inline"
       transform="matrix(0.9821429,0,0,0.9821429,-85.73605,-144.28181)" />
    <g
       id="g10469"
       inkscape:label="zip_app"
       style="display:inline"
       transform="matrix(0.9821429,0,0,0.9821429,-85.73605,-144.28181)" />
    <g
       style="opacity:0.40163933"
       transform="matrix(-0.7690129,0,0,0.6392557,-2642.6371,370.59791)"
       id="g10481" />
    <g
       id="g10483"
       transform="matrix(-0.7690129,0,0,0.6392557,-2642.6371,370.59791)"
       style="opacity:0.40163933" />
    <g
       id="g10485"
       transform="matrix(0.9821429,0,0,0.6392557,501.1637,377.79491)"
       style="opacity:0.40163933" />
    <g
       style="opacity:0.40163933"
       transform="matrix(0.9821429,0,0,0.6392557,501.1637,377.79491)"
       id="g10487" />
    <g
       id="g2885"
       inkscape:label="box"
       style="display:inline"
       transform="matrix(0.9821429,0,0,0.9821429,77.72672,-189.17867)" />
    <g
       id="g2887"
       inkscape:label="zip_app"
       style="display:inline"
       transform="matrix(0.9821429,0,0,0.9821429,77.72672,-189.17867)" />
    <g
       style="opacity:0.40163933"
       transform="matrix(-0.7690129,0,0,0.6392557,-2479.1742,325.70106)"
       id="g2899" />
    <g
       id="g2901"
       transform="matrix(-0.7690129,0,0,0.6392557,-2479.1742,325.70106)"
       style="opacity:0.40163933" />
    <g
       id="g2903"
       transform="matrix(0.9821429,0,0,0.6392557,664.62627,332.89791)"
       style="opacity:0.40163933" />
    <g
       style="opacity:0.40163933"
       transform="matrix(0.9821429,0,0,0.6392557,664.62627,332.89791)"
       id="g2905" />
    <g
       id="g2913"
       inkscape:label="box"
       style="display:inline"
       transform="matrix(0.9821429,0,0,0.9821429,215.64408,-35.18995)" />
    <g
       id="g2915"
       inkscape:label="zip_app"
       style="display:inline"
       transform="matrix(0.9821429,0,0,0.9821429,215.64408,-35.18995)" />
    <g
       style="opacity:0.40163933"
       transform="matrix(-0.7690129,0,0,0.6392557,-2341.2571,479.68977)"
       id="g2927" />
    <g
       id="g2929"
       transform="matrix(-0.7690129,0,0,0.6392557,-2341.2571,479.68977)"
       style="opacity:0.40163933" />
    <g
       id="g2931"
       transform="matrix(0.9821429,0,0,0.6392557,802.54367,486.88677)"
       style="opacity:0.40163933" />
    <g
       style="opacity:0.40163933"
       transform="matrix(0.9821429,0,0,0.6392557,802.54367,486.88677)"
       id="g2933" />
    <g
       id="g4117"
       inkscape:label="box"
       style="display:inline"
       transform="matrix(1.3333329,0,0,1.3333329,-359.18677,-434.74393)" />
    <g
       id="g4119"
       inkscape:label="zip_app"
       style="display:inline"
       transform="matrix(1.3333329,0,0,1.3333329,-359.18677,-434.74393)" />
    <g
       style="opacity:0.40163933"
       transform="matrix(-1.0439929,0,0,0.8678386,-3830.3757,264.24448)"
       id="g4131" />
    <g
       id="g4133"
       transform="matrix(-1.0439929,0,0,0.8678386,-3830.3757,264.24448)"
       style="opacity:0.40163933" />
    <g
       id="g4135"
       transform="matrix(1.3333329,0,0,0.8678386,437.5741,274.01477)"
       style="opacity:0.40163933" />
    <g
       style="opacity:0.40163933"
       transform="matrix(1.3333329,0,0,0.8678386,437.5741,274.01477)"
       id="g4137" />
    <g
       id="g4145"
       inkscape:label="box"
       style="display:inline"
       transform="matrix(1.3333329,0,0,1.3333329,-171.95348,-225.69253)" />
    <g
       id="g4147"
       inkscape:label="zip_app"
       style="display:inline"
       transform="matrix(1.3333329,0,0,1.3333329,-171.95348,-225.69253)" />
    <g
       style="opacity:0.40163933"
       transform="matrix(-1.0439929,0,0,0.8678386,-3643.1428,473.29606)"
       id="g4159" />
    <g
       id="g4161"
       transform="matrix(-1.0439929,0,0,0.8678386,-3643.1428,473.29606)"
       style="opacity:0.40163933" />
    <g
       id="g4163"
       transform="matrix(1.3333329,0,0,0.8678386,624.8076,483.06649)"
       style="opacity:0.40163933" />
    <g
       style="opacity:0.40163933"
       transform="matrix(1.3333329,0,0,0.8678386,624.8076,483.06649)"
       id="g4165" />
    <g
       id="g4173"
       inkscape:label="box"
       style="display:inline"
       transform="matrix(1.3333329,0,0,1.3333329,-237.95348,-295.02573)" />
    <g
       id="g4175"
       inkscape:label="zip_app"
       style="display:inline"
       transform="matrix(1.3333329,0,0,1.3333329,-237.95348,-295.02573)" />
    <g
       style="opacity:0.40163933"
       transform="matrix(-1.0439929,0,0,0.8678386,-3709.1428,403.96263)"
       id="g4188" />
    <g
       id="g4190"
       transform="matrix(-1.0439929,0,0,0.8678386,-3709.1428,403.96263)"
       style="opacity:0.40163933" />
    <g
       id="g4192"
       transform="matrix(1.3333329,0,0,0.8678386,558.8077,413.73306)"
       style="opacity:0.40163933" />
    <g
       style="opacity:0.40163933"
       transform="matrix(1.3333329,0,0,0.8678386,558.8077,413.73306)"
       id="g4194" />
    <g
       id="g4202"
       inkscape:label="box"
       style="display:inline"
       transform="matrix(1.3333329,0,0,1.3333329,-754.28678,-130.02581)" />
    <g
       id="g4204"
       inkscape:label="zip_app"
       style="display:inline"
       transform="matrix(1.3333329,0,0,1.3333329,-754.28678,-130.02581)" />
    <g
       style="opacity:0.40163933"
       transform="matrix(-1.0439929,0,0,0.8678386,-4225.4757,568.96263)"
       id="g4216" />
    <g
       id="g4218"
       transform="matrix(-1.0439929,0,0,0.8678386,-4225.4757,568.96263)"
       style="opacity:0.40163933" />
    <g
       id="g4220"
       transform="matrix(1.3333329,0,0,0.8678386,42.47424,578.73306)"
       style="opacity:0.40163933" />
    <g
       style="opacity:0.40163933"
       transform="matrix(1.3333329,0,0,0.8678386,42.47424,578.73306)"
       id="g4222" />
    <g
       id="g4230"
       inkscape:label="box"
       style="display:inline"
       transform="matrix(1.3333329,0,0,1.3333329,-417.76392,105.16362)" />
    <g
       id="g4232"
       inkscape:label="zip_app"
       style="display:inline"
       transform="matrix(1.3333329,0,0,1.3333329,-417.76392,105.16362)" />
    <g
       style="opacity:0.40163933"
       transform="matrix(-1.0439929,0,0,0.8678386,-3888.9528,804.15219)"
       id="g4244" />
    <g
       id="g4246"
       transform="matrix(-1.0439929,0,0,0.8678386,-3888.9528,804.15219)"
       style="opacity:0.40163933" />
    <g
       id="g4248"
       transform="matrix(1.3333329,0,0,0.8678386,378.9971,813.92249)"
       style="opacity:0.40163933" />
    <g
       style="opacity:0.40163933"
       transform="matrix(1.3333329,0,0,0.8678386,378.9971,813.92249)"
       id="g4250" />
    <g
       id="g4258"
       inkscape:label="box"
       style="display:inline"
       transform="matrix(1.3333329,0,0,1.3333329,-551.96349,-206.25453)" />
    <g
       id="g4260"
       inkscape:label="zip_app"
       style="display:inline"
       transform="matrix(1.3333329,0,0,1.3333329,-551.96349,-206.25453)" />
    <g
       style="opacity:0.40163933"
       transform="matrix(-1.0439929,0,0,0.8678386,-4023.1514,492.73406)"
       id="g4272" />
    <g
       id="g4274"
       transform="matrix(-1.0439929,0,0,0.8678386,-4023.1514,492.73406)"
       style="opacity:0.40163933" />
    <g
       id="g4276"
       transform="matrix(1.3333329,0,0,0.8678386,244.79767,502.50449)"
       style="opacity:0.40163933" />
    <g
       style="opacity:0.40163933"
       transform="matrix(1.3333329,0,0,0.8678386,244.79767,502.50449)"
       id="g4278" />
    <g
       id="g4290"
       inkscape:label="box"
       style="display:inline"
       transform="matrix(1.3333329,0,0,1.3333329,-549.28678,-207.48753)" />
    <g
       id="g4292"
       inkscape:label="zip_app"
       style="display:inline"
       transform="matrix(1.3333329,0,0,1.3333329,-549.28678,-207.48753)" />
    <g
       style="opacity:0.40163933"
       transform="matrix(-1.0439929,0,0,0.8678386,-4020.4757,491.50092)"
       id="g4304" />
    <g
       id="g4306"
       transform="matrix(-1.0439929,0,0,0.8678386,-4020.4757,491.50092)"
       style="opacity:0.40163933" />
    <g
       id="g4308"
       transform="matrix(1.3333329,0,0,0.8678386,247.47424,501.27135)"
       style="opacity:0.40163933" />
    <g
       style="opacity:0.40163933"
       transform="matrix(1.3333329,0,0,0.8678386,247.47424,501.27135)"
       id="g4310" />
    <g
       id="g4364"
       inkscape:label="box"
       style="display:inline"
       transform="matrix(1.3333329,0,0,1.3333329,-327.37363,-268.43854)" />
    <g
       id="g4366"
       inkscape:label="zip_app"
       style="display:inline"
       transform="matrix(1.3333329,0,0,1.3333329,-327.37363,-268.43854)" />
    <g
       style="opacity:0.40163933"
       transform="matrix(-1.0439929,0,0,0.8678386,-3798.5628,430.55006)"
       id="g4378" />
    <g
       id="g4380"
       transform="matrix(-1.0439929,0,0,0.8678386,-3798.5628,430.55006)"
       style="opacity:0.40163933" />
    <g
       id="g4382"
       transform="matrix(1.3333329,0,0,0.8678386,469.3874,440.32034)"
       style="opacity:0.40163933" />
    <g
       style="opacity:0.40163933"
       transform="matrix(1.3333329,0,0,0.8678386,469.3874,440.32034)"
       id="g4384" />
    <g
       id="g4392"
       inkscape:label="box"
       style="display:inline"
       transform="matrix(1.3333329,0,0,1.3333329,-140.14019,-59.3871)" />
    <g
       id="g4394"
       inkscape:label="zip_app"
       style="display:inline"
       transform="matrix(1.3333329,0,0,1.3333329,-140.14019,-59.3871)" />
    <g
       style="opacity:0.40163933"
       transform="matrix(-1.0439929,0,0,0.8678386,-3611.3299,639.60149)"
       id="g4406" />
    <g
       id="g4408"
       transform="matrix(-1.0439929,0,0,0.8678386,-3611.3299,639.60149)"
       style="opacity:0.40163933" />
    <g
       id="g4410"
       transform="matrix(1.3333329,0,0,0.8678386,656.6208,649.37192)"
       style="opacity:0.40163933" />
    <g
       style="opacity:0.40163933"
       transform="matrix(1.3333329,0,0,0.8678386,656.6208,649.37192)"
       id="g4412" />
    <g
       transform="matrix(0.1463445,-0.02678525,0.01010528,0.1292785,98.97435,-19.70366)"
       style="fill:url(#radialGradient4876);fill-opacity:1"
       id="g3561" />
    <path
       style="fill:#000000;fill-opacity:1;fill-rule:evenodd;stroke:none;opacity:0.09"
       d="M 71.625 16.46875 C 68.975829 16.555654 66.104326 17.427546 63.375 18.5625 C 54.54404 22.234737 41.71107 11.053731 43.0625 37.3125 C 42.8012 36.459092 42.559285 35.662792 42.34375 34.875 C 42.438843 36.010402 42.536845 37.160215 42.65625 38.34375 C 42.491696 37.989967 42.339792 37.635033 42.15625 37.28125 C 42.011531 35.537271 39.366886 35.745452 39.5625 37.71875 C 41.156633 45.193422 42.5832 47.537818 44 48.28125 C 45.233669 53.391831 47.384936 56.929269 49.53125 59.59375 C 50.226815 63.527907 50.585392 67.524071 49.75 70.3125 C 51.75862 73.718074 56.993441 78.894368 61.90625 81.625 L 62.375 82.3125 L 61.71875 83 C 62.036383 83.05904 62.333301 83.131857 62.65625 83.1875 L 64.15625 83.1875 C 64.625393 83.106668 65.073394 82.994439 65.53125 82.90625 L 64.96875 82.3125 L 65.53125 81.5 C 70.762659 78.791195 74.7074 74.551563 77.1875 70.53125 C 76.113442 67.287019 76.74008 62.288734 77.6875 57.65625 C 77.695607 57.644593 77.710649 57.636685 77.71875 57.625 C 79.627235 54.872131 81.351427 51.369566 82.15625 46.75 C 83.462664 45.806244 84.783205 43.252631 86.25 36.375 C 86.445628 34.401702 83.80097 34.2248 83.65625 35.96875 C 83.422483 36.419344 83.203122 36.861906 83 37.3125 C 83.055443 36.676569 83.103409 36.089435 83.15625 35.46875 C 82.7184 36.625799 82.258284 37.790431 81.71875 39 C 83.729935 21.046028 78.395103 16.246662 71.625 16.46875 z "
       id="path3845-1" />
    <path
       inkscape:connector-curvature="0"
       style="fill:#000000;fill-opacity:1;fill-rule:evenodd;stroke:none;opacity:0.127"
       id="path2732"
       d="m 43.064538,37.32247 c -1.35143,-26.258769 11.46845,-15.098262 20.29941,-18.770499 9.70427,-4.035393 21.14975,-4.530611 18.35158,20.448829 6.74768,-15.127474 5.60568,-26.21512 -4.99221,-31.5731804 -4.27221,-6.068276 -13.16356,-6.71760699 -20.73823,-4.540857 -9.77918,2.648904 -14.57429,9.6018524 -15.44669,19.2945004 -0.14032,3.660106 0.43574,8.313947 2.52614,15.141207 z"
       sodipodi:nodetypes="csccccc" />
    <path
       inkscape:connector-curvature="0"
       style="fill:#000000;fill-opacity:1;fill-rule:evenodd;stroke:none;opacity:0.03"
       id="path4552"
       d="m 49.400844,69.744091 -2.109892,3.560443 c -8.659631,16.505037 -3.446539,32.489826 4.582411,47.175756 3.398622,0.0704 6.656999,0.10223 9.560434,0.0989 0.514709,-5.8e-4 1.087411,0 1.582408,0 0.35431,1.1e-4 0.72496,0 1.054938,0 0.531488,-2e-4 1.055261,-5.6e-4 1.582423,0 2.846131,0.003 6.038799,7e-5 9.36262,-0.066 5.893611,-14.10037 15.093119,-28.741623 4.615382,-47.538379 l -1.945064,-3.230758 c -2.712544,4.734786 -7.55792,9.954492 -14.14283,12.692321 -5.591427,-2.480012 -12.230987,-8.958397 -14.14283,-12.692292 z" />
    <path
       inkscape:connector-curvature="0"
       style="fill:#000000;fill-opacity:1;fill-rule:evenodd;stroke:none;opacity:0.04"
       id="path4582"
       d="m 49.400844,69.744091 -2.109892,3.560443 c -0.898016,1.71161 -1.629782,3.410327 -2.241748,5.10988 l 6.758231,15.26371 10.582401,-11.373613 -0.494513,-0.692297 C 56.710436,78.730356 51.127751,73.116782 49.400844,69.744091 z m 28.28566,0 c -2.431261,4.243793 -6.589868,8.88254 -12.164809,11.769224 l -0.560441,0.791196 10.516473,11.373613 6.75823,-15.131839 c -0.68115,-1.821011 -1.543951,-3.669023 -2.604389,-5.571421 l -1.945064,-3.230773 z" />
    <path
       style="fill:#000000;fill-opacity:1;fill-rule:evenodd;stroke:none;opacity:0.127"
       d="M 79.75 73.1875 C 79.806745 73.290652 79.850685 73.397097 79.90625 73.5 C 80.263536 74.161675 80.596581 74.817215 80.90625 75.46875 C 80.972094 75.605058 81.061189 75.739142 81.125 75.875 C 81.210772 76.060835 81.292985 76.252473 81.375 76.4375 C 81.490952 76.694706 81.610345 76.962832 81.71875 77.21875 C 81.847293 77.526625 81.975369 77.850581 82.09375 78.15625 C 82.142614 78.281995 82.203041 78.405709 82.25 78.53125 L 82.25 78.5625 C 88.293623 94.730611 80.327542 107.82871 75.03125 120.5 C 78.484785 120.43143 82.137434 120.27482 85.875 119.96875 C 90.100181 110.93681 92.237688 104.97101 95.46875 95.375 L 92.0625 90.4375 A 0.50005001 0.50005001 0 0 1 92.3125 89.65625 L 97.625 88.28125 C 95.506388 85.375003 94.155712 83.292131 93.03125 81.5 C 88.039293 79.375569 83.565072 77.280397 81.125 75.46875 L 79.75 73.1875 z M 47.28125 73.3125 L 45.96875 75.46875 C 43.568546 77.250801 39.205004 79.317292 34.3125 81.40625 C 33.173222 83.216678 31.781289 85.324507 29.625 88.28125 L 34.9375 89.65625 A 0.50005001 0.50005001 0 0 1 35.1875 90.4375 L 31.78125 95.375 C 35.009186 104.96172 37.15801 110.92023 41.375 119.9375 C 44.990398 120.22753 48.527756 120.39941 51.875 120.46875 C 44.675248 107.29952 39.760957 93.102905 45.0625 78.40625 C 45.366642 77.563125 45.68947 76.721199 46.0625 75.875 C 46.20927 75.535271 46.372231 75.184335 46.53125 74.84375 C 46.571224 74.759372 46.615565 74.678157 46.65625 74.59375 C 46.858542 74.168757 47.056746 73.740403 47.28125 73.3125 z M 32.78125 82.0625 C 26.244144 84.801413 19.024849 87.52935 14.21875 89.6875 C 11.163805 91.05929 10.983465 92.582336 10.09375 95 C 7.3801645 102.37349 8.09375 109.6875 8.09375 109.6875 L 9.6875 111.53125 C 12.393238 113.07158 15.234855 114.34839 18.1875 115.40625 C 17.687524 107.70141 16.655858 100.21547 12.625 91.9375 C 15.630634 92.733759 17.880408 106.54593 18.21875 115.40625 C 25.282877 117.93342 32.880852 119.22452 40.1875 119.875 C 36.073201 111.0168 34.003518 105.0434 30.78125 95.46875 A 0.50005001 0.50005001 0 0 1 30.84375 95 L 33.96875 90.46875 L 28.65625 89.09375 A 0.50005001 0.50005001 0 0 1 28.40625 88.3125 C 30.337249 85.693587 31.703217 83.722676 32.78125 82.0625 z M 94.53125 82.15625 C 95.59562 83.798452 96.948172 85.741655 98.84375 88.3125 A 0.50005001 0.50005001 0 0 1 98.59375 89.09375 L 93.28125 90.46875 L 96.40625 95 A 0.50005001 0.50005001 0 0 1 96.46875 95.46875 C 93.245041 105.04769 91.149234 111.01022 87.03125 119.875 C 94.329247 119.21378 101.9178 117.91908 108.96875 115.375 C 109.31129 106.51335 111.56044 92.732813 114.5625 91.9375 C 110.53723 100.20398 109.50078 107.68145 109 115.375 C 111.91219 114.32268 114.73364 113.05272 117.40625 111.53125 L 119 109.6875 C 119 109.6875 119.68233 102.37349 116.96875 95 C 116.07903 92.582336 115.92996 91.05929 112.875 89.6875 C 108.12327 87.553763 101.0096 84.864055 94.53125 82.15625 z "
       id="path3875-4" />
    <path
       style="fill:#000000;fill-opacity:1;fill-rule:evenodd;stroke:none;opacity:0.08"
       d="m 62.152815,82.027815 -3.46875,3.90625 2.8125,4.46875 0.03125,0 c -2.923998,10.119605 -4.31947,17.449605 -6,29.875005 5.617857,0.073 10.109613,0.0462 15.25,0 -1.944765,-12.5718 -3.509791,-21.262906 -5.84375,-29.843755 -0.0027,-0.0098 0.0027,-0.02145 0,-0.03125 l 3.125,-4.75 -3.34375,-3.59375 -2.5625,-0.03125 z"
       id="path5035"
       inkscape:connector-curvature="0" />
  </g>
</svg>
